SplineFontDB: 3.0
FontName: KAN-BadamiNormal
FullName: KAN Badami Normal
FamilyName: KAN Badami
Weight: Book
Copyright: Copyright (c) 2009-2015, NLCI (http://www.nlci.in/fonts/)
Version: 1.0 Sat Apr 29 14:43:46 1995
ItalicAngle: 0
UnderlinePosition: -290
UnderlineWidth: 20
Ascent: 800
Descent: 200
InvalidEm: 0
LayerCount: 2
Layer: 0 0 "Back" 1
Layer: 1 0 "Fore" 0
XUID: [1021 182 1145523420 2649352]
FSType: 0
OS2Version: 0
OS2_WeightWidthSlopeOnly: 0
OS2_UseTypoMetrics: 1
CreationTime: 1250503974
ModificationTime: 1422020867
PfmFamily: 81
TTFWeight: 400
TTFWidth: 5
LineGap: 0
VLineGap: 0
Panose: 5 0 0 0 0 0 0 0 0 0
OS2TypoAscent: -72
OS2TypoAOffset: 1
OS2TypoDescent: -196
OS2TypoDOffset: 1
OS2TypoLinegap: 0
OS2WinAscent: -118
OS2WinAOffset: 1
OS2WinDescent: -156
OS2WinDOffset: 1
HheadAscent: -118
HheadAOffset: 1
HheadDescent: 156
HheadDOffset: 1
OS2SubXSize: 700
OS2SubYSize: 650
OS2SubXOff: 0
OS2SubYOff: 143
OS2SupXSize: 700
OS2SupYSize: 650
OS2SupXOff: 0
OS2SupYOff: 453
OS2StrikeYSize: 50
OS2StrikeYPos: 259
OS2CapHeight: 0
OS2XHeight: 0
OS2Vendor: 'Alts'
OS2UnicodeRanges: 00000000.00000000.00000000.00000000
Lookup: 6 0 0 "'akhn' Akhand in Kannada lookup 0" { "'akhn' Akhand in Kannada lookup 0 subtable"  } ['akhn' ('knda' <'dflt' > ) ]
Lookup: 6 0 0 "'akhn' Akhand in Kannada lookup 1" { "'akhn' Akhand in Kannada lookup 1 contextual 0"  "'akhn' Akhand in Kannada lookup 1 contextual 1"  } ['akhn' ('knda' <'dflt' > ) ]
Lookup: 4 0 0 "'abvs' Above Base Substitutions in Kannada lookup 2" { "'abvs' Above Base Substitutions in Kannada lookup 2 subtable"  } ['abvs' ('knda' <'dflt' > ) ]
Lookup: 4 0 0 "'rphf' Reph Form in Kannada lookup 3" { "'rphf' Reph Form in Kannada lookup 3 subtable"  } ['rphf' ('knda' <'dflt' > ) ]
Lookup: 4 0 0 "'blwf' Below Base Forms in Kannada lookup 4" { "'blwf' Below Base Forms in Kannada lookup 4 subtable"  } ['blwf' ('knda' <'dflt' > ) ]

StartChar: .notdef
Encoding: 0 -1 0
Width: 500
Flags: W
HStem: 0 31<62 438> 596 31<62 438>
VStem: 31 31<31 596> 438 31<31 596>
LayerCount: 2
Back
Fore
SplineSet
31 0 m 1
 31 627 l 1
 469 627 l 1
 469 0 l 1
 31 0 l 1
438 31 m 1
 438 596 l 1
 62 596 l 1
 62 31 l 1
 438 31 l 1
EndSplineSet
EndChar

StartChar: exclam
Encoding: 4 33 4
Width: 337
Flags: HW
LayerCount: 2
Back
Fore
SplineSet
170 108 m 256
 201.575 108 230 84.4 230 49 c 256
 230 12.9456 199.265 -12 170 -12 c 256
 140.677 -12 111 13.3115 111 49 c 256
 111 84.4 139.025 108 170 108 c 256
175 684 m 256
 213.591 684 237.113 662.682 230 620 c 1
 230 613.894 221.535 495.961 220 476 c 130
 214 397 l 2
 208.667 333.667 203 262.333 197 183 c 1
 149 183 l 1
 131 397 l 1
 125 476 l 130
 124.995 476.068 115 612.851 115 620 c 0
 115 651.6 127 684 175 684 c 256
EndSplineSet
EndChar

StartChar: quotedbl
Encoding: 5 34 5
Width: 333
Flags: HW
LayerCount: 2
Back
Fore
SplineSet
43 664 m 1
 43 702.4 65.8 712 85 712 c 256
 112.949 712 125 693.01 125 664 c 1
 94 420 l 1
 78 420 l 1
 43 664 l 1
202 664 m 1
 202 693.074 215.102 712 243 712 c 256
 270.869 712 284 693.026 284 664 c 1
 251 420 l 1
 235 420 l 1
 202 664 l 1
EndSplineSet
EndChar

StartChar: numbersign
Encoding: 6 35 6
Width: 743
Flags: HW
LayerCount: 2
Back
Fore
SplineSet
324 420 m 1
 275 277 l 1
 420 277 l 1
 469 420 l 1
 324 420 l 1
523 420 m 1
 477 277 l 1
 638 277 l 1
 638 228 l 1
 459 228 l 1
 376 -22 l 1
 327 -6 l 1
 404 228 l 1
 259 228 l 1
 175 -22 l 1
 127 -5 l 1
 207 228 l 1
 65 228 l 1
 65 277 l 1
 223 277 l 1
 271 420 l 1
 109 420 l 1
 109 471 l 1
 288 471 l 1
 368 706 l 1
 418 690 l 1
 341 471 l 1
 486 471 l 1
 565 706 l 1
 618 690 l 1
 542 471 l 1
 682 471 l 1
 682 420 l 1
 523 420 l 1
EndSplineSet
EndChar

StartChar: dollar
Encoding: 7 36 7
Width: 562
Flags: HW
LayerCount: 2
Back
Fore
SplineSet
308 51 m 1
 337.925 55.4889 414 74.8 414 170 c 0
 414 240.2 368.185 268.944 308 287 c 1
 308 51 l 1
262 614 m 1
 211.029 603.804 169 567.975 169 502 c 256
 169 437.46 223.434 410.854 262 398 c 1
 262 614 l 1
308 669 m 1
 369.519 669 425.448 658.322 475 648 c 1
 475 491 l 1
 423 491 l 1
 409 596 l 1
 393.667 612.667 359.667 621 307 621 c 1
 307 383 l 1
 351 370 l 130
 465.484 335.154 497.607 277.255 505 191 c 1
 505 67.0803 369.493 6 310 6 c 1
 310 -97 l 1
 264 -97 l 1
 264 6 l 1
 234.092 6 141.202 7.6634 65 29 c 1
 65 198 l 1
 114 198 l 1
 132 87 l 1
 144.528 70.296 189.22 54 262 54 c 1
 262 306 l 1
 178.778 324.206 79 370.469 79 485 c 0
 79 629.8 228.46 662.365 263 666 c 1
 263 741 l 1
 308 741 l 1
 308 669 l 1
EndSplineSet
EndChar

StartChar: percent
Encoding: 8 37 8
Width: 859
Flags: HW
LayerCount: 2
Back
Fore
SplineSet
188 307 m 256
 258.716 307 262 425.773 262 477 c 256
 262 528.446 258.672 647 188 647 c 256
 116.732 647 111 529.762 111 477 c 256
 111 424.023 116.768 307 188 307 c 256
676 24 m 256
 735.2 24 750 107.2 750 195 c 256
 750 246.446 746.672 365 676 365 c 256
 604.732 365 599 247.762 599 195 c 256
 599 141.948 604.59 24 676 24 c 256
187 687 m 256
 298.956 687 338 582.504 338 478 c 256
 338 373.835 298.559 270 187 270 c 256
 75.3148 270 35 376.235 35 478 c 256
 35 580.208 74.9418 687 187 687 c 256
250 1 m 1
 188 1 l 1
 612 671 l 1
 674 671 l 1
 250 1 l 1
676 403 m 256
 788.074 403 828 296.201 828 194 c 256
 828 92.2127 787.668 -14 676 -14 c 256
 564.315 -14 524 92.2344 524 194 c 256
 524 296.208 563.942 403 676 403 c 256
EndSplineSet
EndChar

StartChar: ampersand
Encoding: 9 38 9
Width: 699
Flags: HW
LayerCount: 2
Back
Fore
SplineSet
141 212 m 0
 141 128.206 198.6 58 285 58 c 0
 336.6 58 370.448 75.7051 414 112 c 1
 211 333 l 1
 148.416 291.275 141 242.468 141 212 c 0
270 397 m 1
 311.872 416.94 355.75 447.793 359 529 c 1
 359 586.628 329.399 635 267 635 c 0
 211.034 635 179 593.217 179 543 c 0
 179 526.681 181.839 480.462 241 425 c 129
 270 397 l 1
528 291 m 0
 528 296.396 519.447 308 511 308 c 1
 457 315 l 1
 457 356 l 1
 662 356 l 1
 662 315 l 1
 591 305 l 1
 575.36 249.147 545.803 195.863 530 171.5 c 130
 508 138 l 1
 589 45 l 1
 678 41 l 1
 678 -1 l 1
 490 3 l 1
 490 26 l 1
 446 76 l 1
 406.5 46 l 129
 341.291 -1.71239 282.135 -8 246 -8 c 0
 136.406 -8 41 70 41 187 c 0
 41 256.6 74.5231 320.25 173 361 c 1
 151 383 l 130
 130.491 403.509 90 453.812 90 512 c 0
 90 612.2 170.419 679 278 679 c 0
 376.289 679 452 619.4 452 530 c 0
 452 428.128 368.524 384.344 307 357 c 1
 474 176 l 1
 490 200 l 130
 516.058 240.533 526.667 272.352 528 291 c 0
EndSplineSet
EndChar

StartChar: quotesingle
Encoding: 10 39 10
Width: 170
Flags: HW
LayerCount: 2
Back
Fore
SplineSet
43 664 m 1
 43 693.074 56.1015 712 84 712 c 256
 111.869 712 125 693.026 125 664 c 1
 94 420 l 1
 78 420 l 1
 43 664 l 1
EndSplineSet
EndChar

StartChar: parenleft
Encoding: 11 40 11
Width: 375
Flags: HW
LayerCount: 2
Back
Fore
SplineSet
154 283 m 256
 154 110.428 182.866 -76.3645 343 -101 c 1
 342 -142 l 1
 132.565 -121.864 62 71.1882 62 284 c 0
 62 524.495 150.275 689.234 343 709 c 1
 343 666 l 1
 183.118 641.404 154 455.688 154 283 c 256
EndSplineSet
EndChar

StartChar: parenright
Encoding: 12 41 12
Width: 375
Flags: HW
LayerCount: 2
Back
Fore
SplineSet
37 715 m 1
 244.61 693.708 322.238 505.442 317 288 c 1
 317 189.74 304.035 -112.326 37 -138 c 1
 37 -95 l 1
 133.546 -80.147 225 -4.46356 225 289 c 256
 225 581.768 133.484 657.157 37 672 c 1
 37 715 l 1
EndSplineSet
EndChar

StartChar: asterisk
Encoding: 13 42 13
Width: 500
Flags: HW
LayerCount: 2
Back
Fore
SplineSet
198 362 m 1
 129 337 l 1
 130 411 l 1
 231 492 l 1
 243 483 l 1
 198 362 l 1
227 505 m 1
 98 512 l 1
 54 568 l 1
 124 588 l 1
 231 518 l 1
 227 505 l 1
300 361 m 1
 255 481 l 1
 267 490 l 1
 368 409 l 1
 369 335 l 1
 300 361 l 1
255 527 m 1
 242 527 l 1
 208 652 l 1
 249 713 l 1
 290 652 l 1
 255 527 l 1
399 511 m 1
 271 504 l 1
 267 518 l 1
 374 588 l 1
 444 568 l 1
 399 511 l 1
EndSplineSet
EndChar

StartChar: plus
Encoding: 14 43 14
Width: 1000
Flags: HW
LayerCount: 2
Back
Fore
SplineSet
530 269 m 1
 530 0 l 1
 469 0 l 1
 469 269 l 1
 200 269 l 1
 200 331 l 1
 469 331 l 1
 469 600 l 1
 530 600 l 1
 530 331 l 1
 799 331 l 1
 799 269 l 1
 530 269 l 1
EndSplineSet
EndChar

StartChar: comma
Encoding: 15 44 15
Width: 279
Flags: HW
LayerCount: 2
Back
Fore
SplineSet
125 118 m 0
 184.918 118 206 66.0306 206 9 c 0
 206 -96.6 115.474 -162.209 34 -167 c 1
 34 -131 l 1
 111.843 -116.032 142 -74.1486 142 7 c 1
 80 7 l 1
 69.6747 21.4554 65 31.2662 65 51 c 0
 65 82.1064 87.185 118 125 118 c 0
EndSplineSet
EndChar

StartChar: hyphen
Encoding: 16 45 16
Width: 319
Flags: HW
LayerCount: 2
Back
Fore
SplineSet
43 203 m 1
 43 277 l 1
 274 277 l 1
 274 203 l 1
 43 203 l 1
EndSplineSet
EndChar

StartChar: period
Encoding: 17 46 17
Width: 279
Flags: HW
LayerCount: 2
Back
Fore
SplineSet
130 120 m 0
 168.769 120 195 88.0769 195 55 c 0
 195 15.4 164.05 -11 130 -11 c 0
 91 -11 65 20.275 65 55 c 0
 65 87.1774 90.6023 120 130 120 c 0
EndSplineSet
EndChar

StartChar: slash
Encoding: 18 47 18
Width: 490
Flags: HW
LayerCount: 2
Back
Fore
SplineSet
63 -92 m 1
 0 -92 l 1
 425 671 l 1
 489 671 l 1
 63 -92 l 1
EndSplineSet
EndChar

StartChar: zero
Encoding: 19 48 19
Width: 562
Flags: HW
LayerCount: 2
Back
Fore
SplineSet
282 37 m 256
 389.2 37 416 185.95 416 334 c 256
 416 482.65 389.2 632 282 632 c 256
 175.6 632 149 483.083 149 334 c 256
 149 186.002 175.6 37 282 37 c 256
40 334 m 0
 40 489.177 95.8991 683 278 683 c 256
 441.801 683 495.862 525.722 510.5 425.5 c 128
 514.833 395.833 518.333 365.333 521 334 c 1
 521 198.53 482.834 72.2832 386.5 13 c 128
 356.167 -5.66667 320.667 -15 280 -15 c 256
 144.7 -15 78.2191 95.6278 54.5 199.5 c 128
 44.8333 241.833 40 286.667 40 334 c 0
EndSplineSet
EndChar

StartChar: one
Encoding: 20 49 20
Width: 562
Flags: HW
LayerCount: 2
Back
Fore
SplineSet
328 67 m 2
 328 60.7 333.25 46 349 46 c 2
 442 43 l 1
 442 -1 l 1
 107 0 l 1
 107 44 l 1
 208 47 l 2
 220.6 47 229 57.5 229 68 c 2
 229 599 l 1
 75 573 l 1
 75 617 l 1
 290 683 l 1
 328 683 l 1
 328 67 l 2
EndSplineSet
EndChar

StartChar: two
Encoding: 21 50 21
Width: 562
Flags: HW
LayerCount: 2
Back
Fore
SplineSet
284 685 m 0
 412.375 685 506 607.8 506 492 c 0
 506 371.42 376.367 257.507 246.5 156 c 130
 159 87 l 1
 455 87 l 1
 472 172 l 1
 521 172 l 1
 521 3 l 1
 46 0 l 1
 46 66 l 1
 185.5 180.5 l 130
 338.769 307.22 393 391.634 393 478 c 0
 393 572.131 332.381 628 252 628 c 0
 204.481 628 177.15 605 172 605 c 1
 172 495 l 1
 168.573 492.258 153.2 481 125 481 c 256
 102.892 481 67 492.267 67 538 c 0
 67 619.278 163.872 685 284 685 c 0
EndSplineSet
EndChar

StartChar: three
Encoding: 22 51 22
Width: 562
Flags: HW
LayerCount: 2
Back
Fore
SplineSet
338 357 m 1
 399.543 355.014 516 323.6 516 190 c 0
 516 67 396.866 -15 255 -15 c 0
 115.733 -15 50 54.6 50 101 c 0
 50 119.35 61.4 154 107 154 c 0
 123.205 154 134.016 151.323 139 148 c 1
 168 60 l 1
 190.257 47.1149 219 35 253 35 c 0
 346 35 408 109.594 408 190 c 0
 408 289.2 319.8 314 261 314 c 2
 202 314 l 1
 202 376 l 1
 210 376 218 376 226 376 c 0
 289.6 376 385 401 385 501 c 0
 385 582.986 324.733 630 256 630 c 0
 216.774 630 182.212 614.948 168 605 c 1
 168 505 l 1
 154.5 498.5 l 130
 146.833 494.833 137 493 125 493 c 0
 105.384 493 69 502.269 69 547 c 0
 69 623.625 170.39 686 288 686 c 0
 405.019 686 491 618 491 516 c 0
 491 452.4 451.417 387.653 338 357 c 1
EndSplineSet
EndChar

StartChar: four
Encoding: 23 52 23
Width: 562
Flags: HW
LayerCount: 2
Back
Fore
SplineSet
344 559 m 1
 119 268 l 1
 344 268 l 1
 344 559 l 1
437 201 m 1
 437 -14 l 1
 344 -14 l 1
 344 201 l 1
 40 201 l 1
 40 269 l 1
 368 687 l 1
 437 687 l 1
 437 268 l 1
 521 268 l 1
 521 201 l 1
 437 201 l 1
EndSplineSet
EndChar

StartChar: five
Encoding: 24 53 24
Width: 562
Flags: HW
LayerCount: 2
Back
Fore
SplineSet
288 423 m 0
 479.749 423 509.592 293.055 517 216 c 1
 517 109.6 449.721 -15 237 -15 c 0
 131.939 -15 49 51.7422 49 101 c 0
 49 136.913 74.3412 156 111 156 c 0
 123.5 156 131 153 136 153 c 1
 174 62 l 1
 183.999 51.9998 218.4 36 248 36 c 0
 354.3 36 410 123.553 410 193 c 0
 410 299.854 340.947 357 241 357 c 0
 198.533 357 138.61 342.87 85 325 c 1
 85 671 l 1
 471 671 l 1
 471 587 l 1
 156 587 l 1
 156 398 l 1
 167.5 402 l 130
 187.918 409.103 244.595 423 288 423 c 0
EndSplineSet
EndChar

StartChar: six
Encoding: 25 54 25
Width: 562
Flags: HW
LayerCount: 2
Back
Fore
SplineSet
281 38 m 256
 380.734 38 422.502 124.985 420 215 c 1
 420 283.6 392 369 280 369 c 0
 236.543 369 184.186 349.218 147 320 c 1
 146.333 310 146 300.5 146 291.5 c 130
 146 267 l 2
 146 154.306 173 38 281 38 c 256
319 436 m 0
 444.721 436 528.217 346.413 523 229 c 1
 523 84.7063 416.254 -14 282 -14 c 256
 186.8 -14 44 30.7812 44 288 c 0
 44 524.757 187.183 686 442 686 c 1
 442 624 l 1
 408 624 l 2
 382.525 624.542 255.339 625.782 184 480 c 128
 168.667 448.667 158.667 413.333 154 374 c 1
 196.739 410.485 247.684 436 319 436 c 0
EndSplineSet
EndChar

StartChar: seven
Encoding: 26 55 26
Width: 562
Flags: HW
LayerCount: 2
Back
Fore
SplineSet
192 17 m 1
 192 -16 l 1
 87 -16 l 1
 417 586 l 1
 109 586 l 1
 93 496 l 1
 43 496 l 1
 43 671 l 1
 522 671 l 1
 522 616 l 1
 192 17 l 1
EndSplineSet
EndChar

StartChar: eight
Encoding: 27 56 27
Width: 562
Flags: HW
LayerCount: 2
Back
Fore
SplineSet
282 41 m 0
 378.996 41 422.308 110.628 420 166 c 1
 420 215.2 396.882 252.267 307.5 289 c 130
 224 323 l 1
 157.94 288.231 135 242.6 135 189 c 0
 135 104.169 185.453 41 282 41 c 0
332 373 m 1
 366.812 398.527 403 439.966 403 506 c 0
 403 584.3 351 634 283 634 c 0
 215.906 634 170 580.502 170 521 c 0
 170 432.2 275.155 393.943 332 373 c 1
375 353 m 1
 438.363 330.962 519.327 287.194 522 183 c 1
 522 66 415.736 -12 283 -12 c 0
 141.185 -12 45 65.6 45 182 c 0
 45 248 80.4602 308.28 185 347 c 1
 136.095 366.561 71 414.846 71 497 c 0
 71 608.6 153.475 683 283 683 c 0
 409.967 683 495 604.472 495 513 c 0
 495 417 403.141 366.33 375 353 c 1
EndSplineSet
EndChar

StartChar: nine
Encoding: 28 57 28
Width: 562
Flags: HW
LayerCount: 2
Back
Fore
SplineSet
144 455 m 0
 144 386.4 172 301 284 301 c 0
 327.457 301 379.814 320.782 417 350 c 1
 417.667 360 418 369.5 418 378.5 c 130
 418 403 l 2
 418 600.699 337.6 632 284 632 c 0
 172 632 144 531.05 144 455 c 0
283 685 m 256
 378.6 685 522 639.364 522 384 c 0
 522 116.484 347.34 -14 123 -14 c 1
 123 48 l 1
 156 48 l 2
 180.451 47.4797 308.6 46.2054 381.5 192 c 128
 397.167 223.333 407.333 258.667 412 298 c 1
 401.553 288.598 346.8 237 249 237 c 0
 124.119 237 43 324.15 43 442 c 0
 43 587.8 148.872 685 283 685 c 256
EndSplineSet
EndChar

StartChar: colon
Encoding: 29 58 29
Width: 279
Flags: HW
LayerCount: 2
Back
Fore
SplineSet
130 120 m 0
 168.769 120 195 88.0769 195 55 c 0
 195 15.4 164.05 -11 130 -11 c 0
 91 -11 65 20.275 65 55 c 0
 65 87.1774 90.6023 120 130 120 c 0
130 490 m 0
 168.769 490 195 458.077 195 425 c 256
 195 386.231 163.077 360 130 360 c 0
 90.5605 360 65 392.827 65 425 c 256
 65 457.178 90.6023 490 130 490 c 0
EndSplineSet
EndChar

StartChar: semicolon
Encoding: 30 59 30
Width: 279
Flags: HW
LayerCount: 2
Back
Fore
SplineSet
125 118 m 0
 184.918 118 206 66.0306 206 9 c 0
 206 -96.6 115.474 -162.209 34 -167 c 1
 34 -131 l 1
 111.843 -116.032 142 -74.1486 142 7 c 1
 80 7 l 1
 69.6747 21.4554 65 31.2662 65 51 c 0
 65 82.1064 87.185 118 125 118 c 0
131 489 m 0
 165.636 489 195 461.1 195 424 c 256
 195 385.231 163.077 359 130 359 c 0
 90.5605 359 65 391.827 65 424 c 256
 65 458.05 91.4 489 131 489 c 0
EndSplineSet
EndChar

StartChar: less
Encoding: 31 60 31
Width: 1000
Flags: HW
LayerCount: 2
Back
Fore
SplineSet
200 269 m 1
 200 331 l 1
 799 560 l 1
 799 498 l 1
 264 299 l 1
 799 101 l 1
 799 39 l 1
 200 269 l 1
EndSplineSet
EndChar

StartChar: equal
Encoding: 32 61 32
Width: 1000
Flags: HW
LayerCount: 2
Back
Fore
SplineSet
200 178 m 1
 200 240 l 1
 799 240 l 1
 799 178 l 1
 200 178 l 1
200 359 m 1
 200 421 l 1
 799 421 l 1
 799 359 l 1
 200 359 l 1
EndSplineSet
EndChar

StartChar: greater
Encoding: 33 62 33
Width: 1000
Flags: HW
LayerCount: 2
Back
Fore
SplineSet
200 39 m 1
 200 101 l 1
 735 299 l 1
 200 498 l 1
 200 560 l 1
 799 331 l 1
 799 269 l 1
 200 39 l 1
EndSplineSet
EndChar

StartChar: question
Encoding: 34 63 34
Width: 485
Flags: HW
LayerCount: 2
Back
Fore
SplineSet
214 684 m 0
 338.484 684 425.932 606.314 416 507 c 1
 416 379.806 301.419 324.489 229 294 c 1
 229 184 l 1
 173 184 l 1
 173 329 l 1
 229.603 346.229 316 397.8 316 501 c 0
 316 610.6 244.5 638 174 638 c 1
 133 536 l 1
 119 536 l 2
 64.7203 536 56 567.2 56 588 c 0
 56 626.4 95.025 684 214 684 c 0
206 108 m 0
 243.241 108 266 79.3202 266 47 c 0
 266 11.4614 235.266 -11 206 -11 c 256
 170.6 -11 147 17.425 147 49 c 256
 147 84.4 175.025 108 206 108 c 0
EndSplineSet
EndChar

StartChar: at
Encoding: 35 64 35
Width: 936
Flags: HW
LayerCount: 2
Back
Fore
SplineSet
367 230 m 0
 367 136.7 413.2 123 444 123 c 0
 483.6 123 518.899 155.015 543 186 c 1
 583 393 l 2
 586.134 411.798 558.48 449 526 449 c 0
 430.6 449 367 355.624 367 230 c 0
525 692 m 0
 715.673 692 869.971 585.553 862 373 c 1
 862 165.475 718 59 622 59 c 0
 577.85 59 545 75.4 545 141 c 1
 472.409 68.4088 429.8 60 401 60 c 0
 327.2 60 278 122.863 278 221 c 0
 278 372.961 398.283 491 525 491 c 0
 546.623 491 570.33 487.112 597 476 c 130
 620 466 l 1
 638 488 l 1
 693 488 l 1
 693 486.667 692 481.333 690 472 c 130
 672 389.5 l 130
 668 371.833 664.333 354.333 661 337 c 2
 630 195 l 2
 627.333 183.667 626 173.333 626 164 c 128
 626 135.772 637.898 119 666 119 c 0
 724.218 119 816 219.952 816 377 c 0
 816 561.9 680.886 650 539 650 c 0
 295.958 650 151 470.404 151 263 c 0
 151 62.9573 276.345 -95 499 -95 c 0
 603.4 -95 681.752 -65.6798 760 -23 c 1
 774 -59 l 1
 700.995 -98.8211 594.6 -145 475 -145 c 0
 266.256 -145 80 -2.6041 80 243 c 0
 80 529.261 291.5 692 525 692 c 0
EndSplineSet
EndChar

StartChar: A
Encoding: 36 65 36
Width: 673
Flags: HW
LayerCount: 2
Back
Fore
SplineSet
313 558 m 1
 216 296 l 1
 411 296 l 1
 313 558 l 1
132 66 m 1
 132 52.4 141.6 49 144 49 c 2
 203 45 l 1
 203 3 l 1
 2 3 l 1
 2 45 l 1
 60 57 l 1
 292 688 l 1
 367 688 l 1
 598 71 l 2
 602.063 57.4551 604.352 55.2408 618 54 c 2
 662 47 l 1
 662 5 l 1
 430 1 l 1
 430 43 l 1
 487 47 l 2
 492.4 47 497.276 59.1748 496 63 c 2
 428 246 l 1
 198 246 l 1
 132 66 l 1
EndSplineSet
EndChar

StartChar: B
Encoding: 37 66 37
Width: 604
Flags: HW
LayerCount: 2
Back
Fore
SplineSet
383 357 m 1
 461.079 357 565 325.2 565 198 c 0
 565 42 429.339 3 313 3 c 2
 34 3 l 1
 34 45 l 1
 86 48 l 2
 102 48 106 62 106 68 c 2
 106 601 l 2
 106 607 102 621 86 621 c 2
 34 624 l 1
 34 666 l 1
 301 666 l 2
 424.772 666 524 631.291 524 508 c 256
 524 415.197 448.411 372.573 383 357 c 1
268 56 m 2
 408.2 56 448.428 100.572 457 192 c 1
 457 270.6 416.612 323 296 323 c 0
 261.2 323 217.7 320 209 320 c 1
 209 56 l 1
 268 56 l 2
238 377 m 2
 391.033 377 407.891 448.949 414 508 c 1
 414 580.6 371.3 629 261 629 c 2
 206 629 l 1
 206 377 l 1
 238 377 l 2
EndSplineSet
EndChar

StartChar: C
Encoding: 38 67 38
Width: 626
Flags: HW
LayerCount: 2
Back
Fore
SplineSet
159 332 m 0
 159 166.612 236.196 36 410 36 c 0
 424.843 36 499.262 40.5855 504 69 c 1
 526 177 l 1
 584 177 l 1
 587 22 l 1
 582.168 22 498.566 -15 390 -15 c 0
 164.759 -15 43 152.252 43 334 c 0
 43 538.463 180.984 682 390 682 c 0
 418.1 682 462.546 679.655 530.5 661 c 130
 586 645 l 1
 586 489 l 1
 526 489 l 1
 512 579 l 1
 512 586.562 503.532 596.735 497 600 c 2
 482.5 606 l 130
 466.688 612.659 431.2 624 397 624 c 0
 254.2 624 159 513.708 159 332 c 0
EndSplineSet
EndChar

StartChar: D
Encoding: 39 68 39
Width: 695
Flags: HW
LayerCount: 2
Back
Fore
SplineSet
290 44 m 2
 492.4 44 543 178.679 543 334 c 0
 543 519.821 465.317 619 285 619 c 2
 209 619 l 1
 209 44 l 1
 290 44 l 2
291 660 m 2
 503.44 660 656 553.967 656 330 c 0
 656 185.48 587 -3 311 -3 c 2
 34 -3 l 1
 34 39 l 1
 86 42 l 2
 102.8 42 107 55.9 107 62 c 2
 107 595 l 2
 107 601.1 102.8 615 86 615 c 2
 34 618 l 1
 34 660 l 1
 291 660 l 2
EndSplineSet
EndChar

StartChar: E
Encoding: 40 69 40
Width: 583
Flags: HW
LayerCount: 2
Back
Fore
SplineSet
462 38 m 2
 471.6 38 478 50.8 478 56 c 2
 496 155 l 1
 549 155 l 1
 549 -11 l 1
 32 0 l 1
 32 42 l 1
 83 45 l 2
 99.8 45 104 58.9 104 65 c 2
 104 598 l 2
 104 604.1 99.8 618 83 618 c 2
 32 621 l 1
 32 663 l 1
 517 663 l 1
 517 515 l 1
 457 515 l 1
 442 597 l 1
 442 607.8 432.4 615 426 615 c 2
 210 615 l 1
 210 366 l 1
 359 366 l 2
 367.6 366 376 375.6 376 382 c 2
 386 450 l 1
 436 450 l 1
 436 227 l 1
 386 227 l 1
 376 296 l 2
 376 302.462 367.827 313 359 313 c 2
 210 313 l 1
 210 38 l 1
 462 38 l 2
EndSplineSet
EndChar

StartChar: F
Encoding: 41 70 41
Width: 541
Flags: HW
LayerCount: 2
Back
Fore
SplineSet
107 597 m 2
 107 603 103 617 87 617 c 2
 26 620 l 1
 26 662 l 1
 512 662 l 1
 512 504 l 1
 452 512 l 1
 438 603 l 2
 436.827 611.21 431.728 620 423 620 c 2
 211 620 l 1
 211 360 l 1
 363 360 l 2
 372.6 360 379 371.8 379 377 c 2
 388 447 l 1
 437 447 l 1
 437 222 l 1
 388 222 l 1
 379 291 l 2
 379 296.2 372.6 308 363 308 c 2
 211 308 l 1
 211 64 l 2
 211 58 215 44 231 44 c 2
 297 41 l 1
 297 -1 l 1
 35 -1 l 1
 35 41 l 1
 87 44 l 2
 103 44 107 58 107 64 c 2
 107 597 l 2
EndSplineSet
EndChar

StartChar: G
Encoding: 42 71 42
Width: 694
Flags: HW
LayerCount: 2
Back
Fore
SplineSet
499 252 m 2
 499 257.6 495 271 479 271 c 2
 413 275 l 1
 413 318 l 1
 673 318 l 1
 673 275 l 1
 619 275 l 2
 603 275 599 261.6 599 256 c 2
 599 26 l 1
 559.874 11.6537 474.2 -12 391 -12 c 0
 171.4 -12 45 148.903 45 338 c 0
 45 561.506 195.054 686 404 686 c 0
 488.547 686 555.622 663.403 597 654 c 1
 597 493 l 1
 537 493 l 1
 521 582 l 2
 519.311 595.504 514.722 602.084 463 618 c 128
 445.771 623.302 424.577 627 402 627 c 0
 286.926 627 160 554.664 160 340 c 0
 160 173.762 239.292 40 414 40 c 0
 463.037 40 491.297 53 499 53 c 1
 499 252 l 2
EndSplineSet
EndChar

StartChar: H
Encoding: 43 72 43
Width: 743
Flags: HW
LayerCount: 2
Back
Fore
SplineSet
638 65 m 2
 638 58.9 642.2 45 659 45 c 2
 710 42 l 1
 710 0 l 1
 458 0 l 1
 458 42 l 1
 515 45 l 2
 531 45 535 59 535 65 c 2
 535 323 l 1
 206 323 l 1
 206 65 l 2
 206 59 210 45 226 45 c 2
 283 42 l 1
 283 0 l 1
 31 0 l 1
 31 42 l 1
 82 45 l 2
 98.8 45 103 58.9 103 65 c 2
 103 598 l 2
 103 603.9 98.8 617 82 617 c 2
 31 620 l 1
 31 663 l 1
 283 663 l 1
 283 620 l 1
 226 617 l 2
 210 617 206 603.6 206 598 c 2
 206 373 l 1
 535 373 l 1
 535 598 l 2
 535 603.6 531 617 515 617 c 2
 458 620 l 1
 458 663 l 1
 710 663 l 1
 710 620 l 1
 659 617 l 2
 642.2 617 638 603.9 638 598 c 2
 638 65 l 2
EndSplineSet
EndChar

StartChar: I
Encoding: 44 73 44
Width: 330
Flags: W
HStem: 0 45<33 112 215 296> 617 46<33 112 215 296>
VStem: 112 103<45.0102 616.99>
LayerCount: 2
Back
Fore
SplineSet
215 65 m 2
 215 59 219 45 235 45 c 2
 296 42 l 1
 296 0 l 1
 33 0 l 1
 33 42 l 1
 92 45 l 2
 108 45 112 59 112 65 c 2
 112 598 l 2
 112 603.6 108 617 92 617 c 2
 33 620 l 1
 33 663 l 1
 296 663 l 1
 296 620 l 1
 235 617 l 2
 219 617 215 603.6 215 598 c 2
 215 65 l 2
EndSplineSet
EndChar

StartChar: J
Encoding: 45 74 45
Width: 484
Flags: HW
LayerCount: 2
Back
Fore
SplineSet
280 602 m 2
 280 608 276 622 260 622 c 2
 198 625 l 1
 198 667 l 1
 462 667 l 1
 462 625 l 1
 400 624 l 2
 384 624 380 610 380 604 c 2
 380 255 l 2
 380 53.691 293.2 -12 163 -12 c 0
 95.2121 -12 37.44 14 31 14 c 1
 31 184 l 1
 91 184 l 1
 112 62 l 2
 113.697 50.127 123.798 38 156 38 c 0
 255.2 38 280 123.344 280 247 c 2
 280 602 l 2
EndSplineSet
EndChar

StartChar: K
Encoding: 46 75 46
Width: 638
Flags: HW
LayerCount: 2
Back
Fore
SplineSet
613 624 m 1
 560.148 620.889 553.582 619 547 619 c 1
 343 375 l 1
 567 47 l 1
 639 43 l 1
 639 1 l 1
 462 0 l 1
 462 30 l 1
 276 297 l 1
 207 297 l 1
 207 68 l 2
 207 61.9 211.2 48 228 48 c 2
 285 45 l 1
 285 3 l 1
 32 3 l 1
 32 45 l 1
 84 48 l 2
 100 48 104 62 104 68 c 2
 104 601 l 2
 104 607 100 621 84 621 c 2
 32 624 l 1
 32 666 l 1
 285 666 l 1
 285 624 l 1
 228 621 l 2
 211.2 621 207 607.1 207 601 c 2
 207 339 l 1
 243 339 l 1
 460 605 l 2
 464.13 610.508 458.237 620 453 620 c 2
 402 624 l 1
 402 666 l 1
 613 666 l 1
 613 624 l 1
EndSplineSet
EndChar

StartChar: L
Encoding: 47 76 47
Width: 530
Flags: HW
LayerCount: 2
Back
Fore
SplineSet
416 45 m 2
 422.4 45 436 51.4 436 61 c 1
 452 181 l 1
 510 181 l 1
 510 -5 l 1
 26 0 l 1
 26 42 l 1
 84 45 l 2
 100 45 104 59 104 65 c 2
 104 598 l 2
 104 604 100 618 84 618 c 2
 26 621 l 1
 26 663 l 1
 281 663 l 1
 281 621 l 1
 228 618 l 2
 211.2 618 207 604.1 207 598 c 2
 207 45 l 1
 416 45 l 2
EndSplineSet
EndChar

StartChar: M
Encoding: 48 77 48
Width: 875
Flags: HW
LayerCount: 2
Back
Fore
SplineSet
768 65 m 2
 768 58.9 772.2 45 789 45 c 2
 843 42 l 1
 843 0 l 1
 592 0 l 1
 592 42 l 1
 645 45 l 2
 661.8 45 666 58.9 666 65 c 2
 666 616 l 1
 437 -4 l 1
 388 -4 l 1
 166 606 l 1
 166 65 l 2
 166 58.9 170.2 45 187 45 c 2
 244 42 l 1
 244 0 l 1
 28 0 l 1
 28 42 l 1
 85 45 l 2
 101 45 105 59 105 65 c 2
 105 598 l 2
 105 604 101 618 85 618 c 2
 28 621 l 1
 28 663 l 1
 252 663 l 1
 252 637 l 1
 433 146 l 1
 614 634 l 1
 614 663 l 1
 843 663 l 1
 843 621 l 1
 789 618 l 2
 772.2 618 768 604.1 768 598 c 2
 768 65 l 2
EndSplineSet
EndChar

StartChar: N
Encoding: 49 78 49
Width: 721
Flags: HW
LayerCount: 2
Back
Fore
SplineSet
556 601 m 2
 556 607 552 621 536 621 c 2
 479 624 l 1
 479 666 l 1
 692 666 l 1
 692 624 l 1
 636 624 l 2
 620 624 616 610 616 604 c 2
 616 2 l 1
 538 2 l 1
 166 562 l 1
 166 71 l 2
 166 65 170 51 186 51 c 2
 243 48 l 1
 243 6 l 1
 27 6 l 1
 27 48 l 1
 84 51 l 2
 100.8 51 105 64.9 105 71 c 2
 105 604 l 2
 105 610.1 100.8 624 84 624 c 2
 25 627 l 1
 25 669 l 1
 223 669 l 1
 223 645 l 1
 556 143 l 1
 556 601 l 2
EndSplineSet
EndChar

StartChar: O
Encoding: 50 79 50
Width: 730
Flags: W
HStem: -15 56<278.687 452.627> 627 57<279.363 453.34>
VStem: 42 115<201.412 466.162> 576 114<204.335 463.022>
LayerCount: 2
Back
Fore
SplineSet
365 41 m 0
 521.078 41 573.622 192.774 576 333 c 1
 576 471.31 522.235 627 368 627 c 0
 211.873 627 157 477.713 157 336 c 0
 157 196.801 210.238 41 365 41 c 0
365 684 m 256
 560 684 690 530.289 690 334 c 0
 690 140.041 560.4 -15 366 -15 c 256
 171.6 -15 42 133.1 42 335 c 0
 42 535.189 171.2 684 365 684 c 256
EndSplineSet
EndChar

StartChar: P
Encoding: 51 80 51
Width: 579
Flags: HW
LayerCount: 2
Back
Fore
SplineSet
267 301 m 0
 402.2 301 437.922 384.397 436 467 c 1
 436 575.959 374.059 619 261 619 c 2
 214 619 l 1
 214 305 l 1
 235.186 303.234 245.8 301 267 301 c 0
268 664 m 2
 438.43 664 543.935 620.542 541 468 c 1
 541 317.22 421.403 251 281 251 c 2
 261 251 l 130
 241.75 251 237.9 252 222.5 252 c 130
 214 252 l 1
 214 66 l 2
 214 60 218 46 234 46 c 2
 299 43 l 1
 299 1 l 1
 37 1 l 1
 37 43 l 1
 89 46 l 2
 105.8 46 110 59.9 110 66 c 2
 110 599 l 2
 110 605.1 105.8 619 89 619 c 2
 29 622 l 1
 29 664 l 1
 268 664 l 2
EndSplineSet
EndChar

StartChar: Q
Encoding: 52 81 52
Width: 738
Flags: HW
LayerCount: 2
Back
Fore
SplineSet
371 42 m 0
 525.951 42 582 196.396 582 334 c 0
 582 474.705 526.643 628 370 628 c 0
 213.873 628 159 478.713 159 337 c 0
 159 199.767 216.186 42 371 42 c 0
369 684 m 0
 567.6 684 697.214 536.53 700 336 c 1
 700 155.425 596.568 18.6511 426 -8 c 1
 426 -69.6 456.2 -128 562 -128 c 0
 619 -128 647.5 -120 657 -120 c 1
 657 -162 l 1
 643.327 -162 592.215 -176 511 -176 c 0
 367.991 -176 320 -109.6 320 -10 c 1
 148.142 12.9144 44 152.62 44 336 c 0
 44 537.691 174 684 369 684 c 0
EndSplineSet
EndChar

StartChar: R
Encoding: 53 82 53
Width: 648
Flags: HW
LayerCount: 2
Back
Fore
SplineSet
257 347 m 2
 389.464 347 424.524 398.465 429 488 c 1
 429 593.6 351.975 620 255 620 c 2
 210 620 l 1
 210 347 l 1
 257 347 l 2
380 328 m 1
 594.283 279.787 432.422 48 650 48 c 1
 646 -3 l 1
 644 -3 641 -3.5 637 -4.5 c 130
 622.5 -8 l 130
 603.238 -12.532 590.9 -13 583 -13 c 0
 346.42 -13 501.393 298 257 298 c 2
 215 298 l 1
 215 70 l 2
 215 64 219 50 235 50 c 2
 287 47 l 1
 287 5 l 1
 39 5 l 1
 39 47 l 1
 90 50 l 2
 106.8 50 111 63.9 111 70 c 2
 111 603 l 2
 111 609.1 106.8 623 90 623 c 2
 39 626 l 1
 39 668 l 1
 299 668 l 2
 486.086 668 542 598 542 493 c 0
 542 387.057 461.502 346.405 380 328 c 1
EndSplineSet
EndChar

StartChar: S
Encoding: 54 83 54
Width: 520
Flags: HW
LayerCount: 2
Back
Fore
SplineSet
286 625 m 0
 195.19 625 158 564.95 158 510 c 0
 158 353.443 492.069 397.36 481 187 c 1
 481 95.2184 416.268 -16 218 -16 c 0
 178.674 -16 105.495 -10.7598 43 19 c 1
 43 196 l 1
 105 196 l 1
 118 83 l 1
 118 58.4069 180.643 42 232 42 c 0
 305.314 42 377 77.055 377 158 c 0
 377 182.8 370.865 231.342 260.5 282 c 129
 203 309 l 2
 129.69 343.21 51 380.6 51 488 c 0
 51 604.4 147.85 682 281 682 c 0
 336.8 682 380.254 672.466 420.5 660.5 c 130
 455 650 l 1
 455 495 l 1
 398 495 l 1
 383 590 l 1
 383 601.12 350.817 625 286 625 c 0
EndSplineSet
EndChar

StartChar: T
Encoding: 55 84 55
Width: 599
Flags: HW
LayerCount: 2
Back
Fore
SplineSet
103 620 m 2
 94 620 88 612.1 88 604 c 1
 75 511 l 1
 17 511 l 1
 17 670 l 1
 583 670 l 1
 583 511 l 1
 523 511 l 1
 509 604 l 2
 507.813 612.305 502.755 620 494 620 c 2
 351 620 l 1
 351 67 l 2
 351 61 355 47 371 47 c 2
 434 44 l 1
 434 2 l 1
 164 2 l 1
 164 44 l 1
 227 47 l 2
 243 47 247 61 247 67 c 2
 247 620 l 1
 103 620 l 2
EndSplineSet
EndChar

StartChar: U
Encoding: 56 85 56
Width: 711
Flags: HW
LayerCount: 2
Back
Fore
SplineSet
547 608 m 2
 547 614.1 542.8 628 526 628 c 2
 469 631 l 1
 469 673 l 1
 686 673 l 1
 686 631 l 1
 626 624 l 1
 610 624 606 610 606 604 c 2
 606 225 l 2
 606 61.0133 515.821 -11 351 -11 c 0
 222.45 -11 107 36.6 107 227 c 2
 107 606 l 2
 107 612 103 626 87 626 c 2
 34 629 l 1
 34 671 l 1
 288 671 l 1
 288 629 l 1
 231 626 l 2
 215 626 211 612 211 606 c 2
 211 252 l 2
 211 129.077 244.4 58 378 58 c 0
 502.489 58 547 126.379 547 254 c 2
 547 608 l 2
EndSplineSet
EndChar

StartChar: V
Encoding: 57 86 57
Width: 666
Flags: HW
LayerCount: 2
Back
Fore
SplineSet
598 617 m 1
 374 -16 l 1
 298 -16 l 1
 69 618 l 1
 10 627 l 1
 10 669 l 1
 249 669 l 1
 249 627 l 1
 190 623 l 2
 183.6 623 180.682 612.27 182 607 c 2
 357 113 l 1
 525 605 l 2
 526.325 611.623 519.581 623 511 623 c 2
 456 627 l 1
 456 669 l 1
 654 669 l 1
 654 627 l 1
 598 617 l 1
EndSplineSet
EndChar

StartChar: W
Encoding: 58 87 58
Width: 931
Flags: HW
LayerCount: 2
Back
Fore
SplineSet
859 616 m 1
 707 -16 l 1
 634 -16 l 1
 468 538 l 1
 305 -16 l 1
 233 -16 l 1
 70 616 l 1
 12 627 l 1
 12 669 l 1
 241 669 l 1
 241 627 l 1
 182 622 l 2
 174.034 622 171.724 611.65 173 604 c 2
 292 153 l 1
 448 673 l 1
 525 673 l 1
 686 137 l 1
 796 604 l 2
 797.241 611.444 793.4 622 783 622 c 2
 721 627 l 1
 721 669 l 1
 925 669 l 1
 925 627 l 1
 859 616 l 1
EndSplineSet
EndChar

StartChar: X
Encoding: 59 88 59
Width: 633
Flags: HW
LayerCount: 2
Back
Fore
SplineSet
367 0 m 1
 367 42 l 1
 424 47 l 2
 433.388 47 440.578 56.2396 435 66 c 2
 303 274 l 1
 149 63 l 2
 144.521 55.5351 146.282 46 161 46 c 2
 221 42 l 1
 221 0 l 1
 9 0 l 1
 9 42 l 1
 69 54 l 1
 270 329 l 1
 88 614 l 1
 23 625 l 1
 23 667 l 1
 273 667 l 1
 273 625 l 1
 223 621 l 1
 208.177 621 206.59 610.349 211 603 c 2
 333 416 l 1
 467 601 l 2
 474.307 611.232 465.634 620 457 620 c 1
 406 626 l 1
 406 668 l 1
 615 668 l 1
 615 626 l 1
 551 617 l 1
 366 362 l 1
 562 55 l 1
 624 43 l 1
 624 1 l 1
 367 0 l 1
EndSplineSet
EndChar

StartChar: Y
Encoding: 60 89 60
Width: 625
Flags: HW
LayerCount: 2
Back
Fore
SplineSet
236 49 m 2
 252.8 49 257 62.9 257 69 c 2
 257 270 l 1
 66 616 l 1
 8 627 l 1
 8 669 l 1
 245 669 l 1
 245 627 l 1
 195 623 l 2
 181.551 621.777 180.971 612.573 184 605 c 2
 325 344 l 1
 479 602 l 2
 484.572 611.751 477.351 621 468 621 c 2
 412 627 l 1
 412 669 l 1
 615 669 l 1
 615 627 l 1
 562 618 l 1
 361 285 l 1
 361 69 l 2
 361 63 365 49 381 49 c 2
 444 46 l 1
 444 4 l 1
 174 4 l 1
 174 46 l 1
 236 49 l 2
EndSplineSet
EndChar

StartChar: Z
Encoding: 61 90 61
Width: 575
Flags: HW
LayerCount: 2
Back
Fore
SplineSet
39 0 m 1
 39 43 l 1
 411 620 l 1
 151 620 l 2
 142.268 620 137.181 612.267 136 604 c 2
 122 512 l 1
 63 512 l 1
 63 671 l 1
 533 671 l 1
 533 626 l 1
 161 52 l 1
 445 52 l 2
 453.705 52 458.833 60.8334 460 69 c 2
 477 185 l 1
 536 185 l 1
 536 0 l 1
 39 0 l 1
EndSplineSet
EndChar

StartChar: bracketleft
Encoding: 62 91 62
Width: 422
Flags: HW
LayerCount: 2
Back
Fore
SplineSet
136 -131 m 1
 136 708 l 1
 378 708 l 1
 378 664 l 1
 223 664 l 1
 223 -85 l 1
 378 -85 l 1
 378 -130 l 1
 136 -131 l 1
EndSplineSet
EndChar

StartChar: backslash
Encoding: 63 92 63
Width: 488
Flags: HW
LayerCount: 2
Back
Fore
SplineSet
424 -92 m 1
 0 671 l 1
 63 671 l 1
 487 -92 l 1
 424 -92 l 1
EndSplineSet
EndChar

StartChar: bracketright
Encoding: 64 93 64
Width: 422
Flags: HW
LayerCount: 2
Back
Fore
SplineSet
43 -131 m 1
 43 -86 l 1
 200 -86 l 1
 200 663 l 1
 43 663 l 1
 43 707 l 1
 287 707 l 1
 287 -132 l 1
 43 -131 l 1
EndSplineSet
EndChar

StartChar: asciicircum
Encoding: 65 94 65
Width: 327
Flags: HW
LayerCount: 2
Back
Fore
SplineSet
267 550 m 1
 164 649 l 1
 60 550 l 1
 0 550 l 1
 125 719 l 1
 200 719 l 1
 325 550 l 1
 267 550 l 1
EndSplineSet
EndChar

StartChar: underscore
Encoding: 66 95 66
Width: 334
Flags: HW
LayerCount: 2
Back
Fore
SplineSet
0 -148 m 1
 0 -85 l 1
 334 -85 l 1
 334 -148 l 1
 0 -148 l 1
EndSplineSet
EndChar

StartChar: grave
Encoding: 67 96 67
Width: 350
Flags: HW
LayerCount: 2
Back
Fore
SplineSet
1 685 m 0
 1 710.779 16.1872 728 44 728 c 0
 62.8968 728 74.6437 723.839 83.5 714 c 130
 226 548 l 1
 174 550 l 1
 23 647 l 2
 10.7345 654.359 1 666.323 1 685 c 0
EndSplineSet
EndChar

StartChar: a
Encoding: 68 97 68
Width: 508
Flags: HW
LayerCount: 2
Back
Fore
SplineSet
134 132 m 0
 134 92.9785 160.39 51 208 51 c 0
 245.457 51 290.755 71.1402 329 96 c 1
 331 267 l 1
 161.532 224.002 134 186 134 132 c 0
425 63 m 2
 425 47 439 43 445 43 c 2
 493 41 l 1
 493 2 l 1
 342 2 l 1
 329 61 l 1
 284.998 27.1515 221.825 -7 166 -7 c 0
 88.6 -7 37 48.6188 37 126 c 0
 37 197.6 65.1316 247.738 331 305 c 1
 331 347 l 2
 331 412.901 304.282 445 239 445 c 0
 225 445 209.575 445.589 169 434 c 1
 169 348 l 1
 97 348 l 2
 80.3801 348 62 349.161 62 375 c 0
 62 444.6 148.017 491 269 491 c 0
 376.962 491 425 444.799 425 343 c 2
 425 63 l 2
EndSplineSet
EndChar

StartChar: b
Encoding: 69 98 69
Width: 555
Flags: HW
LayerCount: 2
Back
Fore
SplineSet
318 492 m 0
 398.8 492 503.413 450.578 520 264 c 1
 520 145.329 463 1 235 1 c 2
 91 1 l 1
 91 666 l 1
 16 666 l 1
 16 699 l 1
 144 737 l 1
 184 737 l 1
 184 458 l 1
 206.595 466.474 257.53 492 318 492 c 0
229 50 m 2
 333.672 50 414 88.8 414 244 c 0
 414 407.4 322.8 434 262 434 c 0
 230 434 189.787 423.224 182 421 c 1
 182 50 l 1
 229 50 l 2
EndSplineSet
EndChar

StartChar: c
Encoding: 70 99 70
Width: 465
Flags: HW
LayerCount: 2
Back
Fore
SplineSet
307 50 m 0
 362.198 50 403.891 70.9281 436 92 c 1
 432 37 l 1
 396.5 20 l 130
 366.289 5.30252 317.459 -10 265 -10 c 0
 125.713 -10 38 95.1844 38 237 c 0
 38 398.416 145.064 490 277 490 c 0
 343.617 490 430 467.065 430 391 c 0
 430 360.016 407.888 334 373 334 c 0
 363.2 334 354.826 332.876 324 350 c 1
 324 436 l 1
 316.429 439.785 298.611 448 284 448 c 0
 199.4 448 143 370.163 143 249 c 0
 143 143.245 192.682 50 307 50 c 0
EndSplineSet
EndChar

StartChar: d
Encoding: 71 100 71
Width: 563
Flags: HW
LayerCount: 2
Back
Fore
SplineSet
137 244 m 0
 137 129.119 194.2 57 280 57 c 0
 287.945 57 317.121 56.3683 360.5 79 c 130
 381 90 l 1
 380 431 l 1
 362.38 433.938 336.15 443 298 443 c 0
 185.89 443 137 349.662 137 244 c 0
474 64 m 2
 474 52 482 44 494 44 c 2
 536 42 l 1
 536 3 l 1
 381 0 l 1
 381 53 l 1
 342.55 23.5961 289.8 -10 229 -10 c 0
 96.7639 -10 40 112.47 40 228 c 0
 40 363.571 122.019 492 293 492 c 0
 300.304 492 337.384 490.721 366 485 c 130
 381 482 l 1
 381 665 l 1
 306 665 l 1
 306 698 l 1
 434 736 l 1
 474 736 l 1
 474 64 l 2
EndSplineSet
EndChar

StartChar: e
Encoding: 72 101 72
Width: 490
Flags: HW
LayerCount: 2
Back
Fore
SplineSet
300 51 m 0
 350.35 51 406.373 78.8892 456 111 c 1
 456 49 l 1
 418.203 24.4313 347.652 -11 269 -11 c 0
 140.633 -11 40 76.7551 40 235 c 0
 40 385.688 133.2 491 273 491 c 0
 397.692 491 458 405.216 458 288 c 2
 458 262 l 1
 134 262 l 1
 134 167.484 167.2 51 300 51 c 0
356 328 m 1
 356 390.197 328.321 443 262 443 c 256
 190.6 443 145.331 379.542 143 305 c 1
 362 305 l 1
 356 328 l 1
EndSplineSet
EndChar

StartChar: f
Encoding: 73 102 73
Width: 326
Flags: HW
LayerCount: 2
Back
Fore
SplineSet
304 733 m 0
 372 733 385.23 696.74 389 676 c 1
 389 634.4 347.8 624 344 624 c 1
 256 686 l 1
 235.041 675.522 199 641.445 199 538 c 2
 199 475 l 1
 323 475 l 1
 323 424 l 1
 199 424 l 1
 199 66 l 2
 199 50 213 46 219 46 c 2
 278 44 l 1
 278 5 l 1
 35 5 l 1
 35 44 l 1
 84 46 l 2
 90 46 104 50 104 66 c 2
 104 424 l 1
 41 424 l 1
 41 459 l 1
 104 477 l 1
 104 661.532 214.344 733 304 733 c 0
EndSplineSet
EndChar

StartChar: g
Encoding: 74 103 74
Width: 524
Flags: HW
LayerCount: 2
Back
Fore
SplineSet
257 -182 m 0
 351.824 -182 400.096 -114.425 395 -66 c 1
 395 6 298.249 11.1671 202 24 c 1
 148.897 6.29899 128 -30.6 128 -67 c 0
 128 -115.195 166.738 -182 257 -182 c 0
250 211 m 0
 314.583 211 341 274.574 341 331 c 0
 341 385.656 313.792 451 250 451 c 0
 194.2 451 157 404.925 157 331 c 0
 157 272.756 183.95 211 250 211 c 0
260 491 m 0
 305.2 491 341.426 477.035 373 463 c 1
 507 463 l 1
 507 415 l 1
 409 416 l 1
 437.001 370.178 435 335.85 435 327 c 0
 435 226.405 336.654 163.36 221 169 c 1
 217.137 162.046 212 148.677 212 128.5 c 128
 212 116.773 212.44 112.841 213 105 c 1
 263.5 100.5 l 130
 398.234 88.6809 481 47.9 481 -31 c 0
 481 -123.962 367.896 -218 223 -218 c 0
 86.6215 -218 38 -141.855 38 -77 c 0
 38 -7.19926 84.2148 31.4391 142 40 c 1
 138.5 52 l 130
 135.189 63.0367 135 67.2 135 71 c 130
 135 84 l 2
 135 102.4 143.326 135.326 184 176 c 1
 124.305 188.435 62 240.005 62 324 c 0
 62 424.2 138.069 491 260 491 c 0
EndSplineSet
EndChar

StartChar: h
Encoding: 75 104 75
Width: 574
Flags: HW
LayerCount: 2
Back
Fore
SplineSet
479 63 m 2
 479 51 489.4 43 500 43 c 2
 544 41 l 1
 544 2 l 1
 328 0 l 1
 328 39 l 1
 369 41 l 2
 379.6 41 390 49 390 61 c 2
 390 318 l 2
 390 371.95 370.6 416 293 416 c 0
 250.6 416 210.781 401.889 187 390 c 1
 187 62 l 2
 187 54 190.8 42 206 42 c 2
 248 40 l 1
 248 1 l 1
 23 1 l 1
 23 40 l 1
 70 42 l 2
 82 42 90 50 90 62 c 2
 90 663 l 1
 16 663 l 1
 16 696 l 1
 143 734 l 1
 183 734 l 1
 183 430 l 1
 222.504 454.308 297.879 491 346 491 c 0
 406.7 491 479 457.675 479 341 c 2
 479 63 l 2
EndSplineSet
EndChar

StartChar: i
Encoding: 76 105 76
Width: 303
Flags: HW
LayerCount: 2
Back
Fore
SplineSet
195 60 m 2
 195 44 209 40 215 40 c 2
 266 38 l 1
 266 -1 l 1
 34 0 l 1
 34 39 l 1
 82 41 l 2
 94 41 102 49 102 61 c 2
 102 417 l 1
 34 417 l 1
 34 452 l 1
 156 490 l 1
 195 490 l 1
 195 60 l 2
157 704 m 256
 192.194 704 215 675.037 215 645 c 256
 215 614.96 192.178 586 157 586 c 256
 121.6 586 98 614.025 98 645 c 256
 98 680.4 126.025 704 157 704 c 256
EndSplineSet
EndChar

StartChar: j
Encoding: 77 106 77
Width: 291
Flags: HW
LayerCount: 2
Back
Fore
SplineSet
65 -184 m 1
 105.813 -162.022 111 -82.8057 111 -25 c 2
 111 418 l 1
 41 418 l 1
 41 451 l 1
 164 489 l 1
 205 489 l 1
 202 63 l 2
 202 -20.5653 193.344 -87.7618 165 -135 c 1
 111.48 -218.847 31.7277 -227 1 -227 c 0
 -35.5325 -227 -73 -213.612 -73 -174 c 0
 -73 -140.4 -50.3862 -123.252 -32 -118 c 1
 65 -184 l 1
156 700 m 256
 191.4 700 215 671.975 215 641 c 256
 215 605.6 186.975 582 156 582 c 256
 124.425 582 96 605.6 96 641 c 256
 96 676.4 124.425 700 156 700 c 256
EndSplineSet
EndChar

StartChar: k
Encoding: 78 107 78
Width: 534
Flags: HW
LayerCount: 2
Back
Fore
SplineSet
66 43 m 2
 78 43 86 51 86 63 c 2
 86 664 l 1
 11 664 l 1
 11 697 l 1
 138 735 l 1
 179 735 l 1
 179 255 l 1
 199 255 l 1
 345 421 l 2
 349.435 426.914 344.502 436 337 436 c 2
 296 439 l 1
 296 478 l 1
 490 478 l 1
 490 439 l 1
 427 433 l 1
 295 292 l 1
 467 42 l 1
 519 37 l 1
 519 -2 l 1
 363 0 l 1
 363 39 l 1
 238 226 l 1
 183 226 l 1
 183 63 l 2
 183 51 191 43 203 43 c 2
 245 41 l 1
 245 2 l 1
 18 2 l 1
 18 41 l 1
 66 43 l 2
EndSplineSet
EndChar

StartChar: l
Encoding: 79 108 79
Width: 296
Flags: HW
LayerCount: 2
Back
Fore
SplineSet
192 61 m 2
 192 53 204 41 212 41 c 2
 266 39 l 1
 266 0 l 1
 26 0 l 1
 26 39 l 1
 79 41 l 2
 87.4 41 100 53 100 61 c 2
 100 663 l 1
 24 663 l 1
 24 696 l 1
 151 734 l 1
 192 734 l 1
 192 61 l 2
EndSplineSet
EndChar

StartChar: m
Encoding: 80 109 80
Width: 850
Flags: HW
LayerCount: 2
Back
Fore
SplineSet
752 59 m 2
 752 43 766 39 772 39 c 2
 820 37 l 1
 820 -2 l 1
 604 0 l 1
 604 39 l 1
 645 41 l 2
 657 41 665 49 665 61 c 2
 665 315 l 2
 665 373.119 647.8 415 579 415 c 0
 538.666 415 499.918 399.871 476 389 c 1
 476 60 l 2
 476 48 484 40 496 40 c 2
 537 38 l 1
 537 -1 l 1
 318 -1 l 1
 318 38 l 1
 359 40 l 2
 371 40 379 48 379 60 c 2
 379 321 l 2
 379 387.962 345 414 294 414 c 0
 253.351 414 212.732 398.368 190 387 c 1
 190 59 l 2
 190 47 198 39 210 39 c 2
 251 37 l 1
 251 -2 l 1
 25 -2 l 1
 25 37 l 1
 73 39 l 2
 85 39 93 47 93 59 c 2
 93 406 l 1
 25 406 l 1
 25 438 l 1
 146 476 l 1
 187 476 l 1
 187 427 l 1
 198.444 434.153 283 487 347 487 c 0
 411.8 487 444.372 440.256 455 419 c 1
 491 440 l 130
 528.217 461.267 587.291 486 626 486 c 0
 726.8 486 752 408 752 335 c 2
 752 59 l 2
EndSplineSet
EndChar

StartChar: n
Encoding: 81 110 81
Width: 566
Flags: HW
LayerCount: 2
Back
Fore
SplineSet
476 60 m 2
 476 44 490 40 496 40 c 2
 539 38 l 1
 539 -1 l 1
 326 0 l 1
 326 39 l 1
 367 41 l 2
 373 41 387 45 387 61 c 2
 387 321 l 2
 387 397.8 346.6 417 292 417 c 0
 281.348 417 243.22 417.425 184 389 c 1
 184 61 l 2
 184 49 192 41 204 41 c 2
 245 39 l 1
 245 0 l 1
 19 0 l 1
 19 39 l 1
 67 41 l 2
 79 41 87 49 87 61 c 2
 87 408 l 1
 18 408 l 1
 18 440 l 1
 140 478 l 1
 181 478 l 1
 181 429 l 1
 222.5 451 l 130
 233.955 456.86 294.8 489 343 489 c 0
 432.848 489 476 429.394 476 335 c 2
 476 60 l 2
EndSplineSet
EndChar

StartChar: o
Encoding: 82 111 82
Width: 543
Flags: W
HStem: -10 45<211.202 336.797> 448 45<207.395 334.737>
VStem: 39 104<126.722 351.602> 405 105<129.543 352.951>
LayerCount: 2
Back
Fore
SplineSet
274 35 m 0
 375.493 35 407.167 154.353 405 241 c 1
 405 365.712 352.6 448 274 448 c 0
 171.754 448 143 331.509 143 241 c 0
 143 117.912 195.4 35 274 35 c 0
277 493 m 256
 416.8 493 510 388.741 510 241 c 0
 510 96.325 415.2 -10 273 -10 c 256
 132.6 -10 39 91.8625 39 241 c 0
 39 385.878 133.413 493 277 493 c 256
EndSplineSet
EndChar

StartChar: p
Encoding: 83 112 83
Width: 559
Flags: HW
LayerCount: 2
Back
Fore
SplineSet
264 36 m 0
 376.185 36 421.326 134.109 424 233 c 1
 424 335.266 375.009 421 285 421 c 0
 245 421 202.897 402.544 185 393 c 1
 185 49 l 1
 206.563 41.1586 238.362 36 264 36 c 0
331 491 m 0
 436.338 491 514.749 394.77 523 249 c 1
 523 96.0847 434.516 -10 272 -10 c 0
 254.6 -10 210.877 -7.45025 185 -4 c 1
 185 -152 l 2
 185 -163.4 193.4 -171 206 -171 c 1
 265 -177 l 1
 265 -215 l 1
 22 -215 l 1
 22 -177 l 1
 69 -171 l 1
 77 -171 89 -167.2 89 -152 c 2
 89 410 l 1
 21 410 l 1
 21 442 l 1
 144 480 l 1
 183 480 l 1
 183 431 l 1
 212.502 454.882 271.8 491 331 491 c 0
EndSplineSet
EndChar

StartChar: q
Encoding: 84 113 84
Width: 548
Flags: HW
LayerCount: 2
Back
Fore
SplineSet
139 246 m 0
 139 147.924 180.262 50 289 50 c 0
 299.682 50 331.301 52.2145 353.5 57.5 c 130
 372 62 l 1
 372 437 l 1
 345.218 441.119 331.8 447 305 447 c 0
 188.208 447 139 356.616 139 246 c 0
325 491 m 0
 353 491 410.077 487.985 465 477 c 1
 465 -154 l 2
 465 -170 480.569 -173.446 485 -174 c 2
 533 -179 l 1
 533 -216 l 1
 292 -216 l 1
 292 -179 l 1
 351 -174 l 1
 363 -174 371 -166.4 371 -155 c 2
 371 25 l 1
 305.695 -2.98882 260.6 -12 233 -12 c 0
 99.9479 -12 37 109.923 37 227 c 0
 37 402.783 158.302 491 325 491 c 0
EndSplineSet
EndChar

StartChar: r
Encoding: 85 114 85
Width: 391
Flags: HW
LayerCount: 2
Back
Fore
SplineSet
317 492 m 0
 340.2 492 364.679 484.159 375 479 c 1
 375 380 l 1
 341 379 l 1
 325.719 397.675 309.8 406 289 406 c 0
 269.4 406 237.369 398.786 191 345 c 1
 191 64 l 2
 191 52 199 44 211 44 c 2
 276 42 l 1
 276 3 l 1
 26 3 l 1
 26 41 l 1
 75 44 l 2
 81 44 95 48 95 64 c 2
 95 411 l 1
 23 411 l 1
 23 443 l 1
 147 481 l 1
 188 481 l 1
 188 393 l 1
 213 421 l 130
 255.236 468.866 291.088 492 317 492 c 0
EndSplineSet
EndChar

StartChar: s
Encoding: 86 115 86
Width: 397
Flags: HW
LayerCount: 2
Back
Fore
SplineSet
216 438 m 0
 148.7 438 136 398.4 136 372 c 0
 136 273.388 307.007 286.32 355 185 c 128
 361 172.333 363.667 159 363 145 c 0
 363 36.6229 278.329 -10 174 -10 c 0
 139.475 -10 103.325 -5.66421 59 7 c 130
 38 13 l 1
 38 145 l 1
 88 145 l 1
 100 61 l 1
 145.971 33.4176 174.868 34 188 34 c 0
 248.9 34 276 76.025 276 110 c 0
 276 143.2 259.806 166.941 206.5 193 c 130
 156 218 l 1
 71.9724 258.459 46 290.203 46 342 c 0
 46 443.403 125.427 485 223 485 c 0
 273.4 485 326.262 474.744 349 465 c 1
 349 347 l 1
 297 347 l 1
 290 416 l 1
 281.718 422.625 252.753 438 216 438 c 0
EndSplineSet
EndChar

StartChar: t
Encoding: 87 116 87
Width: 339
Flags: HW
LayerCount: 2
Back
Fore
SplineSet
267 45 m 0
 286.8 45 308.876 48.2783 333 59 c 1
 333 20 l 1
 291.819 -0.59075 241.348 -12 202 -12 c 0
 125.429 -12 96 23.8008 96 99 c 2
 96 431 l 1
 33 431 l 1
 33 463 l 1
 101 495 l 1
 145 600 l 1
 188 600 l 1
 188 479 l 1
 329 479 l 1
 329 430 l 1
 188 430 l 1
 188 151 l 2
 188 66.2 219.6 45 267 45 c 0
EndSplineSet
EndChar

StartChar: u
Encoding: 88 117 88
Width: 568
Flags: HW
LayerCount: 2
Back
Fore
SplineSet
483 63 m 2
 483 51 493.4 43 504 43 c 2
 547 41 l 1
 547 2 l 1
 389 0 l 1
 389 57 l 1
 317.266 3.1995 263.4 -10 232 -10 c 0
 149.8 -10 95 35.9 95 151 c 2
 95 421 l 1
 26 421 l 1
 26 455 l 1
 149 494 l 1
 189 494 l 1
 189 169 l 2
 189 83.7625 227 58 284 58 c 0
 326.4 58 366.06 74.0291 390 86 c 1
 390 420 l 1
 320 420 l 1
 320 454 l 1
 442 493 l 1
 483 493 l 1
 483 63 l 2
EndSplineSet
EndChar

StartChar: v
Encoding: 89 118 89
Width: 528
Flags: HW
LayerCount: 2
Back
Fore
SplineSet
465 437 m 1
 291 0 l 1
 227 0 l 1
 66 437 l 1
 11 442 l 1
 11 481 l 1
 232 481 l 1
 232 442 l 1
 185 440 l 2
 176 440 166.942 432.236 170 420 c 1
 281 108 l 1
 404 420 l 2
 408.179 429.752 401.452 440 391 440 c 2
 347 442 l 1
 347 481 l 1
 521 481 l 1
 521 442 l 1
 465 437 l 1
EndSplineSet
EndChar

StartChar: w
Encoding: 90 119 90
Width: 783
Flags: HW
LayerCount: 2
Back
Fore
SplineSet
722 437 m 1
 585 0 l 1
 515 0 l 1
 397 374 l 1
 266 0 l 1
 195 0 l 1
 68 437 l 1
 13 442 l 1
 13 481 l 1
 232 481 l 1
 232 442 l 1
 186 440 l 2
 177 440 167.942 432.236 171 420 c 2
 254 109 l 1
 382 484 l 1
 453 484 l 1
 568 109 l 1
 660 420 l 2
 662.759 429.659 656.521 440 646 440 c 2
 601 442 l 1
 601 481 l 1
 775 481 l 1
 775 442 l 1
 722 437 l 1
EndSplineSet
EndChar

StartChar: x
Encoding: 91 120 91
Width: 509
Flags: W
HStem: 0 39<9 66 143.828 199 285 327.116 452.75 500> 441 39<15 66.625 189.872 234 307 355.182 439.625 486>
LayerCount: 2
Back
Fore
SplineSet
285 0 m 1
 285 39 l 1
 318 42 l 2
 326.351 42 329.565 51.5854 327 58 c 1
 242 185 l 1
 144 58 l 2
 140.266 53.0213 140.06 42 149 42 c 2
 199 39 l 1
 199 0 l 1
 9 0 l 1
 9 39 l 1
 66 46 l 1
 209 232 l 1
 74 433 l 1
 15 441 l 1
 15 480 l 1
 234 480 l 1
 234 441 l 1
 200 437 l 2
 192 437 187.146 428.136 190 421 c 1
 269 310 l 1
 355 421 l 2
 358.962 426.283 357.514 437 349 437 c 2
 307 441 l 1
 307 480 l 1
 486 480 l 1
 486 441 l 1
 433 433 l 1
 299 263 l 1
 446 47 l 1
 500 40 l 1
 500 1 l 1
 285 0 l 1
EndSplineSet
EndChar

StartChar: y
Encoding: 92 121 92
Width: 529
Flags: HW
LayerCount: 2
Back
Fore
SplineSet
157 -154 m 1
 191.944 -119.056 227.591 -37.5119 239 -1 c 1
 70 435 l 1
 15 440 l 1
 15 479 l 1
 236 479 l 1
 236 440 l 1
 189 438 l 2
 180 438 170.942 430.236 174 418 c 1
 290 124 l 1
 408 418 l 2
 412.179 427.752 405.452 438 395 438 c 2
 348 440 l 1
 348 479 l 1
 526 479 l 1
 526 440 l 1
 467 437 l 1
 276 -30 l 1
 262.039 -71.8773 225.456 -151.544 189 -188 c 0
 151.8 -225.2 115.816 -226 103 -226 c 0
 60.4 -226 32 -204 32 -171 c 0
 32 -147.4 42.5144 -129.693 64 -112 c 1
 157 -154 l 1
EndSplineSet
EndChar

StartChar: z
Encoding: 93 122 93
Width: 461
Flags: HW
LayerCount: 2
Back
Fore
SplineSet
344 48 m 2
 352.403 48 364 60.4107 364 69 c 1
 374 148 l 1
 428 148 l 1
 428 -2 l 1
 34 0 l 1
 34 53 l 1
 298 434 l 1
 125 434 l 2
 113.6 434 106.752 418.508 106 414 c 2
 97 340 l 1
 46 340 l 1
 46 482 l 1
 416 482 l 1
 416 441 l 1
 143 48 l 1
 344 48 l 2
EndSplineSet
EndChar

StartChar: braceleft
Encoding: 94 123 94
Width: 487
Flags: HW
LayerCount: 2
Back
Fore
SplineSet
295 52 m 130
 295 -42.2129 310.834 -80 418 -80 c 1
 418 -123 l 1
 288.575 -123 207 -101.709 207 45 c 2
 207 130 l 2
 207 256.434 161.475 259 69 259 c 1
 69 303 l 1
 161.906 303 207 305.808 207 432 c 2
 207 517 l 2
 207 668.025 293.364 686 418 686 c 1
 418 645 l 1
 310.834 645 295 607.213 295 513 c 130
 295 472 l 2
 295 374.328 288.833 308.167 163 283 c 1
 289.897 257.621 295 187.046 295 93 c 2
 295 52 l 130
EndSplineSet
EndChar

StartChar: bar
Encoding: 95 124 95
Width: 353
Flags: HW
LayerCount: 2
Back
Fore
SplineSet
146 -257 m 1
 146 796 l 1
 206 796 l 1
 206 -257 l 1
 146 -257 l 1
EndSplineSet
EndChar

StartChar: braceright
Encoding: 96 125 96
Width: 487
Flags: HW
LayerCount: 2
Back
Fore
SplineSet
288 436 m 2
 288 319.028 325.002 305 429 305 c 1
 428 268 l 1
 323.848 268 287 253.862 287 137 c 2
 287 52 l 2
 287 -36.6754 253.447 -79.0226 216.5 -95 c 128
 166.093 -116.797 104.1 -116 76 -116 c 1
 76 -75 l 1
 182.314 -75 198 -38.8781 198 57 c 130
 198 98 l 2
 198 192.452 203.408 262.882 329 288 c 1
 206.24 312.552 199 375.417 199 476 c 2
 199 517 l 130
 199 612.878 183.314 649 77 649 c 1
 77 690 l 1
 215.152 690 288 662.499 288 521 c 2
 288 436 l 2
EndSplineSet
EndChar

StartChar: asciitilde
Encoding: 97 126 97
Width: 833
Flags: HW
LayerCount: 2
Back
Fore
SplineSet
562 296 m 0
 636.4 296 708.667 343.811 748 372 c 1
 747 306 l 1
 654.201 239.718 594.248 238 562 238 c 0
 466.875 238 378.141 303 275 303 c 256
 201.8 303 115.981 243.267 92 226 c 1
 92 290 l 1
 138.742 323.513 204.8 360 280 360 c 0
 375.065 360 477.62 296 562 296 c 0
EndSplineSet
EndChar

StartChar: quoteleft
Encoding: 98 8216 98
Width: 247
Flags: HW
LayerCount: 2
Back
Fore
SplineSet
122 439 m 0
 69.6894 439 40 473.441 40 530 c 0
 40 594.706 78.2723 651.908 120 689 c 130
 147 713 l 1
 186 702 l 1
 160 673 l 130
 145.318 656.22 105 605.914 105 552 c 2
 105 535 l 1
 167 535 l 1
 173 525 l 1
 179.246 509.383 179 500.67 179 498 c 0
 179 465.45 157.675 439 122 439 c 0
EndSplineSet
EndChar

StartChar: quoteright
Encoding: 99 8217 99
Width: 247
Flags: HW
LayerCount: 2
Back
Fore
SplineSet
129 703 m 0
 176.363 703 212.24 669.703 208 616 c 1
 208 542.008 161.448 486.732 128 457 c 130
 101 433 l 1
 64 440 l 1
 83.4304 459.431 145 518.897 145 590 c 2
 145 606 l 1
 83 606 l 1
 73.0003 616.001 70 635.6 70 643 c 0
 70 673.847 88.7847 703 129 703 c 0
EndSplineSet
EndChar

StartChar: quotedblleft
Encoding: 100 8220 100
Width: 453
Flags: HW
LayerCount: 2
Back
Fore
SplineSet
122 439 m 0
 70.1321 439 40 474.477 40 530 c 0
 40 603.992 86.5524 659.268 120 689 c 130
 147 713 l 1
 186 702 l 1
 143.777 659.777 105 612 105 552 c 2
 105 535 l 1
 167 535 l 1
 169.196 532.072 179 520.2 179 498 c 0
 179 465.45 157.675 439 122 439 c 0
325 445 m 0
 272.066 445 243 482.195 243 538 c 0
 243 558.401 245.239 626.877 323 696 c 130
 350 720 l 1
 390 707 l 1
 366 679.5 l 130
 342.683 653.685 309 606.6 309 558 c 0
 309 552 309 546 309 540 c 1
 371 540 l 1
 377 530 l 1
 382.875 515.31 383 509.2 383 504 c 0
 383 470.05 359.8 445 325 445 c 0
EndSplineSet
EndChar

StartChar: quotedblright
Encoding: 101 8221 101
Width: 453
Flags: HW
LayerCount: 2
Back
Fore
SplineSet
129 702 m 0
 180.414 702 210.737 665.646 208 615 c 1
 208 594.599 205.761 526.123 128 457 c 130
 101 433 l 1
 64 440 l 1
 88 467.5 l 130
 111.018 492.983 145 539.2 145 587 c 0
 145 593 145 599 145 605 c 1
 83 605 l 1
 73.5556 616.804 70 631.621 70 643 c 0
 70 679.875 96.55 702 129 702 c 0
337 697 m 0
 388.524 697 420.018 659.211 416 611 c 1
 416 537.008 369.448 481.732 336 452 c 130
 309 428 l 1
 272 435 l 1
 311.615 474.615 354 524.4 354 584 c 0
 354 591.328 353 595.042 353 600 c 1
 291 600 l 1
 285.9 605.1 278 618.806 278 638 c 0
 278 669.954 299.404 697 337 697 c 0
EndSplineSet
EndChar

StartChar: consonant_part
Encoding: 103 -1 103
Width: 0
Flags: HWO
AnchorPoint: "V" -279 540 mark 0
LayerCount: 2
Back
SplineSet
-86 677 m 0
 -86 741.2 -128.488 773.495 -151 784 c 1
 -120 803 l 1
 -74.6857 782.284 -31 709.529 -31 634 c 0
 -31 552.261 -91.1348 491 -164 491 c 2
 -279 491 l 1
 -279 583 l 1
 -193 583 l 2
 -104.793 583 -86 640.32 -86 677 c 0
1 2 m 1
 2 2 l 1
 1 2 l 1
1 2 m 1
 2 2 l 1
 1 2 l 1
EndSplineSet
Fore
SplineSet
-86 677 m 4
 -86 741.2 -128.488 773.495 -151 784 c 5
 -120 803 l 5
 -74.6857 782.284 -31 709.529 -31 634 c 4
 -31 552.261 -91.1348 491 -164 491 c 6
 -279 491 l 5
 -279 583 l 5
 -193 583 l 6
 -104.793 583 -86 640.32 -86 677 c 4
1 2 m 5
 2 2 l 5
 1 2 l 5
1 2 m 5
 2 2 l 5
 1 2 l 5
EndSplineSet
EndChar

StartChar: consonant_part1
Encoding: 104 -1 104
Width: 387
Flags: HW
LayerCount: 2
Back
SplineSet
293 267 m 0
 293 384.994 185.115 453.998 63 474 c 1
 63 580 l 1
 238 580 l 1
 238 487 l 1
 219 487 l 1
 295.543 424.516 324 308.186 324 225 c 0
 324 84.8855 254.069 -8 125 -8 c 0
 15.8541 -8 -43.1618 89.2627 -57 205 c 1
 -46.9399 174.82 -12.8351 101 134 101 c 0
 229.4 101 293 180.878 293 267 c 0
EndSplineSet
Fore
SplineSet
293 267 m 4
 293 384.994 185.115 453.998 63 474 c 5
 63 580 l 5
 238 580 l 5
 238 487 l 5
 219 487 l 5
 295.543 424.516 324 308.186 324 225 c 4
 324 84.8855 254.069 -8 125 -8 c 4
 15.8541 -8 -43.1618 89.2627 -57 205 c 5
 -46.9399 174.82 -12.8351 101 134 101 c 4
 229.4 101 293 180.878 293 267 c 4
EndSplineSet
EndChar

StartChar: short_rr
Encoding: 105 -1 105
Width: 628
Flags: HW
LayerCount: 2
Back
SplineSet
44 430 m 0
 44 498.93 87.0372 581 208 581 c 2
 588 581 l 1
 588 484 l 1
 201 484 l 2
 125.84 484 91 432.971 91 392 c 0
 91 363.775 105.6 326 164 326 c 2
 336 326 l 1
 336 229 l 1
 175 229 l 2
 114.062 229 88 184.975 88 152 c 0
 88 117.556 112.364 87 156 87 c 0
 196.2 87 209 60.6 209 43 c 0
 209 26.2 195 1 160 1 c 0
 115.587 1 43 50.9891 43 131 c 0
 43 219.8 98.5764 258.387 162 279 c 1
 72.7967 304.04 44 377.321 44 430 c 0
EndSplineSet
Fore
SplineSet
44 430 m 4
 44 498.93 87.0372 581 208 581 c 6
 588 581 l 5
 588 484 l 5
 201 484 l 6
 125.84 484 91 432.971 91 392 c 4
 91 363.775 105.6 326 164 326 c 6
 336 326 l 5
 336 229 l 5
 175 229 l 6
 114.062 229 88 184.975 88 152 c 4
 88 117.556 112.364 87 156 87 c 4
 196.2 87 209 60.6 209 43 c 4
 209 26.2 195 1 160 1 c 4
 115.587 1 43 50.9891 43 131 c 4
 43 219.8 98.5764 258.387 162 279 c 5
 72.7967 304.04 44 377.321 44 430 c 4
EndSplineSet
Ligature2: "'rphf' Reph Form in Kannada lookup 3 subtable" u0CB0 u0CCD
LCarets2: 1 0
EndChar

StartChar: u0C82
Encoding: 107 3202 107
Width: 505
Flags: HW
LayerCount: 2
Back
SplineSet
252 580 m 4
 403.287 580 471.718 459.033 473 295 c 5
 473 95.0109 375.128 -12 258 -12 c 4
 134.374 -12 42 97.5908 42 272 c 4
 42 433.004 105.507 580 252 580 c 4
263 89 m 260
 374.13 89 445.258 164.078 444 281 c 5
 444 377.961 372.134 481 257 481 c 4
 146 481 72 388.421 72 279 c 4
 72 161.362 158.394 89 263 89 c 260
EndSplineSet
Fore
SplineSet
252 580 m 0
 403.287 580 471.718 459.033 473 295 c 0
 473 95.0109 375.128 -12 258 -12 c 0
 134.374 -12 42 97.5908 42 272 c 0
 42 433.004 105.507 580 252 580 c 0
263 89 m 256
 374.13 89 445.258 164.078 444 281 c 0
 444 377.961 372.134 481 257 481 c 0
 146 481 72 388.421 72 279 c 0
 72 161.362 158.394 89 263 89 c 256
EndSplineSet
EndChar

StartChar: u0C83
Encoding: 108 3203 108
Width: 281
Flags: HW
LayerCount: 2
Back
SplineSet
137 578 m 0
 217 578 237 512.8 237 461 c 0
 237 366.962 181.2 342 144 342 c 0
 93.643 342 41 380.596 41 461 c 0
 41 520.894 71.0085 578 137 578 c 0
137 229 m 0
 217 229 237 163.2 237 111 c 0
 237 15.875 181.2 -5 144 -5 c 0
 99.875 -5 41 24.6766 41 112 c 0
 41 171.894 71.0085 229 137 229 c 0
140 407 m 0
 181.336 407 221 422.943 221 461 c 0
 221 497.011 178.911 515 139 515 c 0
 99.1419 515 61 497.849 61 461 c 256
 61 417.8 109.75 407 140 407 c 0
140 59 m 0
 181.305 59 221 73.8812 221 112 c 0
 221 148.011 178.911 166 139 166 c 0
 99.1419 166 61 148.849 61 112 c 256
 61 74.7193 100.696 59 140 59 c 0
EndSplineSet
Fore
SplineSet
137 578 m 4
 217 578 237 512.8 237 461 c 4
 237 366.962 181.2 342 144 342 c 4
 93.643 342 41 380.596 41 461 c 4
 41 520.894 71.0085 578 137 578 c 4
137 229 m 4
 217 229 237 163.2 237 111 c 4
 237 15.875 181.2 -5 144 -5 c 4
 99.875 -5 41 24.6766 41 112 c 4
 41 171.894 71.0085 229 137 229 c 4
140 407 m 4
 181.336 407 221 422.943 221 461 c 4
 221 497.011 178.911 515 139 515 c 4
 99.1419 515 61 497.849 61 461 c 260
 61 417.8 109.75 407 140 407 c 4
140 59 m 4
 181.305 59 221 73.8812 221 112 c 4
 221 148.011 178.911 166 139 166 c 4
 99.1419 166 61 148.849 61 112 c 260
 61 74.7193 100.696 59 140 59 c 4
EndSplineSet
EndChar

StartChar: u0C85
Encoding: 109 3205 109
Width: 777
Flags: W
HStem: -13 101<264.533 505.399> 364 54<340 509 532.056 704.5> 518 76<137.12 244.634>
VStem: 44 28<262.531 418.541> 709 26<289.428 364>
AnchorPoint: "Nukta" 400 -50 basechar 0
LayerCount: 2
Back
SplineSet
585 594 m 0
 690.423 594 732.652 463.138 735 341 c 1
 735 112.933 575.221 -13 388 -13 c 0
 202.063 -13 44 115.479 44 355 c 0
 44 480.184 102.641 594 206 594 c 0
 274.8 594 292 531.25 292 487 c 0
 292 448.333 282.667 414.167 264 384.5 c 0
 227.174 325.973 125.477 305.503 94 440 c 1
 84.5984 421.196 72 377.158 72 349 c 0
 72 186.237 196.845 88 373 88 c 0
 562.06 88 709 198 709 364 c 1
 340 364 l 1
 340 418 l 1
 509 418 l 1
 448 482 499.938 594 585 594 c 0
680 460 m 0
 630.5 523.5 570.5 527 542.5 497.5 c 0
 524.001 478.01 521.5 420.5 557.5 418.5 c 1
 704.5 418 l 1
 699 435 689.041 448.402 680 460 c 0
199 518 m 1
 150.4 518 130.161 491.584 118 475 c 1
 120.667 461 123.667 451 127 445 c 0
 151.828 400.861 216.158 408.965 239 428 c 0
 275.752 458.628 253.2 515.914 199 518 c 1
EndSplineSet
Fore
SplineSet
585 594 m 0
 690.423 594 732.652 463.138 735 341 c 1
 735 112.933 575.221 -13 388 -13 c 0
 202.063 -13 44 115.479 44 355 c 0
 44 480.184 102.641 594 206 594 c 0
 274.8 594 292 531.25 292 487 c 0
 292 448.333 282.667 414.167 264 384.5 c 0
 227.174 325.973 125.477 305.503 94 440 c 1
 84.5984 421.196 72 377.158 72 349 c 0
 72 186.237 196.845 88 373 88 c 0
 562.06 88 709 198 709 364 c 1
 340 364 l 1
 340 418 l 1
 509 418 l 1
 448 482 499.938 594 585 594 c 0
680 460 m 0
 630.5 523.5 570.5 527 542.5 497.5 c 0
 524.001 478.01 521.5 420.5 557.5 418.5 c 1
 704.5 418 l 1
 699 435 689.041 448.402 680 460 c 0
199 518 m 1
 150.4 518 130.161 491.584 118 475 c 1
 120.667 461 123.667 451 127 445 c 0
 151.828 400.861 216.158 408.965 239 428 c 0
 275.752 458.628 253.2 515.914 199 518 c 1
EndSplineSet
EndChar

StartChar: u0C86
Encoding: 110 3206 110
Width: 777
Flags: HW
AnchorPoint: "Nukta" 400 -50 basechar 0
LayerCount: 2
Back
SplineSet
389 86 m 0
 532.296 86 660 147.2 660 239 c 0
 660 288.8 637.932 315.424 633 322 c 1
 617.423 316.336 572.487 316 547 316 c 2
 333 316 l 1
 333 419 l 1
 557 419 l 1
 513.413 476.596 511.345 603 616 603 c 0
 774.349 603 767.365 388.62 661 334 c 1
 676.8 318.2 698.019 279.271 697 212 c 0
 697 72.4563 545.669 -19 387 -19 c 0
 292.333 -19 214 9.33333 152 66 c 0
 79.3333 132 43 227.333 43 352 c 0
 43 474.888 97.4292 597 198 597 c 0
 274.8 597 294 526.8 294 481 c 0
 294 410.089 253.883 332 184 332 c 0
 129.6 332 104.728 379.627 100 434 c 1
 82.5338 409.984 77 388 74 356 c 0
 60.0534 207.236 183.2 86 389 86 c 0
706 462 m 0
 729.823 517.588 663.282 573.926 608 534 c 0
 597.642 526.519 574 498.5 599 419 c 1
 613 419 l 2
 632.5 419 689.045 422.438 706 462 c 0
201 524 m 0
 166.993 523.261 141.32 499.976 132 484 c 1
 124.698 451.549 142.733 409.527 190 410 c 0
 231.108 410.411 254 438.621 254 469 c 0
 254 501.212 224 524.5 201 524 c 0
EndSplineSet
Fore
SplineSet
389 86 m 0
 532.296 86 660 147.2 660 239 c 0
 660 288.8 637.932 315.424 633 322 c 1
 617.423 316.336 572.487 316 547 316 c 2
 333 316 l 1
 333 419 l 1
 557 419 l 1
 513.413 476.596 511.345 603 616 603 c 0
 774.349 603 767.365 388.62 661 334 c 1
 676.8 318.2 698.019 279.271 697 212 c 0
 697 72.4563 545.669 -19 387 -19 c 0
 292.333 -19 214 9.33333 152 66 c 0
 79.3333 132 43 227.333 43 352 c 0
 43 474.888 97.4292 597 198 597 c 0
 274.8 597 294 526.8 294 481 c 0
 294 410.089 253.883 332 184 332 c 0
 129.6 332 104.728 379.627 100 434 c 1
 82.5338 409.984 77 388 74 356 c 0
 60.0534 207.236 183.2 86 389 86 c 0
706 462 m 0
 729.823 517.588 663.282 573.926 608 534 c 0
 597.642 526.519 574 498.5 599 419 c 1
 613 419 l 2
 632.5 419 689.045 422.438 706 462 c 0
201 524 m 0
 166.993 523.261 141.32 499.976 132 484 c 1
 124.698 451.549 142.733 409.527 190 410 c 0
 231.108 410.411 254 438.621 254 469 c 0
 254 501.212 224 524.5 201 524 c 0
EndSplineSet
EndChar

StartChar: u0C87
Encoding: 111 3207 111
Width: 760
Flags: HW
AnchorPoint: "Nukta" 400 -50 basechar 0
LayerCount: 2
Back
SplineSet
673 238 m 1
 683.298 186.51 635 129.269 635 86 c 0
 635 66.2002 650.8 53 670 53 c 0
 689.8 53 704.359 67.0131 703 101 c 1
 722 92 l 1
 722 67 l 2
 722 23.775 689.35 -2 649 -2 c 0
 617.4 -2 570 13.6 570 76 c 0
 570 98.6 609.143 174.148 611 189 c 1
 568 164.105 533.4 159 514 159 c 0
 426 159 399 207 399 239 c 0
 399 272.6 428.85 323 522 323 c 0
 574.401 323 614.339 305.566 650 275 c 1
 674.633 281.842 693 322.204 693 359 c 0
 693 434 626.658 484 554 484 c 0
 511.976 484 439.01 468.015 379 373 c 1
 359.704 426.754 321.763 484 221 484 c 0
 135.476 484 84 429.918 84 382 c 0
 84 351.6 106 306 213 306 c 1
 220.873 276.476 220.359 250 181 250 c 0
 90.575 250 48 327.871 48 410 c 0
 48 507.147 105.312 586 212 586 c 0
 313.4 586 363.072 490.297 381 456 c 1
 439.889 555.784 518.959 586 566 586 c 0
 636.622 586 726.582 530.916 725 387 c 0
 725 314.684 703.893 274.776 673 238 c 1
538 294 m 0
 494 294 472 267.6 472 250 c 0
 472 225.333 492.333 213 533 213 c 0
 572.817 213 600.941 230.382 624 252 c 1
 606.95 279.28 576.809 294 538 294 c 0
EndSplineSet
Fore
SplineSet
673 238 m 5
 683.298 186.51 635 129.269 635 86 c 4
 635 66.2002 650.8 53 670 53 c 4
 689.8 53 704.359 67.0131 703 101 c 5
 722 92 l 5
 722 67 l 6
 722 23.775 689.35 -2 649 -2 c 4
 617.4 -2 570 13.6 570 76 c 4
 570 98.6 609.143 174.148 611 189 c 5
 568 164.105 533.4 159 514 159 c 4
 426 159 399 207 399 239 c 4
 399 272.6 428.85 323 522 323 c 4
 574.401 323 614.339 305.566 650 275 c 5
 674.633 281.842 693 322.204 693 359 c 4
 693 434 626.658 484 554 484 c 4
 511.976 484 439.01 468.015 379 373 c 5
 359.704 426.754 321.763 484 221 484 c 4
 135.476 484 84 429.918 84 382 c 4
 84 351.6 106 306 213 306 c 5
 220.873 276.476 220.359 250 181 250 c 4
 90.575 250 48 327.871 48 410 c 4
 48 507.147 105.312 586 212 586 c 4
 313.4 586 363.072 490.297 381 456 c 5
 439.889 555.784 518.959 586 566 586 c 4
 636.622 586 726.582 530.916 725 387 c 4
 725 314.684 703.893 274.776 673 238 c 5
538 294 m 4
 494 294 472 267.6 472 250 c 4
 472 225.333 492.333 213 533 213 c 4
 572.817 213 600.941 230.382 624 252 c 5
 606.95 279.28 576.809 294 538 294 c 4
EndSplineSet
EndChar

StartChar: u0C88
Encoding: 112 3208 112
Width: 1030
Flags: HW
AnchorPoint: "Nukta" 415 -50 basechar 0
LayerCount: 2
Back
SplineSet
875 559 m 0
 918.314 559 995.495 528.265 989 413 c 1
 989 315.867 936.372 288.697 908 275 c 1
 978.011 210.239 983 146.639 983 122 c 0
 983 51.7558 938.253 1 887 1 c 0
 838.2 1 830.165 36.0029 826 51 c 1
 885.934 51 918 107.05 918 171 c 0
 918 206.333 909.333 237.333 892 264 c 1
 870.4 252.8 846.8 253 833 253 c 2
 688 253 l 1
 688 240.333 687.333 232.333 686 229 c 0
 655.441 66.0174 526.68 -1 413 -1 c 0
 275.072 -1 173.215 85.9361 154 223 c 0
 152 253 l 1
 50 253 l 1
 50 348 l 1
 167 348 l 1
 174.046 408.603 230.865 468.823 275 489 c 1
 154 489 l 1
 154 581 l 1
 522 581 l 2
 608.957 581 627 633.2 627 668 c 0
 627 706.208 609 742 581 754 c 1
 611 782 l 1
 653.4 760.799 679 710.526 679 653 c 0
 679 595.848 652.211 521.363 561 494 c 1
 617.715 459.971 657.658 416.274 676 348 c 1
 827 348 l 1
 799.134 381.925 785 417.2 785 464 c 0
 785 540 836.625 559 875 559 c 0
880 345 m 0
 918.844 345 969.435 358.862 971 423 c 1
 971 466.225 938.35 492 898 492 c 256
 871.213 492 824 477 824 417 c 0
 824 410.142 824.7 378.3 855 348 c 1
 865.667 346.667 874 345 880 345 c 0
618 348 m 1
 612.433 381.404 578 498 418 498 c 0
 275.12 498 222 408.4 222 348 c 1
 618 348 l 1
229 253 m 257
 229 148.961 323.868 100 420 100 c 256
 530.672 100 611 157.704 611 253 c 1
 611 253 228 252 229 253 c 257
EndSplineSet
Fore
SplineSet
875 559 m 0
 918.314 559 993.4 525.199 989 413 c 0
 985 311 936.372 288.697 908 275 c 1
 978.011 210.239 983 146.639 983 122 c 0
 983 51.7558 938.253 1 887 1 c 0
 838.2 1 830.165 36.0029 826 51 c 1
 885.934 51 918 107.05 918 171 c 0
 918 206.333 909.333 237.333 892 264 c 1
 870.4 252.8 846.8 253 833 253 c 2
 688 253 l 1
 688 240.333 687.333 232.333 686 229 c 0
 655.441 66.0174 526.68 -1 413 -1 c 0
 275.072 -1 173.215 85.9361 154 223 c 0
 152 253 l 1
 50 253 l 1
 50 348 l 1
 167 348 l 1
 174.046 408.603 230.865 468.823 275 489 c 1
 154 489 l 1
 154 581 l 1
 522 581 l 2
 608.957 581 627 633.2 627 668 c 0
 627 706.208 609 742 581 754 c 1
 611 782 l 1
 653.4 760.799 679 710.526 679 653 c 0
 679 595.848 652.211 516.363 561 489 c 1
 617.715 454.971 657.658 416.274 676 348 c 1
 827 348 l 1
 799.134 381.925 785 417.2 785 464 c 0
 785 540 836.625 559 875 559 c 0
971 423 m 1
 971 466.225 938.35 492 898 492 c 256
 871.213 492 824 477 824 417 c 0
 824 410.142 824.7 378.3 855 348 c 1
 911.305 340.964 969.221 350.093 971 423 c 1
618 348 m 1
 612.433 381.404 578 498 418 498 c 0
 275.12 498 222 408.4 222 348 c 1
 618 348 l 1
229 253 m 257
 229 148.961 323.868 100 420 100 c 256
 530.672 100 611 157.704 611 253 c 1
 611 253 228 252 229 253 c 257
EndSplineSet
EndChar

StartChar: u0C89
Encoding: 113 3209 113
Width: 1096
Flags: HW
LayerCount: 2
Back
SplineSet
807 511 m 1
 814.499 557.866 830.341 598 867 598 c 0
 875.456 598 962.951 561.991 1014 460.5 c 0
 1042 404.833 1056 343.667 1056 277 c 0
 1056 113.068 974.8 -13 853 -13 c 0
 726.6 -13 695 109.6 695 213 c 0
 695 282 702 253.25 702 328 c 0
 702 460.352 630.6 491 583 491 c 256
 526.856 491 453 443.905 453 335 c 0
 453 273.811 473 243.181 473 158 c 0
 473 49.9334 425.989 -13 317 -13 c 0
 235 -13 168 28.6667 116 112 c 0
 69.3333 186.667 46 272.333 46 369 c 0
 46 485.674 88.7298 598 197 598 c 0
 263.121 598 311 518.985 311 444 c 0
 311 366.704 276.809 305 212 305 c 0
 139 305 108.751 369.55 91 419 c 1
 84.953 373.646 84 358.2 84 343 c 0
 84 189.352 159.008 87 298 87 c 0
 392.016 87 440.931 152.425 434 255 c 0
 429 329 420 320 421 401 c 0
 422.781 545.301 502.521 598 567 598 c 0
 642.496 598 733 528.153 733 339 c 0
 733 288.6 728.71 280.198 729 255 c 0
 730 168 802.216 87 892 87 c 0
 980.368 87 1031 153.615 1031 246 c 0
 1031 352 957.854 467.116 807 511 c 1
119 468 m 1
 120.727 442.085 128 376 205 376 c 0
 245 376 277 409.157 277 442 c 0
 277 467.018 253.361 519 188 519 c 0
 140.325 519 128.928 487.858 119 468 c 1
EndSplineSet
Fore
SplineSet
807 511 m 1
 814.499 557.866 830.341 598 867 598 c 0
 875.456 598 962.951 561.991 1014 460.5 c 0
 1042 404.833 1056 343.667 1056 277 c 0
 1056 113.068 974.8 -13 853 -13 c 0
 726.6 -13 695 109.6 695 213 c 0
 695 282 702 253.25 702 328 c 0
 702 460.352 630.6 491 583 491 c 256
 526.856 491 453 443.905 453 335 c 0
 453 273.811 473 243.181 473 158 c 0
 473 49.9334 425.989 -13 317 -13 c 0
 235 -13 168 28.6667 116 112 c 0
 69.3333 186.667 46 272.333 46 369 c 0
 46 485.674 88.7298 598 197 598 c 0
 263.121 598 311 518.985 311 444 c 0
 311 366.704 276.809 305 212 305 c 0
 139 305 108.751 369.55 91 419 c 1
 84.953 373.646 84 358.2 84 343 c 0
 84 189.352 159.008 87 298 87 c 0
 392.016 87 440.931 152.425 434 255 c 0
 429 329 420 320 421 401 c 0
 422.781 545.301 502.521 598 567 598 c 0
 642.496 598 733 528.153 733 339 c 0
 733 288.6 728.71 280.198 729 255 c 0
 730 168 802.216 87 892 87 c 0
 980.368 87 1031 153.615 1031 246 c 0
 1031 352 957.854 467.116 807 511 c 1
119 468 m 1
 120.727 442.085 128 376 205 376 c 0
 245 376 277 409.157 277 442 c 0
 277 467.018 253.361 519 188 519 c 0
 140.325 519 128.928 487.858 119 468 c 1
EndSplineSet
EndChar

StartChar: u0C8A
Encoding: 114 3210 114
Width: 1257
Flags: HW
AnchorPoint: "Nukta" 650 -50 basechar 0
LayerCount: 2
Back
SplineSet
808 361 m 0
 808 524.838 898.662 596 992 596 c 0
 1053.33 596 1106.33 572.333 1151 515 c 0
 1201 449.667 1225.67 361 1225 249 c 0
 1225 36.9801 1129.96 -21 1056 -21 c 0
 975.675 -21 917 42.075 917 137 c 0
 917 258.65 981.8 284 1025 284 c 0
 1075.37 284 1118 248.447 1118 203 c 0
 1118 153.4 1077.35 141 1058 141 c 0
 1028.67 141 1014 153.333 1014 178 c 0
 1014 226.124 1047.47 224.193 1062 225 c 1
 1062 237.336 1034.93 243 1019 243 c 0
 994.168 243 940 231.611 940 168 c 0
 940 96.1969 992 73 1051 72 c 0
 1131.46 70.6357 1200 121.424 1200 254 c 0
 1200 330 1180.17 390.833 1140.5 436.5 c 0
 1100.83 482.167 1055.33 505 1004 505 c 0
 900.447 505 840 414.679 840 278 c 0
 840 216.5 848 204.2 848 155 c 0
 848 22.7824 773 -21 723 -21 c 0
 647.4 -21 597 55.5398 597 150 c 0
 597 237.939 620 245.881 620 334 c 0
 620 456.871 555.8 505 513 505 c 256
 476.65 505 406 470.043 406 324 c 0
 406 266.113 420 255.51 420 183 c 0
 420 24.0234 324.6 -21 261 -21 c 0
 205 -21 156.667 6 116 60 c 0
 69.3333 121.333 46 204.667 46 310 c 0
 46 487.028 132.357 596 218 596 c 0
 258 596 318 561.375 318 454 c 0
 318 367.05 262.586 328 218 328 c 0
 185.2 328 136 348.6 136 431 c 0
 136 447.326 138.851 480.989 144 490 c 1
 132.5 475.5 78 426 71 314 c 0
 63.1313 188.101 154 62 265 72 c 0
 314.4 76.4504 389 105.222 389 253 c 0
 389 324.1 377 339.9 377 411 c 0
 377 545.773 456.477 596 515 596 c 0
 596.446 596 651 515.462 651 401 c 0
 651 333.4 632 291.15 632 232 c 0
 632 119.227 690.8 72 730 72 c 0
 765.6 72 824.161 115.34 819 222 c 0
 816 284 808 280.423 808 361 c 0
226 384 m 0
 260.752 384 288 414 290 453 c 0
 294.252 535.915 236.639 541.8 216 537 c 0
 194.5 532 173 515 164.5 502 c 1
 158.5 399 196.35 384 226 384 c 0
EndSplineSet
Fore
SplineSet
808 361 m 4
 808 524.838 898.662 596 992 596 c 4
 1053.33 596 1106.33 572.333 1151 515 c 4
 1201 449.667 1225.67 361 1225 249 c 4
 1225 36.9801 1129.96 -21 1056 -21 c 4
 975.675 -21 917 42.075 917 137 c 4
 917 258.65 981.8 284 1025 284 c 4
 1075.37 284 1118 248.447 1118 203 c 4
 1118 153.4 1077.35 141 1058 141 c 4
 1028.67 141 1014 153.333 1014 178 c 4
 1014 226.124 1047.47 224.193 1062 225 c 5
 1062 237.336 1034.93 243 1019 243 c 4
 994.168 243 940 231.611 940 168 c 4
 940 96.1969 992 73 1051 72 c 4
 1131.46 70.6357 1200 121.424 1200 254 c 4
 1200 330 1180.17 390.833 1140.5 436.5 c 4
 1100.83 482.167 1055.33 505 1004 505 c 4
 900.447 505 840 414.679 840 278 c 4
 840 216.5 848 204.2 848 155 c 4
 848 22.7824 773 -21 723 -21 c 4
 647.4 -21 597 55.5398 597 150 c 4
 597 237.939 620 245.881 620 334 c 4
 620 456.871 555.8 505 513 505 c 260
 476.65 505 406 470.043 406 324 c 4
 406 266.113 420 255.51 420 183 c 4
 420 24.0234 324.6 -21 261 -21 c 4
 205 -21 156.667 6 116 60 c 4
 69.3333 121.333 46 204.667 46 310 c 4
 46 487.028 132.357 596 218 596 c 4
 258 596 318 561.375 318 454 c 4
 318 367.05 262.586 328 218 328 c 4
 185.2 328 136 348.6 136 431 c 4
 136 447.326 138.851 480.989 144 490 c 5
 132.5 475.5 78 426 71 314 c 4
 63.1313 188.101 154 62 265 72 c 4
 314.4 76.4504 389 105.222 389 253 c 4
 389 324.1 377 339.9 377 411 c 4
 377 545.773 456.477 596 515 596 c 4
 596.446 596 651 515.462 651 401 c 4
 651 333.4 632 291.15 632 232 c 4
 632 119.227 690.8 72 730 72 c 4
 765.6 72 824.161 115.34 819 222 c 4
 816 284 808 280.423 808 361 c 4
226 384 m 4
 260.752 384 288 414 290 453 c 4
 294.252 535.915 236.639 541.8 216 537 c 4
 194.5 532 173 515 164.5 502 c 5
 158.5 399 196.35 384 226 384 c 4
EndSplineSet
EndChar

StartChar: u0C8B
Encoding: 115 3211 115
Width: 1230
Flags: HW
AnchorPoint: "Nukta" 615 -50 basechar 0
LayerCount: 2
Back
SplineSet
825.5 172.347 m 1
 845.65 138.142 892.164 77.5 1004 77.5 c 0
 1088.16 77.5 1172 149.181 1172 248.5 c 0
 1172 393.85 1049.44 447.6 928 486.5 c 0
 917.077 488.684 881 496.3 881 535.5 c 256
 881 558.05 901 580.5 931 580.5 c 0
 988.333 580.5 1045.33 550.833 1102 487.5 c 0
 1163.33 418.833 1193.67 343.833 1193 262.5 c 0
 1193 111.074 1128.33 -14.5 995 -14.5 c 0
 924.333 -14.5 872.333 26.167 839 99.5 c 0
 834.011 110.725 829.314 124.721 825.316 141.5 c 1
 816 18.5 736.865 -14 682 -14 c 0
 588 -14 490.45 70.3322 447 202 c 1
 441.894 181.576 408 -14 252 -14 c 0
 153.718 -14 92 58.6031 92 146 c 0
 92 188.8 111.4 253 189 253 c 0
 247.567 253 278 212.881 278 168 c 0
 278 125.756 250.469 89 203 89 c 0
 173.625 89 151.333 103.852 136 126 c 1
 129.131 69.6712 180.474 15 242 15 c 0
 331.799 15 358 128.86 358 243 c 0
 358 385.128 312.363 552 206 552 c 0
 128.4 552 114.69 491.917 109 472 c 1
 119.667 480 134 484 152 484 c 0
 187.634 484 238 466.2 238 395 c 0
 238 347.958 204.008 317 156 317 c 0
 97.5125 317 45 360.384 45 435 c 0
 45 522 118.055 580 203 580 c 0
 257.667 580 306.667 558.333 350 515 c 0
 402 463 435.667 387.667 451 289 c 1
 479.682 200.46 532.6 77 655 77 c 0
 733.434 77 777 135.461 777 211 c 0
 777 318.6 699.466 414.134 592 480 c 1
 475 480 l 1
 475 572 l 1
 669 572 l 2
 760.498 572 773 630.181 773 658 c 0
 773 700.667 757.333 729.667 726 745 c 1
 749 770 l 1
 786.847 749.814 818 696.425 818 636 c 0
 818 530.16 742.735 480 631 480 c 1
 673.667 450.667 705 425.333 725 402 c 0
 786.632 333.306 821 254.5 825.5 172.347 c 1
94 418 m 0
 94 385.177 103.707 356 139 356 c 1
 158.741 353.18 182 380.033 182 405 c 0
 182 441.8 155.36 451 132 451 c 0
 118.114 451 108.304 449.943 98 447 c 1
 95.3333 441.667 94 432 94 418 c 0
188 124 m 256
 206 124 231.404 131.303 233 168 c 1
 233 192 221.667 204 199 204 c 0
 165.029 204 101.881 164.271 151.5 134.5 c 0
 163.167 127.5 175.333 124 188 124 c 256
EndSplineSet
Fore
SplineSet
825.5 172.347 m 1
 845.65 138.142 892.164 77.5 1004 77.5 c 0
 1088.16 77.5 1172 149.181 1172 248.5 c 0
 1172 393.85 1049.44 447.6 928 486.5 c 0
 917.077 488.684 881 496.3 881 535.5 c 256
 881 558.05 901 580.5 931 580.5 c 0
 988.333 580.5 1045.33 550.833 1102 487.5 c 0
 1163.33 418.833 1193.67 343.833 1193 262.5 c 0
 1193 111.074 1128.33 -14.5 995 -14.5 c 0
 924.333 -14.5 872.333 26.167 839 99.5 c 0
 834.011 110.725 829.314 124.721 825.316 141.5 c 1
 816 18.5 736.865 -14 682 -14 c 0
 588 -14 490.45 70.3322 447 202 c 1
 441.894 181.576 408 -14 252 -14 c 0
 153.718 -14 92 58.6031 92 146 c 0
 92 188.8 111.4 253 189 253 c 0
 247.567 253 278 212.881 278 168 c 0
 278 125.756 250.469 89 203 89 c 0
 173.625 89 151.333 103.852 136 126 c 1
 129.131 69.6712 180.474 15 242 15 c 0
 331.799 15 358 128.86 358 243 c 0
 358 385.128 312.363 552 206 552 c 0
 128.4 552 112.69 491.917 107 472 c 1
 117.667 480 134 484 152 484 c 0
 187.634 484 238 466.2 238 395 c 0
 238 347.958 204.008 317 156 317 c 0
 97.5125 317 45 360.384 45 435 c 0
 45 522 118.055 580 203 580 c 0
 257.667 580 306.667 558.333 350 515 c 0
 402 463 435.667 387.667 451 289 c 1
 479.682 200.46 532.6 77 655 77 c 0
 733.434 77 777 135.461 777 211 c 0
 777 318.6 699.466 414.134 592 480 c 1
 475 480 l 1
 475 572 l 1
 669 572 l 2
 760.498 572 773 630.181 773 658 c 0
 773 700.667 757.333 729.667 726 745 c 1
 749 770 l 1
 786.847 749.814 818 696.425 818 636 c 0
 818 530.16 742.735 480 631 480 c 1
 673.667 450.667 705 425.333 725 402 c 0
 786.632 333.306 821 254.5 825.5 172.347 c 1
94 418 m 0
 94 385.177 107 356 139 356 c 0
 164.425 356 182 380.033 182 405 c 0
 182 441.8 155.36 451 132 451 c 0
 118.114 451 111.304 449.943 101 447 c 1
 98.333 441.667 94 432 94 418 c 0
188 124 m 256
 206 124 231.404 131.303 233 168 c 0
 233 192 221.667 204 199 204 c 0
 165.029 204 101.881 164.271 151.5 134.5 c 0
 163.167 127.5 175.333 124 188 124 c 256
EndSplineSet
EndChar

StartChar: u0C8B_base
Encoding: 116 -1 116
Width: 869
Flags: HW
LayerCount: 2
Back
SplineSet
818 636 m 0
 818 530.16 742.735 481 631 481 c 1
 673.667 451.667 705 425.333 725 402 c 0
 789 330.667 822.667 252 826 166 c 1
 826 22.925 739.878 -14 682 -14 c 0
 588 -14 490.45 70.3322 447 202 c 1
 441.894 181.576 408 -14 252 -14 c 0
 153.718 -14 92 58.6031 92 146 c 0
 92 188.8 111.4 253 189 253 c 0
 247.567 253 278 212.881 278 168 c 0
 278 125.756 250.469 89 203 89 c 0
 173.625 89 151.333 103.852 136 126 c 1
 129.131 69.6712 180.474 15 242 15 c 0
 331.799 15 358 128.86 358 243 c 0
 358 385.128 312.363 552 206 552 c 0
 128.4 552 114.69 491.917 109 472 c 1
 119.667 480 134 484 152 484 c 0
 187.634 484 238 466.2 238 395 c 0
 238 347.958 204.008 317 156 317 c 0
 97.5125 317 45 360.384 45 435 c 0
 45 522 118.055 580 203 580 c 0
 257.667 580 306.667 558.333 350 515 c 0
 402 463 435.667 387.667 451 289 c 1
 479.682 200.46 532.6 77 655 77 c 0
 733.434 77 777 135.461 777 211 c 0
 777 318.6 699.466 414.134 592 480 c 1
 475 480 l 1
 475 572 l 1
 669 572 l 2
 760.498 572 773 630.181 773 658 c 0
 773 700.667 757.333 729.667 726 745 c 1
 749 770 l 1
 786.847 749.814 818 696.425 818 636 c 0
94 418 m 0
 94 385.177 103.707 356 139 356 c 1
 158.741 353.18 182 380.033 182 405 c 0
 182 441.8 155.36 451 132 451 c 0
 118.114 451 108.304 449.943 98 447 c 1
 95.3333 441.667 94 432 94 418 c 0
188 124 m 256
 206 124 231.404 131.303 233 168 c 0
 233 192 221.667 204 199 204 c 0
 165.029 204 101.881 164.271 151.5 134.5 c 0
 163.167 127.5 175.333 124 188 124 c 256
EndSplineSet
Fore
SplineSet
818 636 m 0
 818 530.16 742.735 480 631 480 c 1
 673.667 450.667 705 425.333 725 402 c 0
 789 330.667 828 252 826 166 c 0
 822.461 13.8308 739.878 -14 682 -14 c 0
 588 -14 490.45 70.3322 447 202 c 1
 441.894 181.576 408 -14 252 -14 c 0
 153.718 -14 92 58.6031 92 146 c 0
 92 188.8 111.4 253 189 253 c 0
 247.567 253 278 212.881 278 168 c 0
 278 125.756 250.469 89 203 89 c 0
 173.625 89 151.333 103.852 136 126 c 1
 129.131 69.6712 180.474 15 242 15 c 0
 331.799 15 358 128.86 358 243 c 0
 358 385.128 312.363 552 206 552 c 0
 128.4 552 114.69 491.917 109 472 c 1
 119.667 480 134 484 152 484 c 0
 187.634 484 238 466.2 238 395 c 0
 238 347.958 204.008 317 156 317 c 0
 97.5125 317 45 360.384 45 435 c 0
 45 522 118.055 580 203 580 c 0
 257.667 580 306.667 558.333 350 515 c 0
 402 463 435.667 387.667 451 289 c 1
 479.682 200.46 532.6 77 655 77 c 0
 733.434 77 777 135.461 777 211 c 0
 777 318.6 699.466 414.134 592 480 c 1
 475 480 l 1
 475 572 l 1
 669 572 l 2
 760.498 572 773 630.181 773 658 c 0
 773 700.667 757.333 729.667 726 745 c 1
 749 770 l 1
 786.847 749.814 818 696.425 818 636 c 0
94 418 m 0
 94 385.177 104 357 139 356 c 0
 164.415 355.274 182 380.033 182 405 c 0
 182 441.8 155.36 451 132 451 c 0
 118.114 451 108.304 449.943 98 447 c 1
 95.3333 441.667 94 432 94 418 c 0
188 124 m 256
 206 124 231.404 131.303 233 168 c 0
 233 192 221.667 204 199 204 c 0
 165.029 204 101.881 164.271 151.5 134.5 c 0
 163.167 127.5 175.333 124 188 124 c 256
EndSplineSet
EndChar

StartChar: u0C8C_base
Encoding: 118 -1 118
Width: 789
Flags: HW
AnchorPoint: "Nukta" 395 -50 basechar 0
LayerCount: 2
Back
Fore
SplineSet
740 168 m 1
 745.513 160.28 751.478 128.506 749 100 c 1
 749 26.1648 687.597 -15 627 -15 c 256
 580.595 -15 502 16.0648 502 109 c 0
 502 156.333 529 203.167 583 249.5 c 0
 637 295.833 664 340.333 664 383 c 0
 664 465.077 592.314 485 542 485 c 0
 494.667 485 454.333 459.333 421 408 c 0
 411 391.333 399.667 366 387 332 c 1
 379.188 364.548 356.2 485 233 485 c 0
 127.457 485 93 425 93 387 c 0
 93 367.8 98.8509 316.661 196 291 c 1
 192.542 277.165 175.6 275 162 275 c 1
 64.9807 283.982 52 371.647 52 408 c 0
 52 502.197 117.6 588 216 588 c 0
 318.6 588 364.85 494.572 387 445 c 1
 396.523 461.325 458.6 588 566 588 c 0
 658.006 588 731 512.025 731 426 c 0
 731 368.667 702.333 313.667 645 261 c 0
 587.667 208.333 559 168 559 140 c 0
 559 75.2 606.438 55 633 55 c 0
 674.2 55 728.223 104.694 740 168 c 1
EndSplineSet
EndChar

StartChar: u0C8E
Encoding: 119 3214 119
Width: 760
Flags: HW
AnchorPoint: "Nukta" 380 -50 basechar 0
LayerCount: 2
Back
SplineSet
196 524 m 0
 196 547.05 215.868 589 314 589 c 0
 402.667 589 485.667 561.333 563 506 c 0
 666.333 430.667 717.333 325 716 189 c 1
 716 75.6222 661.628 -15 560 -15 c 0
 452.6 -15 400.01 116.898 381 161 c 1
 364.495 122.71 311.8 -15 208 -15 c 0
 96.625 -15 46 84.5203 46 174 c 0
 46 297.181 123.51 327 171 327 c 0
 226.8 327 279 291 279 237 c 0
 279 200.796 254.389 177.745 236 183 c 1
 238 200 242 262 167 264 c 0
 138.76 264.753 88 252 83 192 c 0
 77.7681 129.218 128.488 88 200 88 c 0
 309.2 88 358.764 183.476 382 235 c 1
 394.667 201.667 406.333 177.333 417 162 c 0
 453 112.667 499 88 555 88 c 0
 631.8 88 688.35 153.341 683 255 c 0
 680 312 646 368 577.5 417 c 0
 507.627 466.982 427 491 337 491 c 0
 292.566 491 269.182 483 246 483 c 0
 217.826 483 196 500.873 196 524 c 0
EndSplineSet
Fore
SplineSet
196 524 m 4
 196 547.05 215.868 589 314 589 c 4
 402.667 589 485.667 561.333 563 506 c 4
 666.333 430.667 717.333 325 716 189 c 5
 716 75.6222 661.628 -15 560 -15 c 4
 452.6 -15 400.01 116.898 381 161 c 5
 364.495 122.71 311.8 -15 208 -15 c 4
 96.625 -15 46 84.5203 46 174 c 4
 46 297.181 123.51 327 171 327 c 4
 226.8 327 279 291 279 237 c 4
 279 200.796 254.389 177.745 236 183 c 5
 238 200 242 262 167 264 c 4
 138.76 264.753 88 252 83 192 c 4
 77.7681 129.218 128.488 88 200 88 c 4
 309.2 88 358.764 183.476 382 235 c 5
 394.667 201.667 406.333 177.333 417 162 c 4
 453 112.667 499 88 555 88 c 4
 631.8 88 688.35 153.341 683 255 c 4
 680 312 646 368 577.5 417 c 4
 507.627 466.982 427 491 337 491 c 4
 292.566 491 269.182 483 246 483 c 4
 217.826 483 196 500.873 196 524 c 4
EndSplineSet
EndChar

StartChar: u0C8F
Encoding: 120 3215 120
Width: 760
Flags: HW
AnchorPoint: "Nukta" 380 -50 basechar 0
LayerCount: 2
Back
SplineSet
390 221 m 1
 415.153 156.72 466.257 78.4533 547 85 c 24
 629.389 91.6797 686 182.2 686 245 c 0
 686 395.841 565.225 561.823 382 599 c 1
 412.864 502.549 350.541 442 274 442 c 0
 189.385 442 118 514.358 118 659 c 1
 143 659 l 1
 143 572.456 208.153 520 269 520 c 0
 357.004 520 362.317 609.683 323 649 c 1
 448.333 635 547.667 582 621 490 c 0
 685 410 717 319.333 717 218 c 0
 717 86.0187 655.095 -15 539 -15 c 0
 446 -15 407.016 81.5872 384 147 c 1
 346.777 51.2833 300.32 -15 222 -15 c 0
 101.922 -15 45 94.5672 45 179 c 0
 45 292.656 116.953 330 172 330 c 0
 226.925 330 275 295.633 275 230 c 0
 275 154.594 210.546 132.454 182 161 c 1
 195.981 162.749 230 174.58 230 222 c 0
 230 258.042 199.601 277 161 277 c 0
 127.188 277 74 261.2 74 198 c 0
 74 123.588 133.745 85 209 85 c 0
 317.6 85 371.829 188.152 390 221 c 1
EndSplineSet
Fore
SplineSet
390 221 m 5
 415.153 156.72 466.257 78.4533 547 85 c 28
 629.389 91.6797 686 182.2 686 245 c 4
 686 395.841 565.225 561.823 382 599 c 5
 412.864 502.549 350.541 442 274 442 c 4
 189.385 442 118 514.358 118 659 c 5
 143 659 l 5
 143 572.456 208.153 520 269 520 c 4
 357.004 520 362.317 609.683 323 649 c 5
 448.333 635 547.667 582 621 490 c 4
 685 410 717 319.333 717 218 c 4
 717 86.0187 655.095 -15 539 -15 c 4
 446 -15 407.016 81.5872 384 147 c 5
 346.777 51.2833 300.32 -15 222 -15 c 4
 101.922 -15 45 94.5672 45 179 c 4
 45 292.656 116.953 330 172 330 c 4
 226.925 330 275 295.633 275 230 c 4
 275 154.594 210.546 132.454 182 161 c 5
 195.981 162.749 230 174.58 230 222 c 4
 230 258.042 199.601 277 161 277 c 4
 127.188 277 74 261.2 74 198 c 4
 74 123.588 133.745 85 209 85 c 4
 317.6 85 371.829 188.152 390 221 c 5
EndSplineSet
EndChar

StartChar: u0C90
Encoding: 121 3216 121
Width: 760
Flags: HW
AnchorPoint: "Nukta" 380 -50 basechar 0
LayerCount: 2
Back
SplineSet
390 226 m 1
 412.055 147.23 453.89 77.8645 547 79 c 0
 641.017 79 695 151.295 695 254 c 0
 695 380.419 617.4 501 501 501 c 256
 442.333 501 400 469.333 374 420 c 0
 366 404.667 359 380 353 346 c 1
 311.867 444.471 247.4 501 177 501 c 0
 128.35 501 91 470.484 91 427 c 0
 91 406.561 92.4033 393.295 100 380 c 1
 79.6162 370.487 44 402.093 44 458 c 0
 44 561.1 109.216 589 157 589 c 0
 227.8 589 297.93 535.336 334 452 c 1
 356.875 523.893 397.6 589 493 589 c 0
 637.873 589 720 424.168 720 251 c 0
 720 86.8367 648.8 -16 542 -16 c 0
 450.8 -16 405.413 88.5038 390 123 c 1
 370.538 83.2286 321.6 -16 219 -16 c 0
 118.493 -16 53 84.575 53 186 c 0
 53 293.381 130.406 335 188 335 c 0
 224.581 335 284 315.6 284 238 c 0
 284 178.681 238.675 159 215 159 c 0
 204.333 159 196.333 162.667 191 170 c 1
 205.387 173.597 239 181.2 239 226 c 0
 239 262 207.6 286 168 286 c 0
 131.072 286 87 262.166 87 203 c 0
 87 108.651 164.816 79 218 79 c 0
 293.764 79 390 132.416 390 226 c 1
EndSplineSet
Fore
SplineSet
390 226 m 5
 412.055 147.23 453.89 77.8645 547 79 c 4
 641.017 79 695 151.295 695 254 c 4
 695 380.419 617.4 501 501 501 c 260
 442.333 501 400 469.333 374 420 c 4
 366 404.667 359 380 353 346 c 5
 311.867 444.471 247.4 501 177 501 c 4
 128.35 501 91 470.484 91 427 c 4
 91 406.561 92.4033 393.295 100 380 c 5
 79.6162 370.487 44 402.093 44 458 c 4
 44 561.1 109.216 589 157 589 c 4
 227.8 589 297.93 535.336 334 452 c 5
 356.875 523.893 397.6 589 493 589 c 4
 637.873 589 720 424.168 720 251 c 4
 720 86.8367 648.8 -16 542 -16 c 4
 450.8 -16 405.413 88.5038 390 123 c 5
 370.538 83.2286 321.6 -16 219 -16 c 4
 118.493 -16 53 84.575 53 186 c 4
 53 293.381 130.406 335 188 335 c 4
 224.581 335 284 315.6 284 238 c 4
 284 178.681 238.675 159 215 159 c 4
 204.333 159 196.333 162.667 191 170 c 5
 205.387 173.597 239 181.2 239 226 c 4
 239 262 207.6 286 168 286 c 4
 131.072 286 87 262.166 87 203 c 4
 87 108.651 164.816 79 218 79 c 4
 293.764 79 390 132.416 390 226 c 5
EndSplineSet
EndChar

StartChar: u0C92
Encoding: 122 3218 122
Width: 800
Flags: HW
AnchorPoint: "Nukta" 400 -50 basechar 0
LayerCount: 2
Back
SplineSet
618 286 m 1
 628 291 636.98 295.246 653 295 c 0
 718 294 765 235 765 169 c 0
 765 71 699 -17 601 -17 c 0
 489.475 -17 444.455 94.2078 431 124 c 1
 421 108 359 -17 252 -17 c 0
 160 -17 89 57 89 147 c 0
 89 204 118 258 175 310 c 0
 232 362 261 402 261 430 c 0
 261 490 214 505 185 505 c 0
 147 505 114 480 114 440 c 0
 114 394 153 386 167 382 c 1
 133.661 348.661 45 393.648 45 481 c 0
 45 565 110 602 173 602 c 0
 251 602 312 551 312 465 c 0
 312 419 284 373 230 326 c 0
 176 279 149 235 149 194 c 0
 149 112 220 92 272 92 c 0
 365 92 402.576 179.123 427 243 c 1
 433 217 457 92 578 92 c 0
 685 92 721 155 721 189 c 0
 721 208 714 261 618 286 c 1
EndSplineSet
Fore
SplineSet
618 286 m 1
 628 291 636.98 295.246 653 295 c 0
 718 294 765 235 765 169 c 0
 765 71 699 -17 601 -17 c 0
 489.475 -17 444.455 94.2078 431 124 c 1
 421 108 359 -17 252 -17 c 0
 160 -17 89 57 89 147 c 0
 89 204 118 258 175 310 c 0
 232 362 261 402 261 430 c 0
 261 490 214 505 185 505 c 0
 147 505 114 480 114 440 c 0
 114 394 153 386 167 382 c 1
 133.661 348.661 45 393.648 45 481 c 0
 45 565 110 602 173 602 c 0
 251 602 312 551 312 465 c 0
 312 419 284 373 230 326 c 0
 176 279 149 235 149 194 c 0
 149 112 220 92 272 92 c 0
 365 92 402.576 179.123 427 243 c 1
 433 217 457 92 578 92 c 0
 685 92 721 155 721 189 c 0
 721 208 714 261 618 286 c 1
EndSplineSet
EndChar

StartChar: u0C93
Encoding: 123 3219 123
Width: 800
Flags: HW
AnchorPoint: "Nukta" 400 -50 basechar 0
LayerCount: 2
Back
SplineSet
617 285 m 1
 624.5 291.5 639.555 296.314 653 295 c 0
 719.5 288.5 765 234.931 765 169 c 0
 765 71.2266 699.4 -17 601 -17 c 0
 499 -17 456.799 67.4889 431 124 c 1
 421.426 107.93 359.4 -17 252 -17 c 0
 159.694 -17 89 57.4414 89 147 c 0
 89 204.333 117.667 258.833 175 310.5 c 0
 232.333 362.167 261 402 261 430 c 0
 261 490 213.525 505 185 505 c 0
 147.113 505 114 480.125 114 440 c 0
 114 393.6 152.742 386.073 167 382 c 1
 130.433 345.433 46 400.211 46 483 c 0
 46 523.201 67.2213 575.974 128 590 c 1
 99.8775 604.06 46 630.8 46 692 c 0
 46 775.159 152.781 804.9 212 767 c 1
 192.235 762.059 128 750.2 128 683 c 0
 128 630.515 154.375 614.577 179 605 c 1
 236.871 605 311 561.009 311 464 c 0
 311 418 283.833 371.5 229.5 324.5 c 0
 175.167 277.5 148 233.667 148 193 c 0
 148 111.4 219.25 91 271 91 c 0
 364 91 402.383 178.607 426 242 c 1
 432.159 216.336 456.2 91 577 91 c 0
 684.277 91 720 153.559 720 188 c 0
 720 207.4 713.186 259.593 617 285 c 1
EndSplineSet
Fore
SplineSet
617 285 m 1
 624.5 291.5 639.555 296.314 653 295 c 0
 719.5 288.5 765 234.931 765 169 c 0
 765 71.2266 699.4 -17 601 -17 c 0
 499 -17 456.799 67.4889 431 124 c 1
 421.426 107.93 359.4 -17 252 -17 c 0
 159.694 -17 89 57.4414 89 147 c 0
 89 204.333 117.667 258.833 175 310.5 c 0
 232.333 362.167 261 402 261 430 c 0
 261 490 213.525 505 185 505 c 0
 147.113 505 114 480.125 114 440 c 0
 114 393.6 152.742 386.073 167 382 c 1
 130.433 345.433 46 400.211 46 483 c 0
 46 523.201 67.2213 575.974 128 590 c 1
 99.8775 604.06 46 630.8 46 692 c 0
 46 775.159 152.781 804.9 212 767 c 1
 192.235 762.059 128 750.2 128 683 c 0
 128 630.515 154.375 614.577 179 605 c 1
 236.871 605 311 561.009 311 464 c 0
 311 418 283.833 371.5 229.5 324.5 c 0
 175.167 277.5 148 233.667 148 193 c 0
 148 111.4 219.25 91 271 91 c 0
 364 91 402.383 178.607 426 242 c 1
 432.159 216.336 456.2 91 577 91 c 0
 684.277 91 720 153.559 720 188 c 0
 720 207.4 713.186 259.593 617 285 c 1
EndSplineSet
EndChar

StartChar: u0C94
Encoding: 124 3220 124
Width: 760
Flags: HW
AnchorPoint: "Nukta" 380 -50 basechar 0
LayerCount: 2
Back
SplineSet
430 519 m 0
 430 479.4 453.01 420 564 420 c 0
 663.231 420 709 499.304 709 567 c 0
 709 647.597 656.838 714 561 714 c 2
 269 714 l 1
 291.001 690.427 298 660.4 298 648 c 0
 298 612.6 265.325 589 220 589 c 1
 259.263 574.723 318 547.069 318 465 c 0
 318 425 278 370 198 300 c 0
 160 266.667 141 231 141 193 c 0
 141 111.4 211.575 90 265 90 c 0
 350.8 90 386.244 168.031 408 242 c 1
 414.935 210.478 435.8 90 547 90 c 0
 656.312 90 688 149.8 688 187 c 0
 688 233 653.667 265.667 585 285 c 1
 590.4 289.8 599.6 294.2 614 295 c 1
 698 290 727 221.025 727 167 c 0
 727 70.875 661.4 -15 563 -15 c 0
 515 -15 474 13 440 63 c 0
 429.333 79.6667 417.667 104.667 405 138 c 1
 387.52 95.8911 339 -17 240 -17 c 0
 148.142 -17 77 59.8797 77 146 c 0
 77 203.333 108 257.833 170 309.5 c 0
 232 361.167 263 401 263 429 c 0
 263 479.6 223.4 505 183 505 c 0
 156.75 505 109 491.6 109 438 c 0
 109 388.324 161.378 377.743 170 375 c 1
 160 367 148.333 363 135 363 c 0
 88.9551 363 49 405.034 49 461 c 0
 49 527.489 88.6513 560.993 142 585 c 1
 54 585 l 1
 54 659 l 1
 226 659 l 2
 273.095 659 259 709 231 712 c 1
 54 712 l 1
 54 804 l 1
 507 804 l 2
 655.659 804 738 706.267 738 576 c 0
 738 455.6 668.616 367 562 367 c 0
 438.8 367 408 461.542 408 517 c 0
 408 587.981 448.159 652 520 652 c 1024
EndSplineSet
Fore
SplineSet
622 558 m 0
 622 517.514 596.552 485 557 485 c 0
 505.8 485 493 515 493 535 c 0
 493 560.348 510.448 579 534 579 c 256
 552.8 579 570.723 568.277 581 558 c 1
 598.149 588.008 556.809 613 521 613 c 1024
585 285 m 1
 590.4 289.8 601.512 295.536 614 295 c 0
 695.5 291.5 727 221.025 727 167 c 0
 727 70.875 661.4 -15 563 -15 c 0
 486.827 -15 438.66 49.4244 405 138 c 1
 387.52 95.8911 339 -17 240 -17 c 0
 148.142 -17 77 59.8797 77 146 c 0
 77 203.333 108 257.833 170 309.5 c 0
 232 361.167 263 401 263 429 c 0
 263 479.6 223.4 505 183 505 c 0
 156.75 505 109 491.6 109 438 c 0
 109 388.324 161.378 377.743 170 375 c 1
 160 367 148.333 363 135 363 c 0
 88.9551 363 49 405.034 49 461 c 0
 49 527.489 88.6513 560.993 142 585 c 1
 54 585 l 1
 54 659 l 1
 226 659 l 2
 273.095 659 258.551 704.285 231 712 c 1
 54 712 l 1
 54 804 l 1
 507 804 l 2
 655.659 804 738 706.267 738 576 c 0
 738 455.6 668.616 367 562 367 c 0
 438.8 367 408 461.542 408 517 c 0
 408 587.981 448.159 652 520 652 c 0
 595.998 652 622 595.434 622 558 c 0
 622 517.514 596.552 485 557 485 c 0
 505.8 485 493 515 493 535 c 0
 493 560.348 510.448 579 534 579 c 256
 552.8 579 570.723 568.277 581 558 c 1
 598.149 588.008 556.809 613 521 613 c 0
 464.034 613 430 565.643 430 519 c 0
 430 479.4 453.01 420 564 420 c 0
 663.231 420 709 499.304 709 567 c 0
 709 647.597 656.838 714 561 714 c 2
 269 714 l 1
 291.001 690.427 298 660.4 298 648 c 0
 298 612.6 265.325 589 220 589 c 1
 259.263 574.723 318 547.069 318 465 c 0
 318 425 278 370 198 300 c 0
 160 266.667 141 231 141 193 c 0
 141 111.4 211.575 90 265 90 c 0
 350.8 90 386.244 168.031 408 242 c 1
 414.935 210.478 435.8 90 547 90 c 0
 656.312 90 688 149.8 688 187 c 0
 688 233 653.667 265.667 585 285 c 1
EndSplineSet
EndChar

StartChar: u0C95
Encoding: 125 3221 125
Width: 536
Flags: W
HStem: -4 93<191.609 345.152> 328 91<42 168 194.217 284.076 367 486> 482 92<42 282.586 309 397.729>
VStem: 88 50<140.582 262.89> 395 56<138.187 253.511> 431 55<605.947 718.781>
AnchorPoint: "s" 280 -58 basechar 0
LayerCount: 2
Back
SplineSet
431 668 m 0xf4
 431 732.2 388.512 764.495 366 775 c 1
 397 794 l 1
 442.314 773.284 486 700.529 486 625 c 0
 486 543.261 430.5 482 354 482 c 2
 309 482 l 1
 331.963 467.497 333.5 435.5 317 419 c 1
 486 419 l 1
 486 328 l 1xf4
 367 328 l 1
 409.955 292.409 451 238.766 451 173 c 0xf8
 451 59.0376 374.205 -4 276 -4 c 0
 174.6 -4 88 66.6088 88 175 c 0
 88 245.413 121.97 293.807 168 328 c 1
 42 328 l 1
 42 419 l 1
 258 419 l 2
 302.507 419 289.193 477.049 257 482 c 1
 42 482 l 1
 42 574 l 1
 324 574 l 2
 408.498 574 431 627.086 431 668 c 0xf4
270 89 m 0
 329.45 89 395 124.412 395 210 c 0xf8
 395 304.4 317.974 328 273 328 c 0
 209.232 328 138 288.427 138 207 c 0
 138 129.489 204.737 89 270 89 c 0
EndSplineSet
Fore
SplineSet
431 668 m 0xf4
 431 732.2 388.512 764.495 366 775 c 1
 397 794 l 1
 442.314 773.284 486 700.529 486 625 c 0
 486 543.261 430.5 482 354 482 c 2
 309 482 l 1
 331.963 467.497 333.5 435.5 317 419 c 1
 486 419 l 1
 486 328 l 1xf4
 367 328 l 1
 409.955 292.409 451 238.766 451 173 c 0xf8
 451 59.0376 374.205 -4 276 -4 c 0
 174.6 -4 88 66.6088 88 175 c 0
 88 245.413 121.97 293.807 168 328 c 1
 42 328 l 1
 42 419 l 1
 258 419 l 2
 302.507 419 289.193 477.049 257 482 c 1
 42 482 l 1
 42 574 l 1
 324 574 l 2
 408.498 574 431 627.086 431 668 c 0xf4
270 89 m 0
 329.45 89 395 124.412 395 210 c 0xf8
 395 304.4 317.974 328 273 328 c 0
 209.232 328 138 288.427 138 207 c 0
 138 129.489 204.737 89 270 89 c 0
EndSplineSet
Substitution2: "Single Substitution lookup 15 subtable" u0C95.base
Ligature2: "Ligature Substitution lookup 14 subtable" u0C95 u0CCD
LCarets2: 1 0
EndChar

StartChar: u0C95.base
Encoding: 126 -1 126
Width: 522
Flags: W
HStem: -4 93<191.609 345.152> 328 91<42 168 194.217 284.076 367 486> 482 92<42 282.586 309 330>
VStem: 88 50<140.582 262.89> 395 56<138.187 253.511>
AnchorPoint: "s" 278 -62 basechar 0
LayerCount: 2
Back
SplineSet
257 482 m 1
 42 482 l 1
 42 574 l 1
 330 574 l 1
 330 482 l 1
 309 482 l 1
 331.963 467.497 333.5 435.5 317 419 c 1
 486 419 l 1
 486 328 l 1
 367 328 l 1
 409.955 292.409 451 238.766 451 173 c 0
 451 59.0376 374.205 -4 276 -4 c 0
 174.6 -4 88 66.6088 88 175 c 0
 88 245.413 121.97 293.807 168 328 c 1
 42 328 l 1
 42 419 l 1
 258 419 l 2
 302.507 419 289.193 477.049 257 482 c 1
270 89 m 0
 329.45 89 395 124.412 395 210 c 0
 395 304.4 317.974 328 273 328 c 0
 209.232 328 138 288.427 138 207 c 0
 138 129.489 204.737 89 270 89 c 0
EndSplineSet
Fore
SplineSet
257 482 m 5
 42 482 l 5
 42 574 l 5
 330 574 l 5
 330 482 l 5
 309 482 l 5
 331.963 467.497 333.5 435.5 317 419 c 5
 486 419 l 5
 486 328 l 5
 367 328 l 5
 409.955 292.409 451 238.766 451 173 c 4
 451 59.0376 374.205 -4 276 -4 c 4
 174.6 -4 88 66.6088 88 175 c 4
 88 245.413 121.97 293.807 168 328 c 5
 42 328 l 5
 42 419 l 5
 258 419 l 6
 302.507 419 289.193 477.049 257 482 c 5
270 89 m 4
 329.45 89 395 124.412 395 210 c 4
 395 304.4 317.974 328 273 328 c 4
 209.232 328 138 288.427 138 207 c 4
 138 129.489 204.737 89 270 89 c 4
EndSplineSet
EndChar

StartChar: u0C95.imathra
Encoding: 127 -1 127
Width: 522
Flags: HW
AnchorPoint: "s" 270 -80 basechar 0
LayerCount: 2
Back
SplineSet
391 557 m 0
 391 525.512 381.028 454.107 303 408 c 1
 489 408 l 1
 489 315 l 1
 367 315 l 1
 389.304 298.272 451 254.2 451 163 c 0
 451 52.9117 375.158 -15 268 -15 c 0
 168.417 -15 82 50.9552 82 168 c 0
 82 259.035 143.965 300.726 165 315 c 1
 40 315 l 1
 40 408 l 1
 254 408 l 1
 289.68 425.84 323 459 323 493 c 1
 313.7 483.7 285.644 465 258 465 c 0
 188.4 465 171 521.025 171 562 c 0
 171 628.296 211.308 688 274 688 c 0
 356.956 688 391 614.976 391 557 c 0
317 571 m 256
 317 591 306.6 621 265 621 c 256
 221 621 210 586.45 210 568 c 256
 210 548 220.4 518 262 518 c 256
 306 518 317 552.55 317 571 c 256
271 76 m 0
 347.407 76 400 122.525 400 204 c 0
 400 292.436 337.139 328 275 328 c 0
 208.5 328 137 287.959 137 200 c 0
 137 110.222 215.947 76 271 76 c 0
EndSplineSet
Fore
SplineSet
391 557 m 4
 391 525.512 381.028 454.107 303 408 c 5
 489 408 l 5
 489 315 l 5
 367 315 l 5
 389.304 298.272 451 254.2 451 163 c 4
 451 52.9117 375.158 -15 268 -15 c 4
 168.417 -15 82 50.9552 82 168 c 4
 82 259.035 143.965 300.726 165 315 c 5
 40 315 l 5
 40 408 l 5
 254 408 l 5
 289.68 425.84 323 459 323 493 c 5
 313.7 483.7 285.644 465 258 465 c 4
 188.4 465 171 521.025 171 562 c 4
 171 628.296 211.308 688 274 688 c 4
 356.956 688 391 614.976 391 557 c 4
317 571 m 260
 317 591 306.6 621 265 621 c 260
 221 621 210 586.45 210 568 c 260
 210 548 220.4 518 262 518 c 260
 306 518 317 552.55 317 571 c 260
271 76 m 4
 347.407 76 400 122.525 400 204 c 4
 400 292.436 337.139 328 275 328 c 4
 208.5 328 137 287.959 137 200 c 4
 137 110.222 215.947 76 271 76 c 4
EndSplineSet
Ligature2: "'abvs' Above Base Substitutions in Kannada lookup 11 subtable" u0C95 u0CBF
LCarets2: 1 0
EndChar

StartChar: u0C95.sub
Encoding: 128 -1 128
Width: 237
Flags: HW
LayerCount: 2
Back
SplineSet
119 47 m 0
 119 28.1175 114 -25 57 -82 c 1
 226 -82 l 1
 226 -145 l 1
 128 -145 l 1
 158.667 -171 174 -201.667 174 -237 c 0
 174 -322.68 111.647 -360 53 -360 c 256
 4.35781 -360 -68 -332.6 -68 -236 c 0
 -68 -195.333 -54.6667 -165 -28 -145 c 1
 -120 -145 l 1
 -120 -82 l 1
 17 -82 l 1
 51.8271 -35.1173 68 18.5992 68 62 c 0
 68 99.9769 60.9863 118.032 52 139 c 1
 95.038 139 119 86.6673 119 47 c 0
53 -298 m 0
 99.1842 -298 140 -267.854 140 -211 c 0
 140 -165.14 100.129 -127 50 -127 c 0
 6.46193 -127 -36 -163.286 -36 -213 c 0
 -36 -269.562 10.225 -298 53 -298 c 0
EndSplineSet
Fore
SplineSet
119 47 m 0
 119 28.1175 114 -25 57 -82 c 1
 226 -82 l 1
 226 -145 l 1
 128 -145 l 1
 158.667 -171 174 -201.667 174 -237 c 0
 174 -322.68 111.647 -360 53 -360 c 256
 4.35781 -360 -68 -332.6 -68 -236 c 0
 -68 -195.333 -54.6667 -165 -28 -145 c 1
 -120 -145 l 1
 -120 -82 l 1
 17 -82 l 1
 51.8271 -35.1173 68 18.5992 68 62 c 0
 68 99.9769 60.9863 118.032 52 139 c 1
 95.038 139 119 86.6673 119 47 c 0
53 -298 m 0
 99.1842 -298 140 -267.854 140 -211 c 0
 140 -165.14 100.129 -127 50 -127 c 0
 6.46193 -127 -36 -163.286 -36 -213 c 0
 -36 -269.562 10.225 -298 53 -298 c 0
EndSplineSet
Position2: "SubMove-1" dx=-100 dy=0 dh=0 dv=0
Ligature2: "'blwf' Below Base Forms in Kannada lookup 5 subtable" u0C95 u0CCD
LCarets2: 1 0
EndChar

StartChar: u0C95_u0CC3.sub
Encoding: 129 -1 129
Width: 481
Flags: HW
LayerCount: 2
Back
SplineSet
229 -181 m 0
 272.669 -181 301.69 -214.161 303 -260 c 0
 303 -268.4 299.43 -281.571 292 -302 c 1
 384.329 -278.918 412 -197.6 412 -128 c 0
 412 -11.6576 341.793 118.788 238 180 c 1
 257 196 l 1
 380.705 118.999 455 -8.6 455 -145 c 256
 455 -267.689 391.645 -367 278 -367 c 0
 215 -367 184.15 -321.61 173 -306 c 1
 158.492 -342.932 113.234 -367 59 -367 c 0
 -11.4919 -367 -52 -322.601 -52 -249 c 0
 -52 -206.333 -37.6667 -174.333 -9 -153 c 1
 -101 -153 l 1
 -101 -90 l 1
 27 -90 l 1
 56.496 -50.672 92 15.6 92 86 c 0
 92 126.667 81 161 59 189 c 1
 66.2969 187.342 139 184.324 139 83 c 0
 139 61.6899 136.034 -16.7233 59 -90 c 1
 242 -90 l 1
 242 -153 l 1
 151 -153 l 1
 172.463 -173.032 174.927 -198.706 175 -199 c 5
 189.016 -189.989 207.4 -181 229 -181 c 0
274 -260 m 1
 274 -230.032 253.398 -211 223 -211 c 0
 192.333 -211 177 -226.667 177 -258 c 0
 177 -303.585 223.329 -317.759 255 -312 c 1
 262.1 -304.9 271.898 -286.276 274 -260 c 1
61 -309 m 0
 108.188 -309 147.636 -277.893 149 -222 c 1
 149 -176.561 111.384 -138 63 -138 c 0
 16.525 -138 -27 -172.4 -27 -224 c 0
 -27 -280.061 19.3963 -309 61 -309 c 0
EndSplineSet
Fore
SplineSet
229 -181 m 0
 272.669 -181 301.69 -214.161 303 -260 c 0
 303 -268.4 299.43 -281.571 292 -302 c 1
 384.329 -278.918 412 -197.6 412 -128 c 0
 412 -11.6576 341.793 118.788 238 180 c 1
 257 196 l 1
 380.705 118.999 455 -8.6 455 -145 c 256
 455 -267.689 391.645 -367 278 -367 c 0
 215 -367 184.15 -321.61 173 -306 c 1
 158.492 -342.932 113.234 -367 59 -367 c 0
 -11.4919 -367 -52 -322.601 -52 -249 c 0
 -52 -206.333 -37.6667 -174.333 -9 -153 c 1
 -101 -153 l 1
 -101 -90 l 1
 27 -90 l 1
 56.496 -50.672 92 15.6 92 86 c 0
 92 126.667 81 161 59 189 c 1
 66.2969 187.342 139 184.324 139 83 c 0
 139 61.6899 136.034 -16.7233 59 -90 c 1
 242 -90 l 1
 242 -153 l 1
 151 -153 l 1
 172.463 -173.032 174.927 -198.706 175 -199 c 1
 189.016 -189.989 207.4 -181 229 -181 c 0
274 -260 m 1
 274 -230.032 253.398 -211 223 -211 c 0
 192.333 -211 177 -226.667 177 -258 c 0
 177 -303.585 223.329 -317.759 255 -312 c 1
 262.1 -304.9 271.898 -286.276 274 -260 c 1
61 -309 m 0
 108.188 -309 147.636 -277.893 149 -222 c 1
 149 -176.561 111.384 -138 63 -138 c 0
 16.525 -138 -27 -172.4 -27 -224 c 0
 -27 -280.061 19.3963 -309 61 -309 c 0
EndSplineSet
EndChar

StartChar: u0C96
Encoding: 130 3222 130
Width: 855
Flags: W
HStem: -8 110<515.538 677.467> -8 80<95.9194 257.407> 204 32<143.817 310.389> 346 49<196.227 238> 514 74<218.123 365.222> 649 77<501.503 643.42>
VStem: 44 43<83.1661 163.529> 157 34<402.92 482.75> 228 97<396.581 460.859> 429 35<239.748 436.765> 791 36<234.238 449.858>
LayerCount: 2
Back
SplineSet
827 301 m 0
 827 121.411 750.493 -10.6749 590 -8 c 0
 552.6 -8 482.068 7.12692 403 131 c 1
 346.865 51.0496 276.063 -8 186 -8 c 0
 89.8734 -8 44 45.0531 44 103 c 0
 44 156.2 86.559 236 229 236 c 0
 321.4 236 370.035 199.298 383 191 c 1
 413.667 226.333 429 277 429 343 c 0
 429 443.638 384.236 514 292 514 c 0
 215.762 514 191 470.2 191 441 c 0
 191 410.333 206.667 395 238 395 c 1
 229.122 402.104 228 414.8 228 428 c 0
 228 452.6 247.2 469 276 469 c 256
 295.6 469 325 457.8 325 413 c 0
 325 371.862 288.3 346 250 346 c 0
 186.142 346 157 401.116 157 454 c 0
 157 513.599 191.977 588 282 588 c 0
 403.223 588 464 476.803 464 338 c 0
 464 255.658 441.707 199.615 423 175 c 1
 459.683 133.315 506.857 102 579 102 c 0
 715.403 102 791 197.626 791 341 c 0
 791 503.312 695.483 649 574 649 c 0
 541.2 649 529.15 642.896 492 622 c 1
 468 622 456 634 456 658 c 0
 456 698.8 498.1 726 557 726 c 0
 635 726 700.333 680.333 753 589 c 0
 802.333 504.333 827 408.333 827 301 c 0
223 204 m 0
 132.9 204 87 157.004 87 118 c 0
 87 87.3333 111.667 72 161 72 c 0
 240.2 72 305.958 114.798 359 159 c 1
 343.745 171.712 304.6 204 223 204 c 0
EndSplineSet
Fore
SplineSet
827 301 m 4xbfe0
 827 121.411 750.493 -10.6749 590 -8 c 4xbfe0
 552.6 -8 482.068 7.12692 403 131 c 5
 346.865 51.0496 276.063 -8 186 -8 c 4x7fe0
 89.8734 -8 44 45.0531 44 103 c 4
 44 156.2 86.559 236 229 236 c 4
 321.4 236 370.035 199.298 383 191 c 5
 413.667 226.333 429 277 429 343 c 4
 429 443.638 384.236 514 292 514 c 4
 215.762 514 191 470.2 191 441 c 4
 191 410.333 206.667 395 238 395 c 5
 229.122 402.104 228 414.8 228 428 c 4
 228 452.6 247.2 469 276 469 c 260
 295.6 469 325 457.8 325 413 c 4
 325 371.862 288.3 346 250 346 c 4
 186.142 346 157 401.116 157 454 c 4
 157 513.599 191.977 588 282 588 c 4
 403.223 588 464 476.803 464 338 c 4
 464 255.658 441.707 199.615 423 175 c 5
 459.683 133.315 506.857 102 579 102 c 4
 715.403 102 791 197.626 791 341 c 4
 791 503.312 695.483 649 574 649 c 4
 541.2 649 529.15 642.896 492 622 c 5
 468 622 456 634 456 658 c 4
 456 698.8 498.1 726 557 726 c 4
 635 726 700.333 680.333 753 589 c 4
 802.333 504.333 827 408.333 827 301 c 4xbfe0
223 204 m 4
 132.9 204 87 157.004 87 118 c 4
 87 87.3333 111.667 72 161 72 c 4x7fe0
 240.2 72 305.958 114.798 359 159 c 5
 343.745 171.712 304.6 204 223 204 c 4
EndSplineSet
Substitution2: "Single Substitution lookup 15 subtable" u0C96.base
Ligature2: "Ligature Substitution lookup 14 subtable" u0C96 u0CCD
LCarets2: 1 0
EndChar

StartChar: u0C96.base
Encoding: 131 -1 131
Width: 897
Flags: HW
LayerCount: 2
Back
SplineSet
829 295 m 0
 829 384.726 783.756 465.642 705 487 c 1
 508 487 l 1
 508 579 l 1
 661 579 l 1
 799.301 550.123 861 385.379 861 258 c 256
 861 97.1335 776.302 -9 628 -9 c 0
 542.4 -9 466.373 68.8845 414 132 c 1
 389.333 100.667 368.333 77.6667 351 63 c 0
 297 16.3333 242 -7 186 -7 c 0
 89.8734 -7 44 46.0531 44 104 c 0
 44 157.2 86.559 237 229 237 c 0
 290.912 237 339.445 222.032 392 192 c 1
 420.667 225.333 435 273.667 435 337 c 0
 435 440.331 387.487 515 292 515 c 0
 215.762 515 191 471.2 191 442 c 0
 191 411.333 206.667 396 238 396 c 1
 229.122 403.104 228 415.8 228 429 c 0
 228 453.6 247.2 470 276 470 c 256
 295.6 470 325 458.8 325 414 c 0
 325 372.862 288.3 347 250 347 c 0
 186.142 347 157 402.116 157 455 c 0
 157 514.599 191.977 589 282 589 c 0
 405.387 589 469 469.761 469 326 c 0
 469 260 456.667 210 432 176 c 1
 481.608 140.565 547.2 100 624 100 c 0
 762.673 100 829 188.551 829 295 c 0
221 207 m 0
 130.9 207 85 160.004 85 121 c 0
 85 90.3333 109.667 75 159 75 c 0
 242.6 75 320.129 125.176 368 162 c 1
 343.741 178.54 294.519 207 221 207 c 0
EndSplineSet
Fore
SplineSet
829 295 m 0
 829 384.726 772.601 487 691 487 c 2
 508 487 l 1
 508 579 l 1
 642 579 l 2
 783.283 579 861 385.379 861 258 c 256
 861 97.1335 776.302 -9 628 -9 c 0
 542.4 -9 466.373 68.8845 414 132 c 1
 389.333 100.667 368.333 77.6667 351 63 c 0
 297 16.3333 242 -7 186 -7 c 0
 89.8734 -7 44 46.0531 44 104 c 0
 44 157.2 86.559 237 229 237 c 0
 290.912 237 339.445 222.032 392 192 c 1
 420.667 225.333 435 273.667 435 337 c 0
 435 440.331 387.487 515 292 515 c 0
 215.762 515 191 471.2 191 442 c 0
 191 411.333 206.667 396 238 396 c 1
 229.122 403.104 228 415.8 228 429 c 0
 228 453.6 247.2 470 276 470 c 256
 295.6 470 325 458.8 325 414 c 0
 325 372.862 288.3 347 250 347 c 0
 186.142 347 157 402.116 157 455 c 0
 157 514.599 191.977 589 282 589 c 0
 405.387 589 469 469.761 469 326 c 0
 469 260 456.667 210 432 176 c 1
 481.608 140.565 547.2 100 624 100 c 0
 762.673 100 829 188.551 829 295 c 0
221 207 m 0
 130.9 207 85 160.004 85 121 c 0
 85 90.3333 109.667 75 159 75 c 0
 242.6 75 320.129 125.176 368 162 c 1
 343.741 178.54 294.519 207 221 207 c 0
EndSplineSet
EndChar

StartChar: u0C96.imathra
Encoding: 132 -1 132
Width: 897
Flags: HW
LayerCount: 2
Back
SplineSet
611 105 m 0
 777.069 105 819 221.475 819 317 c 0
 819 457.092 736.532 600.97 651 623 c 1
 657.091 608.381 665 573.209 665 553 c 0
 665 519.641 649.508 484 587 484 c 0
 506.408 484 446 568.486 446 640 c 0
 446 673.039 458.2 730 552 730 c 0
 636.667 730 709.333 680.667 770 582 c 0
 826.667 490 855 389 855 279 c 0
 855 112.216 779.673 -5 628 -5 c 0
 542.4 -5 465.98 71.3583 414 134 c 1
 389.333 102.667 368.333 79.6667 351 65 c 0
 297 18.3333 242 -5 186 -5 c 0
 89.8734 -5 44 48.0531 44 106 c 0
 44 159.2 86.559 239 229 239 c 0
 290.912 239 339.445 224.032 392 194 c 1
 420.667 227.333 435 275.667 435 339 c 0
 435 442.331 387.487 517 292 517 c 0
 215.762 517 191 473.2 191 444 c 0
 191 413.333 206.667 398 238 398 c 1
 229.122 405.104 228 417.8 228 431 c 0
 228 455.6 247.2 472 276 472 c 256
 295.6 472 325 460.8 325 416 c 0
 325 374.862 288.3 349 250 349 c 0
 186.142 349 157 404.116 157 457 c 0
 157 516.599 191.977 591 282 591 c 0
 405.387 591 469 471.761 469 328 c 0
 469 262 456.667 212 432 178 c 1
 515.271 106.212 591.233 105 611 105 c 0
563 533 m 256
 594.251 533 630.997 549.532 628 599 c 0
 628 620.766 630.321 651 562 651 c 0
 529.9 651 495 633.4 495 591 c 256
 495 544.6 538.7 533 563 533 c 256
222 207 m 0
 131.9 207 86 160.004 86 121 c 0
 86 90.3333 110.667 75 160 75 c 0
 243.6 75 321.129 125.176 369 162 c 1
 344.741 178.54 295.519 207 222 207 c 0
EndSplineSet
Fore
SplineSet
611 105 m 0
 777.069 105 819 221.475 819 317 c 0
 819 457.092 736.532 600.97 651 623 c 1
 657.091 608.381 665 573.209 665 553 c 0
 665 519.641 649.508 484 587 484 c 0
 506.408 484 446 568.486 446 640 c 0
 446 673.039 458.2 730 552 730 c 0
 636.667 730 709.333 680.667 770 582 c 0
 826.667 490 855 389 855 279 c 0
 855 112.216 779.673 -5 628 -5 c 0
 542.4 -5 465.98 71.3583 414 134 c 1
 389.333 102.667 368.333 79.6667 351 65 c 0
 297 18.3333 242 -5 186 -5 c 0
 89.8734 -5 44 48.0531 44 106 c 0
 44 159.2 86.559 239 229 239 c 0
 290.912 239 339.445 224.032 392 194 c 1
 420.667 227.333 435 275.667 435 339 c 0
 435 442.331 387.487 517 292 517 c 0
 215.762 517 191 473.2 191 444 c 0
 191 413.333 206.667 398 238 398 c 1
 229.122 405.104 228 417.8 228 431 c 0
 228 455.6 247.2 472 276 472 c 256
 295.6 472 325 460.8 325 416 c 0
 325 374.862 288.3 349 250 349 c 0
 186.142 349 157 404.116 157 457 c 0
 157 516.599 191.977 591 282 591 c 0
 405.387 591 469 471.761 469 328 c 0
 469 262 456.667 212 432 178 c 1
 515.271 106.212 591.233 105 611 105 c 0
563 533 m 256
 594.251 533 630.997 549.532 628 599 c 0
 628 620.766 630.321 651 562 651 c 0
 529.9 651 495 633.4 495 591 c 256
 495 544.6 538.7 533 563 533 c 256
222 207 m 0
 131.9 207 86 160.004 86 121 c 0
 86 90.3333 110.667 75 160 75 c 0
 243.6 75 321.129 125.176 369 162 c 1
 344.741 178.54 295.519 207 222 207 c 0
EndSplineSet
Ligature2: "'abvs' Above Base Substitutions in Kannada lookup 11 subtable" u0C96 u0CBF
LCarets2: 1 0
EndChar

StartChar: u0C96.sub
Encoding: 133 -1 133
Width: 237
Flags: HW
LayerCount: 2
Back
SplineSet
70 102 m 1
 77.458 115.052 86.9536 121.997 109 123 c 0
 173.8 123 217 -32.625 217 -160 c 0
 217 -280.842 184.738 -388 85 -388 c 0
 13.5605 -388 -20.951 -349.491 -67 -306 c 1
 -105.765 -378.685 -170.535 -388 -205 -388 c 0
 -292.6 -388 -317 -340 -317 -308 c 0
 -317 -274 -290.413 -223 -200 -223 c 0
 -151.2 -223 -114.886 -238.653 -78 -265 c 1
 -54.5998 -241.601 -48 -195.4 -48 -178 c 0
 -48 -144.225 -62.6 -89 -121 -89 c 0
 -146.765 -89 -158.658 -108.051 -156 -124 c 1
 -150.2 -118.2 -145.149 -117 -134 -117 c 0
 -112.667 -117 -102 -127 -102 -147 c 0
 -102 -167.918 -118.023 -184 -145 -184 c 0
 -173.2 -184 -192 -163.2 -192 -132 c 0
 -192 -97.2886 -170.198 -57 -121 -57 c 0
 -67.6745 -57 -24 -108.929 -24 -181 c 0
 -24 -225.59 -35.3567 -251.955 -52 -279 c 1
 -30.894 -295.415 11 -319 53 -319 c 0
 137.692 -319 184 -250.453 184 -159 c 0
 184 -63.7279 133.783 33.6609 70 102 c 1
-200 -255 m 0
 -250.46 -255 -284 -275.612 -284 -297 c 0
 -284 -321.667 -258 -334 -206 -334 c 0
 -140.6 -334 -112.707 -306.952 -97 -289 c 1
 -148.49 -253.603 -189.814 -255 -200 -255 c 0
EndSplineSet
Fore
SplineSet
70 102 m 1
 77.458 115.052 86.9536 121.997 109 123 c 0
 173.8 123 217 -32.625 217 -160 c 0
 217 -280.842 184.738 -388 85 -388 c 0
 13.5605 -388 -20.951 -349.491 -67 -306 c 1
 -105.765 -378.685 -170.535 -388 -205 -388 c 0
 -292.6 -388 -317 -340 -317 -308 c 0
 -317 -274 -290.413 -223 -200 -223 c 0
 -151.2 -223 -114.886 -238.653 -78 -265 c 1
 -54.5998 -241.601 -48 -195.4 -48 -178 c 0
 -48 -144.225 -62.6 -89 -121 -89 c 0
 -146.765 -89 -158.658 -108.051 -156 -124 c 1
 -150.2 -118.2 -145.149 -117 -134 -117 c 0
 -112.667 -117 -102 -127 -102 -147 c 0
 -102 -167.918 -118.023 -184 -145 -184 c 0
 -173.2 -184 -192 -163.2 -192 -132 c 0
 -192 -97.2886 -170.198 -57 -121 -57 c 0
 -67.6745 -57 -24 -108.929 -24 -181 c 0
 -24 -225.59 -35.3567 -251.955 -52 -279 c 1
 -30.894 -295.415 11 -319 53 -319 c 0
 137.692 -319 184 -250.453 184 -159 c 0
 184 -63.7279 133.783 33.6609 70 102 c 1
-200 -255 m 0
 -250.46 -255 -284 -275.612 -284 -297 c 0
 -284 -321.667 -258 -334 -206 -334 c 0
 -140.6 -334 -112.707 -306.952 -97 -289 c 1
 -148.49 -253.603 -189.814 -255 -200 -255 c 0
EndSplineSet
Position2: "SubMove-1" dx=-100 dy=0 dh=0 dv=0
Ligature2: "'blwf' Below Base Forms in Kannada lookup 5 subtable" u0C96 u0CCD
LCarets2: 1 0
EndChar

StartChar: u0C97
Encoding: 134 3223 134
Width: 667
Flags: W
HStem: 486 92<54 223 262.798 411.319 450 519.61>
VStem: 54 91<-2 244.384> 514 93<-2 252.332> 552 55<609.861 722.781>
LayerCount: 2
Back
SplineSet
55 -2 m 1
 55 224.553 86.1352 393.695 223 486 c 1
 54 486 l 1
 54 578 l 1
 445 578 l 2
 533.207 578 552 635.32 552 672 c 0
 552 736.2 509.512 768.495 487 779 c 1
 518 798 l 1
 563.314 777.284 607 704.529 607 629 c 0
 607 547.261 543.865 486 471 486 c 2
 450 486 l 1
 583.366 393.913 609.139 223.715 607 -2 c 1
 514 -2 l 1
 514 301.95 478.8 489 338 489 c 0
 209.333 489 145 326 145 -2 c 1
 55 -2 l 1
EndSplineSet
Fore
SplineSet
55 -2 m 1xe0
 55 224.553 86.1352 393.695 223 486 c 1
 54 486 l 1
 54 578 l 1
 445 578 l 2
 533.207 578 552 635.32 552 672 c 0
 552 736.2 509.512 768.495 487 779 c 1
 518 798 l 1
 563.314 777.284 607 704.529 607 629 c 0xd0
 607 547.261 543.865 486 471 486 c 2
 450 486 l 1
 583.366 393.913 609.139 223.715 607 -2 c 1
 514 -2 l 1
 514 301.95 478.8 489 338 489 c 0
 209.333 489 145 326 145 -2 c 1
 55 -2 l 1xe0
EndSplineSet
Substitution2: "Single Substitution lookup 15 subtable" u0C97.base
Ligature2: "Ligature Substitution lookup 14 subtable" u0C97 u0CCD
LCarets2: 1 0
EndChar

StartChar: u0C97.base
Encoding: 135 -1 135
Width: 653
Flags: HW
LayerCount: 2
Back
SplineSet
55 -2 m 1
 55 224.553 86.1352 393.695 223 486 c 1
 54 486 l 1
 54 578 l 1
 472 578 l 1
 472 486 l 1
 450 486 l 1
 583.366 393.913 609.139 223.715 607 -2 c 1
 514 -2 l 1
 514 303.6 478.8 489 338 489 c 0
 209.333 489 145 326 145 -2 c 1
 55 -2 l 1
EndSplineSet
Fore
SplineSet
55 -2 m 1
 55 224.553 86.1352 393.695 223 486 c 1
 54 486 l 1
 54 578 l 1
 472 578 l 1
 472 486 l 1
 450 486 l 1
 583.366 393.913 609.139 223.715 607 -2 c 1
 514 -2 l 1
 514 303.6 478.8 489 338 489 c 0
 209.333 489 145 326 145 -2 c 1
 55 -2 l 1
EndSplineSet
EndChar

StartChar: u0C97.imathra
Encoding: 136 -1 136
Width: 642
Flags: HW
LayerCount: 2
Back
SplineSet
89 600 m 0
 89 666.6 152.175 711 240 711 c 0
 332 711 412.333 673.333 481 598 c 0
 565.667 506 606.414 376.325 608 209 c 2
 610 -2 l 1
 519 -2 l 1
 519 265.175 480.8 499 328 499 c 0
 172 499 133 253.225 133 -2 c 1
 42 -2 l 1
 42 131 l 2
 42 339.8 111.619 412.637 194 479 c 1
 171.476 484.631 89 503.2 89 600 c 0
234 503 m 1
 289.859 527.576 324.971 526 335 526 c 0
 421.8 526 493.047 474.32 552 383 c 1
 534 448 l 0
 470.594 602.556 359.279 639 266 639 c 0
 182.5 639 170 598.8 170 572 c 256
 170 525.666 204.491 513.263 234 503 c 1
EndSplineSet
Fore
SplineSet
89 600 m 0
 89 666.6 152.175 711 240 711 c 0
 332 711 412.333 673.333 481 598 c 0
 565.667 506 606.414 376.325 608 209 c 2
 610 -2 l 1
 519 -2 l 1
 519 265.175 480.8 499 328 499 c 0
 172 499 133 253.225 133 -2 c 1
 42 -2 l 1
 42 131 l 2
 42 339.8 111.619 412.637 194 479 c 1
 171.476 484.631 89 503.2 89 600 c 0
234 503 m 1
 289.859 527.576 324.971 526 335 526 c 0
 421.8 526 493.047 474.32 552 383 c 1
 534 448 l 0
 470.594 602.556 359.279 639 266 639 c 0
 182.5 639 170 598.8 170 572 c 256
 170 525.666 204.491 513.263 234 503 c 1
EndSplineSet
Ligature2: "'abvs' Above Base Substitutions in Kannada lookup 11 subtable" u0C97 u0CBF
LCarets2: 1 0
EndChar

StartChar: u0C97.sub
Encoding: 137 -1 137
Width: 237
Flags: HW
LayerCount: 2
Back
SplineSet
-11 -84 m 0
 -134.85 -84 -157 -226.037 -157 -375 c 1
 -239 -375 l 1
 -239 -215.249 -151.438 -58 -19 -58 c 0
 126.877 -58 216.616 -206.289 218 -375 c 1
 132 -375 l 1
 144.275 -221.525 73.4937 -84 -11 -84 c 0
EndSplineSet
Fore
SplineSet
-11 -84 m 4
 -134.85 -84 -157 -226.037 -157 -375 c 5
 -239 -375 l 5
 -239 -215.249 -151.438 -58 -19 -58 c 4
 126.877 -58 216.616 -206.289 218 -375 c 5
 132 -375 l 5
 144.275 -221.525 73.4937 -84 -11 -84 c 4
EndSplineSet
Position2: "SubMove-1" dx=-100 dy=0 dh=0 dv=0
Ligature2: "'blwf' Below Base Forms in Kannada lookup 5 subtable" u0C97 u0CCD
LCarets2: 1 0
EndChar

StartChar: u0C98
Encoding: 138 3224 138
Width: 823
Flags: W
HStem: -15 102<134.59 291.292 472.341 621.591> 159 15<189.274 196.784> 251 62<702.86 784.454> 290 53<102.778 212.301> 309 124<327.545 420.605> 484 92<47 688.536>
VStem: 45 34<143.717 258.57> 227 54<187.321 274.911> 319 120<-191.014 -73.2677 326.325 414.675> 669 36<138.087 274.261> 723 55<607.861 720.781> 789 58<315.18 408.235>
LayerCount: 2
Back
SplineSet
1 2 m 1
 2 2 l 1
 1 2 l 1
1 2 m 1
 2 2 l 1
 1 2 l 1
755 432 m 1
 747 456 776 472 793 456 c 1
 829 412.667 847 371.667 847 333 c 0
 847 300.2 831.8 251 771 251 c 0
 741.4 251 716.165 264.022 697 276 c 1
 702.333 252 705 226 705 198 c 0
 705 75.7437 650.893 -15 542 -15 c 0
 443.31 -15 382.272 106.079 377 115 c 1
 360.587 80.611 318.449 -15 213 -15 c 0
 100.296 -15 45 90.619 45 198 c 0
 45 314 129.169 343 174 343 c 0
 224.322 343 281 309.376 281 234 c 0
 281 188.558 244.02 159 213 159 c 0
 200.333 159 189 164 179 174 c 1
 203.378 181.617 227 197.2 227 232 c 0
 227 266.8 197.55 290 157 290 c 0
 123.575 290 79 268.3 79 201 c 0
 79 143.067 124.595 87 211 87 c 0
 251.667 87 286.667 100.333 316 127 c 0
 354.667 162.333 365 192 374 220 c 1
 391.54 186.445 441.386 87 544 87 c 0
 643.371 87 669 155.316 669 202 c 0
 669 307.512 583 329.083 583 381 c 0
 583 397.2 595.8 408 615 408 c 0
 666.055 408 660 316 715 313 c 0
 715.002 313 790 290 789 360 c 0
 788.794 374.399 784.487 396.307 755 432 c 1
378 12 m 1
 385.716 -3.8001 437.403 -113.07 439 -145 c 1
 439 -184.64 411.747 -206 379 -206 c 0
 359.575 -206 319 -193.8 319 -145 c 0
 319 -113.6 370.367 -3.99242 378 12 c 1
370 433 m 0
 401.775 433 438 408.6 438 372 c 0
 438 334.2 407.65 309 370 309 c 0
 346.825 309 309.794 321.579 314 371 c 0
 318 418 346.825 433 370 433 c 0
723 670 m 0
 723 734.2 680.512 766.495 658 777 c 1
 689 796 l 1
 734.314 775.284 778 702.529 778 627 c 0
 778 545.261 722.5 484 637 484 c 2
 47 484 l 1
 47 576 l 1
 616 576 l 2
 704.207 576 723 633.32 723 670 c 0
EndSplineSet
Fore
SplineSet
1 2 m 1xc7f0
 2 2 l 1
 1 2 l 1xc7f0
1 2 m 1
 2 2 l 1
 1 2 l 1
755 432 m 1
 747 456 776 472 793 456 c 1
 829 412.667 847 371.667 847 333 c 0
 847 300.2 831.8 251 771 251 c 0xe7f0
 741.4 251 716.165 264.022 697 276 c 1
 702.333 252 705 226 705 198 c 0
 705 75.7437 650.893 -15 542 -15 c 0
 443.31 -15 382.272 106.079 377 115 c 1
 360.587 80.611 318.449 -15 213 -15 c 0
 100.296 -15 45 90.619 45 198 c 0
 45 314 129.169 343 174 343 c 0
 224.322 343 281 309.376 281 234 c 0
 281 188.558 244.02 159 213 159 c 0
 200.333 159 189 164 179 174 c 1
 203.378 181.617 227 197.2 227 232 c 0
 227 266.8 197.55 290 157 290 c 0xd7f0
 123.575 290 79 268.3 79 201 c 0
 79 143.067 124.595 87 211 87 c 0
 251.667 87 286.667 100.333 316 127 c 0
 354.667 162.333 365 192 374 220 c 1
 391.54 186.445 441.386 87 544 87 c 0
 643.371 87 669 155.316 669 202 c 0
 669 307.512 583 329.083 583 381 c 0
 583 397.2 595.8 408 615 408 c 0
 666.055 408 660 316 715 313 c 0xe7f0
 715.002 313 790 290 789 360 c 0
 788.794 374.399 784.487 396.307 755 432 c 1
378 12 m 1
 385.716 -3.8001 440 -105 439 -145 c 0
 438.166 -178.359 411.747 -206 379 -206 c 0
 359.575 -206 319 -193.8 319 -145 c 0
 319 -113.6 370.367 -3.99242 378 12 c 1
370 433 m 0xcff0
 401.775 433 438 408.6 438 372 c 0
 438 334.2 407.65 309 370 309 c 0
 346.825 309 309.794 321.579 314 371 c 0
 318 418 346.825 433 370 433 c 0xcff0
723 670 m 0
 723 734.2 680.512 766.495 658 777 c 1
 689 796 l 1
 734.314 775.284 778 702.529 778 627 c 0
 778 545.261 722.5 484 637 484 c 2
 47 484 l 1
 47 576 l 1
 616 576 l 2
 704.207 576 723 633.32 723 670 c 0
EndSplineSet
Substitution2: "Single Substitution lookup 15 subtable" u0C98.base
Ligature2: "Ligature Substitution lookup 14 subtable" u0C98 u0CCD
LCarets2: 1 0
EndChar

StartChar: u0C98.base
Encoding: 139 -1 139
Width: 809
Flags: HW
LayerCount: 2
Back
SplineSet
370 433 m 0
 401.775 433 438 408.6 438 372 c 0
 438 334.2 407.65 309 370 309 c 0
 346.825 309 309.794 321.579 314 371 c 256
 318 418 346.825 433 370 433 c 0
378 12 m 1
 385.716 -3.8001 437.403 -113.07 439 -145 c 1
 439 -184.64 411.747 -206 379 -206 c 0
 359.575 -206 319 -193.8 319 -145 c 0
 319 -113.6 370.367 -3.99242 378 12 c 1
621 484 m 1
 47 484 l 1
 47 576 l 1
 621 576 l 1
 621 484 l 1
755 432 m 1
 747 456 776 472 793 456 c 1
 829 412.667 847 371.667 847 333 c 0
 847 300.2 831.8 251 771 251 c 0
 741.4 251 716.165 264.022 697 276 c 1
 702.333 252 705 226 705 198 c 0
 705 75.7437 650.893 -15 542 -15 c 0
 443.31 -15 382.272 106.079 377 115 c 1
 360.587 80.611 318.449 -15 213 -15 c 0
 100.296 -15 45 90.619 45 198 c 0
 45 314 129.169 343 174 343 c 0
 224.322 343 281 309.376 281 234 c 0
 281 188.558 244.02 159 213 159 c 0
 200.333 159 189 164 179 174 c 1
 203.378 181.617 227 197.2 227 232 c 0
 227 266.8 197.55 290 157 290 c 0
 123.575 290 79 268.3 79 201 c 0
 79 143.067 124.595 87 211 87 c 0
 251.667 87 286.667 100.333 316 127 c 0
 354.667 162.333 365 192 374 220 c 1
 391.54 186.445 441.386 87 544 87 c 0
 643.371 87 669 155.316 669 202 c 0
 669 307.512 583 329.083 583 381 c 0
 583 397.2 595.8 408 615 408 c 0
 666.055 408 660 316 715 313 c 0
 715.002 313 790 290 789 360 c 0
 788.794 374.399 784.487 396.307 755 432 c 1
EndSplineSet
Fore
SplineSet
370 433 m 0
 401.775 433 438 408.6 438 372 c 0
 438 334.2 407.65 309 370 309 c 0
 346.825 309 309.794 321.579 314 371 c 256
 318 418 346.825 433 370 433 c 0
378 12 m 1
 385.716 -3.8001 430 -84 439 -145 c 0
 443.871 -178.012 411.747 -206 379 -206 c 0
 359.575 -206 319 -193.8 319 -145 c 0
 319 -113.6 370.367 -3.99242 378 12 c 1
621 484 m 1
 47 484 l 1
 47 576 l 1
 621 576 l 1
 621 484 l 1
755 432 m 0
 741.613 450.487 776.72 472.732 793 456 c 0
 829 419 847 371.667 847 333 c 0
 847 300.2 831.8 251 771 251 c 0
 741.4 251 716.165 264.022 697 276 c 1
 702.333 252 705 226 705 198 c 0
 705 75.7437 650.893 -15 542 -15 c 0
 443.31 -15 382.272 106.079 377 115 c 1
 360.587 80.611 318.449 -15 213 -15 c 0
 100.296 -15 45 90.619 45 198 c 0
 45 314 129.169 343 174 343 c 0
 224.322 343 281 309.376 281 234 c 0
 281 188.558 244.02 159 213 159 c 0
 200.333 159 189 164 179 174 c 1
 203.378 181.617 227 197.2 227 232 c 0
 227 266.8 197.55 290 157 290 c 0
 123.575 290 79 268.3 79 201 c 0
 79 143.067 124.595 87 211 87 c 0
 251.667 87 286.667 100.333 316 127 c 0
 354.667 162.333 365 192 374 220 c 1
 391.54 186.445 441.386 87 544 87 c 0
 643.371 87 669 155.316 669 202 c 0
 669 307.512 583 329.083 583 381 c 0
 583 397.2 595.8 408 615 408 c 0
 666.055 408 660 316 715 313 c 0
 715.002 313 789 289.993 789 360 c 0
 789 381 776 403 755 432 c 0
EndSplineSet
EndChar

StartChar: u0C98.imathra
Encoding: 140 -1 140
Width: 921
Flags: HW
LayerCount: 2
Back
SplineSet
317 402 m 0
 366.805 402 420 441.841 420 497 c 0
 420 513.667 414.667 530.333 404 547 c 1
 394.098 531.818 360.8 477 296 477 c 0
 223.516 477 192 537.819 192 585 c 0
 192 638.077 225.534 685 293 685 c 0
 393.814 685 452 582.517 452 494 c 0
 452 438.394 426.2 357 323 357 c 0
 276.624 357 234 389.089 234 430 c 0
 234 438.693 239.628 444.101 247 450 c 1
 259.053 422.605 280.65 402 317 402 c 0
883 365 m 0
 883 208.32 752.948 231.222 697 277 c 1
 702.333 253 705 227 705 199 c 0
 705 76.7437 650.893 -14 542 -14 c 0
 443.31 -14 382.272 107.079 377 116 c 1
 360.587 81.611 318.449 -14 213 -14 c 0
 100.296 -14 45 91.619 45 199 c 0
 45 315 129.169 344 174 344 c 0
 224.322 344 281 310.376 281 235 c 0
 281 189.558 244.02 160 213 160 c 0
 200.333 160 189 165 179 175 c 1
 203.378 182.617 227 198.2 227 233 c 0
 227 267.8 197.55 291 157 291 c 0
 123.575 291 79 269.3 79 202 c 0
 79 144.067 124.595 88 211 88 c 0
 251.667 88 286.667 101.333 316 128 c 0
 354.667 163.333 374 194.333 374 221 c 1
 391.54 187.445 441.386 88 544 88 c 0
 634.926 88 675 148.975 675 206 c 0
 675 228.373 667.478 288.332 600 345.5 c 0
 576 365.833 564 384.333 564 401 c 0
 564 421.081 581.536 435 598 435 c 0
 674.799 435 663.504 314 761 314 c 0
 815.4 314 829 356.9 829 394 c 0
 829 462.4 786.209 531.527 736 565 c 0
 713.695 580.334 713.157 613 741 613 c 0
 771.741 613 883 502.03 883 365 c 0
376 10 m 1
 383.716 -5.8001 435.403 -115.07 437 -147 c 1
 437 -186.64 409.747 -208 377 -208 c 0
 357.575 -208 317 -195.8 317 -147 c 0
 317 -115.6 368.367 -5.99242 376 10 c 1
238 546 m 0
 238 527.2 245.087 499 294 499 c 0
 352.342 499 371.265 547.872 382 579 c 1
 366.662 602.008 342.82 615 311 615 c 256
 264.612 615 238 579.188 238 546 c 0
EndSplineSet
Fore
SplineSet
317 402 m 0
 366.805 402 420 441.841 420 497 c 0
 420 513.667 414.667 530.333 404 547 c 1
 394.098 531.818 360.8 477 296 477 c 0
 223.516 477 192 537.819 192 585 c 0
 192 638.077 225.534 685 293 685 c 0
 393.814 685 452 582.517 452 494 c 0
 452 438.394 426.2 357 323 357 c 0
 276.624 357 234 389.089 234 430 c 0
 234 438.693 239.628 444.101 247 450 c 1
 259.053 422.605 280.65 402 317 402 c 0
883 365 m 0
 883 208.32 752.948 231.222 697 277 c 1
 702.333 253 705 227 705 199 c 0
 705 76.7437 650.893 -14 542 -14 c 0
 443.31 -14 382.272 107.079 377 116 c 1
 360.587 81.611 318.449 -14 213 -14 c 0
 100.296 -14 45 91.619 45 199 c 0
 45 315 129.169 344 174 344 c 0
 224.322 344 281 310.376 281 235 c 0
 281 189.558 244.02 160 213 160 c 0
 200.333 160 189 165 179 175 c 1
 203.378 182.617 227 198.2 227 233 c 0
 227 267.8 197.55 291 157 291 c 0
 123.575 291 79 269.3 79 202 c 0
 79 144.067 124.595 88 211 88 c 0
 312.385 88 374 183.289 374 221 c 1
 391.54 187.445 441.386 88 544 88 c 0
 634.926 88 675 148.975 675 206 c 0
 675 228.373 667.478 288.332 600 345.5 c 0
 535.334 400.286 572.953 435 598 435 c 0
 674.799 435 663.504 314 761 314 c 0
 815.4 314 829 356.9 829 394 c 0
 829 462.4 786.209 531.527 736 565 c 0
 713.695 580.334 713.157 613 741 613 c 0
 771.741 613 883 502.03 883 365 c 0
376 10 m 1
 383.716 -5.8001 430 -91 437 -147 c 0
 441.139 -180.112 409.747 -208 377 -208 c 0
 357.575 -208 317 -195.8 317 -147 c 0
 317 -115.6 368.367 -5.99242 376 10 c 1
238 546 m 0
 238 527.2 245.087 499 294 499 c 0
 352.342 499 371.265 547.872 382 579 c 1
 366.662 602.008 342.82 615 311 615 c 256
 264.612 615 238 579.188 238 546 c 0
EndSplineSet
Ligature2: "'abvs' Above Base Substitutions in Kannada lookup 11 subtable" u0C98 u0CBF
LCarets2: 1 0
EndChar

StartChar: u0C98.sub
Encoding: 141 -1 141
Width: 292
Flags: HW
LayerCount: 2
Back
SplineSet
277 -59 m 0
 277 -99.311 260.055 -128 221 -128 c 0
 197.4 -128 170.443 -110.822 162 -99 c 1
 166.667 -115.667 169 -136 169 -160 c 0
 169 -232.827 144.866 -294 82 -294 c 0
 7 -294 -27.3422 -208.535 -43 -172 c 1
 -58.9978 -216.794 -89.8598 -294 -170 -294 c 0
 -236.4 -294 -253 -231.925 -253 -194 c 0
 -253 -146.109 -226.704 -93 -170 -93 c 0
 -136.085 -93 -111 -117.249 -111 -147 c 0
 -111 -184.277 -139.183 -183.37 -148 -184 c 1
 -140 -176.667 -136 -167.667 -136 -157 c 0
 -136 -133.667 -148.333 -122 -173 -122 c 0
 -202.4 -122 -222 -146.075 -222 -173 c 0
 -222 -193.4 -212.15 -224 -160 -224 c 0
 -91.6 -224 -62.3171 -165.852 -46 -108 c 1
 -30.4393 -158.572 -1.59961 -224 65 -224 c 0
 114.242 -224 141 -187.152 141 -141 c 0
 141 -101 124.433 -67.7805 94 -41 c 0
 83.3423 -31.6744 80.3716 -7 102 -7 c 0
 141.261 -7 141.173 -64.5891 176 -82 c 0
 207.987 -97.9933 250 -94.935 250 -50 c 0
 250 -16 228.333 19.6667 185 57 c 1
 192.04 60.5196 201 61 205 61 c 0
 243.772 52.9781 277 -4.68862 277 -59 c 0
-16 -357 m 0
 -9.49419 -376.053 -23 -397 -47 -397 c 0
 -70.3333 -397 -82 -382.667 -82 -354 c 0
 -82 -347.119 -54.1603 -285.621 -50 -276 c 1
 -43 -287 -30 -316 -16 -357 c 0
EndSplineSet
Fore
SplineSet
277 -59 m 4
 277 -99.311 260.055 -128 221 -128 c 4
 197.4 -128 170.443 -110.822 162 -99 c 5
 166.667 -115.667 169 -136 169 -160 c 4
 169 -232.827 144.866 -294 82 -294 c 4
 7 -294 -27.3422 -208.535 -43 -172 c 5
 -58.9978 -216.794 -89.8598 -294 -170 -294 c 4
 -236.4 -294 -253 -231.925 -253 -194 c 4
 -253 -146.109 -226.704 -93 -170 -93 c 4
 -136.085 -93 -111 -117.249 -111 -147 c 4
 -111 -184.277 -139.183 -183.37 -148 -184 c 5
 -140 -176.667 -136 -167.667 -136 -157 c 4
 -136 -133.667 -148.333 -122 -173 -122 c 4
 -202.4 -122 -222 -146.075 -222 -173 c 4
 -222 -193.4 -212.15 -224 -160 -224 c 4
 -91.6 -224 -62.3171 -165.852 -46 -108 c 5
 -30.4393 -158.572 -1.59961 -224 65 -224 c 4
 114.242 -224 141 -187.152 141 -141 c 4
 141 -101 124.433 -67.7805 94 -41 c 4
 83.3423 -31.6744 80.3716 -7 102 -7 c 4
 141.261 -7 141.173 -64.5891 176 -82 c 4
 207.987 -97.9933 250 -94.935 250 -50 c 4
 250 -16 228.333 19.6667 185 57 c 5
 192.04 60.5196 201 61 205 61 c 4
 243.772 52.9781 277 -4.68862 277 -59 c 4
-16 -357 m 4
 -9.49419 -376.053 -23 -397 -47 -397 c 4
 -70.3333 -397 -82 -382.667 -82 -354 c 4
 -82 -347.119 -54.1603 -285.621 -50 -276 c 5
 -43 -287 -30 -316 -16 -357 c 4
EndSplineSet
Position2: "SubMove-1" dx=-100 dy=0 dh=0 dv=0
Ligature2: "'blwf' Below Base Forms in Kannada lookup 5 subtable" u0C98 u0CCD
LCarets2: 1 0
EndChar

StartChar: u0C99
Encoding: 142 3225 142
Width: 800
Flags: HW
LayerCount: 2
Back
SplineSet
574 608 m 256
 686.721 608 749 544.892 749 458 c 0
 749 393.495 710.136 344.518 680 355 c 1
 688.569 375.569 695 396.179 695 420 c 0
 695 480.6 652.575 521 546 521 c 0
 484 521 422.667 498.333 362 453 c 0
 130.001 276.994 130 212.725 130 185 c 256
 130 105.8 204.262 86 249 86 c 0
 325.296 86 370.952 145.61 405 237 c 1
 439.42 146.425 489.16 86 570 86 c 0
 669.713 86 699 144.8 699 182 c 0
 699 228 668 260.667 606 280 c 1
 612.717 288.394 620.464 295.316 639 293 c 0
 739.045 284.068 753 196.035 753 158 c 0
 753 79.2508 700.577 -14 590 -14 c 0
 477.8 -14 425.769 87.4638 403 133 c 1
 393.341 115.408 331.4 -14 224 -14 c 0
 132.142 -14 61 57.8797 61 144 c 0
 61 201.333 91.5 255.833 152.5 307.5 c 0
 213.5 359.167 244 399 244 427 c 0
 244 472.523 209.519 497 172 497 c 0
 150.175 497 106 484.8 106 436 c 0
 106 401.2 138.702 387.593 162 378 c 1
 154.667 370.667 145 367 133 367 c 0
 92.0992 367 40 405.965 40 477 c 0
 40 558.55 107.537 600 169 600 c 0
 237.383 600 303 552.313 303 455 c 1
 372.714 526.109 465.6 608 574 608 c 256
448 433 m 0
 479.775 433 516 408.6 516 372 c 0
 516 334.2 485.65 309 448 309 c 0
 424.825 309 392 321.4 392 371 c 256
 392 420.6 424.825 433 448 433 c 0
EndSplineSet
Fore
SplineSet
574 608 m 260
 686.721 608 749 544.892 749 458 c 4
 749 393.495 710.136 344.518 680 355 c 5
 688.569 375.569 695 396.179 695 420 c 4
 695 480.6 652.575 521 546 521 c 4
 484 521 422.667 498.333 362 453 c 4
 130.001 276.994 130 212.725 130 185 c 260
 130 105.8 204.262 86 249 86 c 4
 325.296 86 370.952 145.61 405 237 c 5
 439.42 146.425 489.16 86 570 86 c 4
 669.713 86 699 144.8 699 182 c 4
 699 228 668 260.667 606 280 c 5
 612.717 288.394 620.464 295.316 639 293 c 4
 739.045 284.068 753 196.035 753 158 c 4
 753 79.2508 700.577 -14 590 -14 c 4
 477.8 -14 425.769 87.4638 403 133 c 5
 393.341 115.408 331.4 -14 224 -14 c 4
 132.142 -14 61 57.8797 61 144 c 4
 61 201.333 91.5 255.833 152.5 307.5 c 4
 213.5 359.167 244 399 244 427 c 4
 244 472.523 209.519 497 172 497 c 4
 150.175 497 106 484.8 106 436 c 4
 106 401.2 138.702 387.593 162 378 c 5
 154.667 370.667 145 367 133 367 c 4
 92.0992 367 40 405.965 40 477 c 4
 40 558.55 107.537 600 169 600 c 4
 237.383 600 303 552.313 303 455 c 5
 372.714 526.109 465.6 608 574 608 c 260
448 433 m 4
 479.775 433 516 408.6 516 372 c 4
 516 334.2 485.65 309 448 309 c 4
 424.825 309 392 321.4 392 371 c 260
 392 420.6 424.825 433 448 433 c 4
EndSplineSet
Ligature2: "Ligature Substitution lookup 14 subtable" u0C99 u0CCD
LCarets2: 1 0
EndChar

StartChar: u0C99.sub
Encoding: 143 -1 143
Width: 251
Flags: HW
LayerCount: 2
Back
SplineSet
-39 -210 m 0
 -39 -182.8 -20.9 -176 -6 -176 c 0
 17.3333 -176 28.6667 -187.333 28 -210 c 0
 28 -230.4 10.4 -244 -7 -244 c 0
 -28.3333 -244 -39 -232.667 -39 -210 c 0
87 -81 m 0
 155.4 -81 201 -114.6 201 -165 c 0
 201 -187 191.333 -200.667 172 -206 c 0
 166 -206.667 156 -207 142 -207 c 1
 147.949 -159.418 102.931 -143 53 -143 c 0
 -81.9918 -143 -177 -233.6 -177 -294 c 0
 -177 -316.2 -161.404 -331 -122 -331 c 0
 -63.7104 -331 -22.0211 -283.737 -4 -264 c 1
 31.1473 -306.546 66.2148 -331 115 -331 c 0
 160.1 -331 174 -317.2 174 -292 c 256
 174 -258.452 137.005 -240.003 137 -240 c 1
 213 -240 232 -293.975 232 -326 c 256
 232 -368.055 203.923 -408 143 -408 c 0
 53.5996 -408 7.11318 -326.104 -6 -303 c 1
 -50.8717 -360.692 -102.538 -408 -166 -408 c 0
 -218.314 -408 -255 -374.895 -255 -327 c 0
 -255 -230.455 -140 -235.03 -140 -157 c 0
 -140 -121.8 -165.6 -113 -179 -113 c 0
 -202.333 -113 -214 -125.333 -214 -150 c 0
 -214 -181.2 -191.052 -185.645 -183 -189 c 1
 -189 -193.667 -196 -196 -204 -196 c 0
 -224.4 -196 -255 -184.8 -255 -140 c 0
 -255 -99.8 -222.012 -73 -183 -73 c 256
 -156.025 -73 -111 -87.6 -111 -146 c 2
 -111 -167 l 1
 -17.1998 -86.3308 68.0196 -81 87 -81 c 0
EndSplineSet
Fore
SplineSet
-39 -210 m 4
 -39 -182.8 -20.9 -176 -6 -176 c 4
 17.3333 -176 28.6667 -187.333 28 -210 c 4
 28 -230.4 10.4 -244 -7 -244 c 4
 -28.3333 -244 -39 -232.667 -39 -210 c 4
87 -81 m 4
 155.4 -81 201 -114.6 201 -165 c 4
 201 -187 191.333 -200.667 172 -206 c 4
 166 -206.667 156 -207 142 -207 c 5
 147.949 -159.418 102.931 -143 53 -143 c 4
 -81.9918 -143 -177 -233.6 -177 -294 c 4
 -177 -316.2 -161.404 -331 -122 -331 c 4
 -63.7104 -331 -22.0211 -283.737 -4 -264 c 5
 31.1473 -306.546 66.2148 -331 115 -331 c 4
 160.1 -331 174 -317.2 174 -292 c 260
 174 -258.452 137.005 -240.003 137 -240 c 5
 213 -240 232 -293.975 232 -326 c 260
 232 -368.055 203.923 -408 143 -408 c 4
 53.5996 -408 7.11318 -326.104 -6 -303 c 5
 -50.8717 -360.692 -102.538 -408 -166 -408 c 4
 -218.314 -408 -255 -374.895 -255 -327 c 4
 -255 -230.455 -140 -235.03 -140 -157 c 4
 -140 -121.8 -165.6 -113 -179 -113 c 4
 -202.333 -113 -214 -125.333 -214 -150 c 4
 -214 -181.2 -191.052 -185.645 -183 -189 c 5
 -189 -193.667 -196 -196 -204 -196 c 4
 -224.4 -196 -255 -184.8 -255 -140 c 4
 -255 -99.8 -222.012 -73 -183 -73 c 260
 -156.025 -73 -111 -87.6 -111 -146 c 6
 -111 -167 l 5
 -17.1998 -86.3308 68.0196 -81 87 -81 c 4
EndSplineSet
Position2: "SubMove-1" dx=-100 dy=0 dh=0 dv=0
Ligature2: "'blwf' Below Base Forms in Kannada lookup 5 subtable" u0C99 u0CCD
LCarets2: 1 0
EndChar

StartChar: u0C9A
Encoding: 144 3226 144
Width: 803
Flags: HW
LayerCount: 2
Back
SplineSet
697 675 m 0
 697 739.2 654.512 771.495 632 782 c 1
 663 801 l 1
 708.314 780.284 752 707.529 752 632 c 0
 752 564.761 718.804 522.63 667.537 500.543 c 1
 691.921 471.651 704.733 443.921 692 421 c 1
 752 421 l 1
 752 321 l 1
 662 321 l 1
 715.105 280.595 754 222.2 754 157 c 0
 754 66.5625 681.648 -13 594 -13 c 0
 479.55 -13 426.886 91.9303 410 123 c 1
 401.54 109.288 332.946 -13 225 -13 c 0
 132.6 -13 71 61.0148 71 146 c 0
 71 203.333 102.833 257.833 166.5 309.5 c 0
 230.167 361.167 262 401 262 429 c 0
 262 489 214.525 504 186 504 c 0
 148.113 504 115 479.125 115 439 c 0
 115 392.6 153.742 385.073 168 381 c 1
 160.667 373.667 151 370 139 370 c 0
 98.0992 370 46 408.965 46 480 c 0
 46 563.7 111.238 601 174 601 c 0
 252.062 601 313 550.205 313 464 c 0
 313 424 271.045 369.728 189 299 c 0
 150.333 265.667 131 230 131 192 c 0
 131 110.4 201.65 90 253 90 c 0
 347.2 90 385.369 174.888 410 241 c 1
 434.161 168.519 474.8 90 572 90 c 0
 638.122 90 700 138.8 700 200 c 0
 700 224.2 688.712 271.816 609 321 c 1
 456 321 l 1
 456 421 l 1
 615 421 l 2
 666.273 421 664.922 489 619 489 c 2
 456 489 l 1
 456 581 l 1
 590 581 l 2
 678.207 581 697 638.32 697 675 c 0
EndSplineSet
Fore
SplineSet
697 675 m 4
 697 739.2 654.512 771.495 632 782 c 5
 663 801 l 5
 708.314 780.284 752 707.529 752 632 c 4
 752 564.761 718.804 522.63 667.537 500.543 c 5
 691.921 471.651 704.733 443.921 692 421 c 5
 752 421 l 5
 752 321 l 5
 662 321 l 5
 715.105 280.595 754 222.2 754 157 c 4
 754 66.5625 681.648 -13 594 -13 c 4
 479.55 -13 426.886 91.9303 410 123 c 5
 401.54 109.288 332.946 -13 225 -13 c 4
 132.6 -13 71 61.0148 71 146 c 4
 71 203.333 102.833 257.833 166.5 309.5 c 4
 230.167 361.167 262 401 262 429 c 4
 262 489 214.525 504 186 504 c 4
 148.113 504 115 479.125 115 439 c 4
 115 392.6 153.742 385.073 168 381 c 5
 160.667 373.667 151 370 139 370 c 4
 98.0992 370 46 408.965 46 480 c 4
 46 563.7 111.238 601 174 601 c 4
 252.062 601 313 550.205 313 464 c 4
 313 424 271.045 369.728 189 299 c 4
 150.333 265.667 131 230 131 192 c 4
 131 110.4 201.65 90 253 90 c 4
 347.2 90 385.369 174.888 410 241 c 5
 434.161 168.519 474.8 90 572 90 c 4
 638.122 90 700 138.8 700 200 c 4
 700 224.2 688.712 271.816 609 321 c 5
 456 321 l 5
 456 421 l 5
 615 421 l 6
 666.273 421 664.922 489 619 489 c 6
 456 489 l 5
 456 581 l 5
 590 581 l 6
 678.207 581 697 638.32 697 675 c 4
EndSplineSet
Substitution2: "Single Substitution lookup 15 subtable" u0C9A.base
Ligature2: "Ligature Substitution lookup 14 subtable" u0C9A u0CCD
LCarets2: 1 0
EndChar

StartChar: u0C9A.base
Encoding: 145 -1 145
Width: 789
Flags: HW
LayerCount: 2
Back
SplineSet
581 581 m 1
 646.204 527.208 716.538 465.173 692 421 c 1
 752 421 l 1
 752 321 l 1
 662 321 l 1
 715.105 280.595 754 222.2 754 157 c 0
 754 66.5625 681.648 -13 594 -13 c 0
 479.55 -13 426.886 91.9303 410 123 c 1
 401.54 109.288 332.946 -13 225 -13 c 0
 132.6 -13 71 61.0148 71 146 c 0
 71 203.333 102.833 257.833 166.5 309.5 c 0
 230.167 361.167 262 401 262 429 c 0
 262 489 214.525 504 186 504 c 0
 148.113 504 115 479.125 115 439 c 0
 115 392.6 153.742 385.073 168 381 c 1
 160.667 373.667 151 370 139 370 c 0
 98.0992 370 46 408.965 46 480 c 0
 46 563.7 111.238 601 174 601 c 0
 252.062 601 313 550.205 313 464 c 0
 313 424 271.667 369 189 299 c 0
 150.333 265.667 131 230 131 192 c 0
 131 110.4 201.65 90 253 90 c 0
 347.2 90 385.369 174.888 410 241 c 1
 455.9 103.305 536.029 90 572 90 c 0
 638.122 90 700 138.8 700 200 c 0
 700 224.2 688.712 271.816 609 321 c 1
 456 321 l 1
 456 421 l 1
 615 421 l 2
 666.273 421 664.922 489 619 489 c 2
 456 489 l 1
 456 581 l 1
 581 581 l 1
EndSplineSet
Fore
SplineSet
581 581 m 5
 646.204 527.208 716.538 465.173 692 421 c 5
 752 421 l 5
 752 321 l 5
 662 321 l 5
 715.105 280.595 754 222.2 754 157 c 4
 754 66.5625 681.648 -13 594 -13 c 4
 479.55 -13 426.886 91.9303 410 123 c 5
 401.54 109.288 332.946 -13 225 -13 c 4
 132.6 -13 71 61.0148 71 146 c 4
 71 203.333 102.833 257.833 166.5 309.5 c 4
 230.167 361.167 262 401 262 429 c 4
 262 489 214.525 504 186 504 c 4
 148.113 504 115 479.125 115 439 c 4
 115 392.6 153.742 385.073 168 381 c 5
 160.667 373.667 151 370 139 370 c 4
 98.0992 370 46 408.965 46 480 c 4
 46 563.7 111.238 601 174 601 c 4
 252.062 601 313 550.205 313 464 c 4
 313 424 271.667 369 189 299 c 4
 150.333 265.667 131 230 131 192 c 4
 131 110.4 201.65 90 253 90 c 4
 347.2 90 385.369 174.888 410 241 c 5
 455.9 103.305 536.029 90 572 90 c 4
 638.122 90 700 138.8 700 200 c 4
 700 224.2 688.712 271.816 609 321 c 5
 456 321 l 5
 456 421 l 5
 615 421 l 6
 666.273 421 664.922 489 619 489 c 6
 456 489 l 5
 456 581 l 5
 581 581 l 5
EndSplineSet
EndChar

StartChar: u0C9A.imathra
Encoding: 146 -1 146
Width: 789
Flags: HW
LayerCount: 2
Back
SplineSet
700 582 m 0
 700 518.4 671.802 460.776 621 423 c 1
 747 423 l 1
 747 327 l 1
 637 327 l 1
 730.325 283.671 749 202.062 749 156 c 0
 749 68.3481 691.714 -11 597 -11 c 0
 479.4 -11 416.58 100.287 401 125 c 1
 395.587 115.914 327.8 -11 218 -11 c 0
 128.6 -11 69 60.1348 69 148 c 0
 69 205.333 100.833 259.833 164.5 311.5 c 0
 228.167 363.167 260 403 260 431 c 0
 260 491 212.525 506 184 506 c 0
 146.113 506 113 481.125 113 441 c 0
 113 394.6 151.742 387.073 166 383 c 1
 158.667 375.667 149 372 137 372 c 0
 96.0992 372 44 410.965 44 482 c 0
 44 565.7 109.238 603 172 603 c 0
 250.062 603 311 552.205 311 466 c 0
 311 426 269.667 371 187 301 c 0
 148.333 267.667 129 232 129 194 c 0
 129 112.4 199.65 92 251 92 c 0
 338.6 92 374.246 165.636 397 243 c 1
 420.413 181.389 467.4 92 573 92 c 0
 648.667 92 698 145.689 698 201 c 0
 698 267.343 634.708 307.814 585 327 c 1
 457 327 l 1
 457 423 l 1
 588 423 l 1
 602.909 436.914 631 480.774 631 506 c 1
 616.34 488.083 592.371 475 570 475 c 0
 504.4 475 488 535.6 488 576 c 0
 488 634.303 520.483 703 589 703 c 0
 665.762 703 700 643.63 700 582 c 0
575 531 m 0
 620.6 531 632 562.8 632 584 c 0
 632 618 614 635 578 635 c 0
 532.4 635 521 603.2 521 582 c 0
 521 548 539 531 575 531 c 0
EndSplineSet
Fore
SplineSet
700 582 m 4
 700 518.4 671.802 460.776 621 423 c 5
 747 423 l 5
 747 327 l 5
 637 327 l 5
 730.325 283.671 749 202.062 749 156 c 4
 749 68.3481 691.714 -11 597 -11 c 4
 479.4 -11 416.58 100.287 401 125 c 5
 395.587 115.914 327.8 -11 218 -11 c 4
 128.6 -11 69 60.1348 69 148 c 4
 69 205.333 100.833 259.833 164.5 311.5 c 4
 228.167 363.167 260 403 260 431 c 4
 260 491 212.525 506 184 506 c 4
 146.113 506 113 481.125 113 441 c 4
 113 394.6 151.742 387.073 166 383 c 5
 158.667 375.667 149 372 137 372 c 4
 96.0992 372 44 410.965 44 482 c 4
 44 565.7 109.238 603 172 603 c 4
 250.062 603 311 552.205 311 466 c 4
 311 426 269.667 371 187 301 c 4
 148.333 267.667 129 232 129 194 c 4
 129 112.4 199.65 92 251 92 c 4
 338.6 92 374.246 165.636 397 243 c 5
 420.413 181.389 467.4 92 573 92 c 4
 648.667 92 698 145.689 698 201 c 4
 698 267.343 634.708 307.814 585 327 c 5
 457 327 l 5
 457 423 l 5
 588 423 l 5
 602.909 436.914 631 480.774 631 506 c 5
 616.34 488.083 592.371 475 570 475 c 4
 504.4 475 488 535.6 488 576 c 4
 488 634.303 520.483 703 589 703 c 4
 665.762 703 700 643.63 700 582 c 4
575 531 m 4
 620.6 531 632 562.8 632 584 c 4
 632 618 614 635 578 635 c 4
 532.4 635 521 603.2 521 582 c 4
 521 548 539 531 575 531 c 4
EndSplineSet
Ligature2: "'abvs' Above Base Substitutions in Kannada lookup 11 subtable" u0C9A u0CBF
LCarets2: 1 0
EndChar

StartChar: u0C9A.sub
Encoding: 147 -1 147
Width: 251
Flags: HW
LayerCount: 2
Back
SplineSet
130 5 m 0
 170.8 5 181 -26.2 181 -47 c 0
 181 -68.3333 173.667 -82 159 -90 c 1
 235 -90 l 1
 235 -164 l 1
 163 -164 l 1
 205.843 -185.421 239 -233.043 239 -292 c 0
 239 -326.8 221.6 -379 152 -379 c 0
 89.2 -379 38.1825 -337.001 -5 -280 c 1
 -40.662 -335.114 -99.7998 -379 -163 -379 c 0
 -212.875 -379 -251 -353.8 -251 -307 c 0
 -251 -282.333 -239 -258.667 -215 -236 c 0
 -161 -184.667 -134 -151.667 -134 -137 c 0
 -134 -102.6 -160.75 -94 -175 -94 c 0
 -199 -94 -211 -106.333 -211 -131 c 0
 -211 -158.261 -195.552 -161.537 -182 -164 c 1
 -188 -168.667 -194.667 -171 -202 -171 c 0
 -219.6 -171 -246 -159.8 -246 -115 c 0
 -246 -66.2 -205.15 -54 -183 -54 c 0
 -154.375 -54 -109 -69.6 -109 -132 c 0
 -109 -198.975 -183 -225.599 -183 -269 c 0
 -183 -297.667 -166 -312 -132 -312 c 0
 -106.6 -312 -54.3582 -300.876 -5 -240 c 1
 46.4792 -302.316 90.2002 -312 114 -312 c 0
 175.35 -312 187 -274.6 187 -251 c 256
 187 -216.2 160.943 -174.861 127 -164 c 1
 45 -164 l 1
 45 -90 l 1
 119 -90 l 2
 143.181 -90 146 -69.6773 146 -62 c 0
 146 -46.4 137.8 -23 105 -23 c 0
 103.667 -23 99.3333 -23.6667 92 -25 c 1
 94.7562 -4.32757 103.076 5 130 5 c 0
EndSplineSet
Fore
SplineSet
130 5 m 4
 170.8 5 181 -26.2 181 -47 c 4
 181 -68.3333 173.667 -82 159 -90 c 5
 235 -90 l 5
 235 -164 l 5
 163 -164 l 5
 205.843 -185.421 239 -233.043 239 -292 c 4
 239 -326.8 221.6 -379 152 -379 c 4
 89.2 -379 38.1825 -337.001 -5 -280 c 5
 -40.662 -335.114 -99.7998 -379 -163 -379 c 4
 -212.875 -379 -251 -353.8 -251 -307 c 4
 -251 -282.333 -239 -258.667 -215 -236 c 4
 -161 -184.667 -134 -151.667 -134 -137 c 4
 -134 -102.6 -160.75 -94 -175 -94 c 4
 -199 -94 -211 -106.333 -211 -131 c 4
 -211 -158.261 -195.552 -161.537 -182 -164 c 5
 -188 -168.667 -194.667 -171 -202 -171 c 4
 -219.6 -171 -246 -159.8 -246 -115 c 4
 -246 -66.2 -205.15 -54 -183 -54 c 4
 -154.375 -54 -109 -69.6 -109 -132 c 4
 -109 -198.975 -183 -225.599 -183 -269 c 4
 -183 -297.667 -166 -312 -132 -312 c 4
 -106.6 -312 -54.3582 -300.876 -5 -240 c 5
 46.4792 -302.316 90.2002 -312 114 -312 c 4
 175.35 -312 187 -274.6 187 -251 c 260
 187 -216.2 160.943 -174.861 127 -164 c 5
 45 -164 l 5
 45 -90 l 5
 119 -90 l 6
 143.181 -90 146 -69.6773 146 -62 c 4
 146 -46.4 137.8 -23 105 -23 c 4
 103.667 -23 99.3333 -23.6667 92 -25 c 5
 94.7562 -4.32757 103.076 5 130 5 c 4
EndSplineSet
Position2: "SubMove-1" dx=-100 dy=0 dh=0 dv=0
Ligature2: "'blwf' Below Base Forms in Kannada lookup 5 subtable" u0C9A u0CCD
LCarets2: 1 0
EndChar

StartChar: u0C9B
Encoding: 148 3227 148
Width: 792
Flags: HW
LayerCount: 2
Back
SplineSet
665 673 m 0
 665 737.2 622.512 769.495 600 780 c 1
 631 799 l 1
 676.314 778.284 720 705.529 720 630 c 0
 720 560.207 684.234 517.467 629.619 496.114 c 1
 688.89 418.704 721 321.116 721 228 c 0
 721 87.8202 666 -13 539 -16 c 0
 469.686 -17.6373 412.21 43.1027 379 127 c 1
 358.505 77.3807 317 -16 224 -16 c 0
 117.2 -16 46 121.814 46 301 c 0
 46 474.201 110.4 586 207 586 c 0
 275.973 586 312 517.428 312 444 c 0
 312 361.288 270.8 310 209 310 c 0
 152.6 310 124.661 339.23 115 403 c 1
 80.2288 366.572 72 309.19 72 270 c 0
 72 162.235 131.897 90 234 90 c 0
 322.8 90 359.651 165.352 382 231 c 1
 403.134 164.781 442.8 90 534 90 c 0
 653.2 90 683 197.179 683 266 c 0
 683 355.918 640.158 443.057 582 487 c 1
 372 487 l 1
 372 579 l 1
 558 579 l 2
 646.207 579 665 636.32 665 673 c 0
278 450 m 0
 278 475.994 258.69 505.416 216 501 c 1
 161.634 501 135 472.226 135 443 c 0
 135 411.2 153.617 390 202 390 c 0
 259.8 390 278 426 278 450 c 0
376 14 m 1
 412.429 -60.5929 438 -128.428 438 -143 c 0
 438 -182.64 410.747 -204 378 -204 c 0
 348.7 -204 319 -182.55 319 -143 c 0
 319 -128.224 337.214 -67.2652 376 14 c 1
EndSplineSet
Fore
SplineSet
665 673 m 4
 665 737.2 622.512 769.495 600 780 c 5
 631 799 l 5
 676.314 778.284 720 705.529 720 630 c 4
 720 560.207 684.234 517.467 629.619 496.114 c 5
 688.89 418.704 721 321.116 721 228 c 4
 721 87.8202 666 -13 539 -16 c 4
 469.686 -17.6373 412.21 43.1027 379 127 c 5
 358.505 77.3807 317 -16 224 -16 c 4
 117.2 -16 46 121.814 46 301 c 4
 46 474.201 110.4 586 207 586 c 4
 275.973 586 312 517.428 312 444 c 4
 312 361.288 270.8 310 209 310 c 4
 152.6 310 124.661 339.23 115 403 c 5
 80.2288 366.572 72 309.19 72 270 c 4
 72 162.235 131.897 90 234 90 c 4
 322.8 90 359.651 165.352 382 231 c 5
 403.134 164.781 442.8 90 534 90 c 4
 653.2 90 683 197.179 683 266 c 4
 683 355.918 640.158 443.057 582 487 c 5
 372 487 l 5
 372 579 l 5
 558 579 l 6
 646.207 579 665 636.32 665 673 c 4
278 450 m 4
 278 475.994 258.69 505.416 216 501 c 5
 161.634 501 135 472.226 135 443 c 4
 135 411.2 153.617 390 202 390 c 4
 259.8 390 278 426 278 450 c 4
376 14 m 5
 412.429 -60.5929 438 -128.428 438 -143 c 4
 438 -182.64 410.747 -204 378 -204 c 4
 348.7 -204 319 -182.55 319 -143 c 4
 319 -128.224 337.214 -67.2652 376 14 c 5
EndSplineSet
Substitution2: "Single Substitution lookup 15 subtable" u0C9B.base
Ligature2: "Ligature Substitution lookup 14 subtable" u0C9B u0CCD
LCarets2: 1 0
EndChar

StartChar: u0C9B.base
Encoding: 149 -1 149
Width: 760
Flags: HW
LayerCount: 2
Back
SplineSet
683 266 m 0
 683 355.918 640.158 443.057 582 487 c 1
 372 487 l 1
 372 579 l 1
 544 579 l 1
 657.401 498.952 721 359.047 721 228 c 0
 721 87.8202 666 -13 539 -16 c 0
 469.686 -17.6373 412.21 43.1027 379 127 c 1
 358.505 77.3807 317 -16 224 -16 c 0
 117.2 -16 46 121.814 46 301 c 0
 46 474.201 110.4 586 207 586 c 0
 275.973 586 312 517.428 312 444 c 256
 312 361.288 270.8 310 209 310 c 0
 152.6 310 124.661 339.23 115 403 c 1
 80.2288 366.572 72 309.19 72 270 c 0
 72 162.235 131.897 90 234 90 c 0
 322.8 90 359.651 165.352 382 231 c 1
 403.134 164.781 442.8 90 534 90 c 0
 653.2 90 683 197.179 683 266 c 0
376 14 m 1
 412.429 -60.5929 438 -128.428 438 -143 c 0
 438 -182.64 410.747 -204 378 -204 c 0
 348.7 -204 319 -182.55 319 -143 c 0
 319 -128.224 337.214 -67.2652 376 14 c 1
278 450 m 0
 278 475.994 258.69 505.416 216 501 c 1
 161.634 501 135 472.226 135 443 c 0
 135 411.2 153.617 390 202 390 c 0
 259.8 390 278 426 278 450 c 0
EndSplineSet
Fore
SplineSet
683 266 m 4
 683 355.918 640.158 443.057 582 487 c 5
 372 487 l 5
 372 579 l 5
 544 579 l 5
 657.401 498.952 721 359.047 721 228 c 4
 721 87.8202 666 -13 539 -16 c 4
 469.686 -17.6373 412.21 43.1027 379 127 c 5
 358.505 77.3807 317 -16 224 -16 c 4
 117.2 -16 46 121.814 46 301 c 4
 46 474.201 110.4 586 207 586 c 4
 275.973 586 312 517.428 312 444 c 260
 312 361.288 270.8 310 209 310 c 4
 152.6 310 124.661 339.23 115 403 c 5
 80.2288 366.572 72 309.19 72 270 c 4
 72 162.235 131.897 90 234 90 c 4
 322.8 90 359.651 165.352 382 231 c 5
 403.134 164.781 442.8 90 534 90 c 4
 653.2 90 683 197.179 683 266 c 4
376 14 m 5
 412.429 -60.5929 438 -128.428 438 -143 c 4
 438 -182.64 410.747 -204 378 -204 c 4
 348.7 -204 319 -182.55 319 -143 c 4
 319 -128.224 337.214 -67.2652 376 14 c 5
278 450 m 4
 278 475.994 258.69 505.416 216 501 c 5
 161.634 501 135 472.226 135 443 c 4
 135 411.2 153.617 390 202 390 c 4
 259.8 390 278 426 278 450 c 4
EndSplineSet
EndChar

StartChar: u0C9B.imathra
Encoding: 150 -1 150
Width: 746
Flags: HW
LayerCount: 2
Back
SplineSet
534 90 m 256
 656.4 90 687 203.152 687 287 c 0
 687 382.241 648.886 497.131 565 568 c 1
 565 532.134 568.981 423 468 423 c 0
 400.309 423 361 491.169 361 565 c 0
 361 629.87 396.223 697 476 697 c 0
 544.667 697 602.333 650.333 649 557 c 0
 692.333 470.333 714 373.333 714 266 c 0
 714 117.617 666.345 -16 542 -16 c 0
 445.4 -16 398.891 89.661 381 127 c 1
 360.505 77.3807 319 -15 226 -15 c 0
 119.2 -15 48 121.814 48 301 c 0
 48 474.201 112.4 586 209 586 c 0
 277.973 586 314 517.428 314 444 c 256
 314 361.288 272.8 304 211 304 c 0
 154.6 304 126.661 339.23 117 403 c 1
 82.2288 366.572 74 309.19 74 270 c 0
 74 162.235 133.897 90 236 90 c 0
 324.8 90 361.651 165.352 384 231 c 1
 404.669 163.479 437.018 90 534 90 c 256
379 12 m 5
 415.429 -62.5929 441 -130.428 441 -145 c 0
 441 -184.64 413.747 -206 381 -206 c 0
 351.7 -206 322 -184.55 322 -145 c 0
 322 -130.224 340.214 -69.2652 379 12 c 5
532 566 m 0
 532 582.4 522.25 607 473 607 c 0
 410.9 607 389 566.2 389 539 c 0
 389 519.8 403.8 491 445 491 c 0
 499.251 491 532 532.058 532 566 c 0
280 449 m 0
 280 474.994 260.69 504.416 218 500 c 1
 163.634 500 137 471.226 137 442 c 0
 137 410.2 155.617 389 204 389 c 0
 261.8 389 280 425 280 449 c 0
EndSplineSet
Fore
SplineSet
534 90 m 256
 656.4 90 687 203.152 687 287 c 0
 687 382.241 648.886 497.131 565 568 c 1
 565 532.134 568.981 423 468 423 c 0
 400.309 423 361 491.169 361 565 c 0
 361 629.87 396.223 697 476 697 c 0
 544.667 697 602.333 650.333 649 557 c 0
 692.333 470.333 714 373.333 714 266 c 0
 714 117.617 666.345 -16 542 -16 c 0
 445.4 -16 398.891 89.661 381 127 c 1
 360.505 77.3807 319 -15 226 -15 c 0
 119.2 -15 48 121.814 48 301 c 0
 48 474.201 112.4 586 209 586 c 0
 277.973 586 314 517.428 314 444 c 256
 314 361.288 272.8 304 211 304 c 0
 154.6 304 126.661 339.23 117 403 c 1
 82.2288 366.572 74 309.19 74 270 c 0
 74 162.235 133.897 90 236 90 c 0
 324.8 90 361.651 165.352 384 231 c 1
 404.669 163.479 437.018 90 534 90 c 256
379 12 m 1
 415.429 -62.5929 441 -130.428 441 -145 c 0
 441 -184.64 413.747 -206 381 -206 c 0
 351.7 -206 322 -184.55 322 -145 c 0
 322 -130.224 340.214 -69.2652 379 12 c 1
532 566 m 0
 532 582.4 522.25 607 473 607 c 0
 410.9 607 389 566.2 389 539 c 0
 389 519.8 403.8 491 445 491 c 0
 499.251 491 532 532.058 532 566 c 0
280 449 m 0
 280 474.994 260.69 504.416 218 500 c 1
 163.634 500 137 471.226 137 442 c 0
 137 410.2 155.617 389 204 389 c 0
 261.8 389 280 425 280 449 c 0
EndSplineSet
Ligature2: "'abvs' Above Base Substitutions in Kannada lookup 11 subtable" u0C9B u0CBF
LCarets2: 1 0
EndChar

StartChar: u0C9B.sub
Encoding: 151 -1 151
Width: 200
Flags: HW
LayerCount: 2
Back
SplineSet
161 -67 m 0
 161 20.3579 136.453 139.553 108 171 c 1
 135.467 198.468 168.076 130.128 178 72 c 0
 184 34 192 -14 193 -77 c 0
 193 -192.312 181.495 -286 83 -286 c 0
 23.7615 -286 -8.95368 -232.667 -35 -158 c 1
 -62.526 -230.256 -97.8243 -280 -158 -280 c 0
 -219.01 -280 -246 -222.047 -246 -167 c 256
 -246 -109.6 -215.757 -51 -159 -51 c 0
 -116.264 -51 -92 -77.1284 -92 -112 c 256
 -92 -138.4 -110.7 -178 -169 -178 c 0
 -178.8 -178 -199.217 -173.695 -218 -157 c 1
 -218 -209 -178.475 -222 -144 -222 c 0
 -76.2 -222 -47.6528 -142.628 -31 -96 c 1
 -15.0614 -147.8 13.4 -212 80 -212 c 0
 144.8 -212 161 -133.321 161 -67 c 0
-3 -353 m 0
 -3 -376.4 -12 -392 -33 -392 c 0
 -55.6667 -392 -63 -380 -63 -352 c 0
 -63 -351.28 -60.4423 -330.624 -32 -269 c 1
 -25.4708 -285.323 -3 -338.675 -3 -353 c 0
-169 -150 m 0
 -141.775 -150 -119 -135.2 -119 -113 c 0
 -119 -96.3333 -132 -88 -158 -88 c 0
 -192.383 -88 -205.303 -112.609 -214 -130 c 1
 -211.055 -141.775 -195.74 -150 -169 -150 c 0
EndSplineSet
Fore
SplineSet
161 -67 m 4
 161 20.3579 136.453 139.553 108 171 c 5
 135.467 198.468 168.076 130.128 178 72 c 4
 184 34 192 -14 193 -77 c 4
 193 -192.312 181.495 -286 83 -286 c 4
 23.7615 -286 -8.95368 -232.667 -35 -158 c 5
 -62.526 -230.256 -97.8243 -280 -158 -280 c 4
 -219.01 -280 -246 -222.047 -246 -167 c 260
 -246 -109.6 -215.757 -51 -159 -51 c 4
 -116.264 -51 -92 -77.1284 -92 -112 c 260
 -92 -138.4 -110.7 -178 -169 -178 c 4
 -178.8 -178 -199.217 -173.695 -218 -157 c 5
 -218 -209 -178.475 -222 -144 -222 c 4
 -76.2 -222 -47.6528 -142.628 -31 -96 c 5
 -15.0614 -147.8 13.4 -212 80 -212 c 4
 144.8 -212 161 -133.321 161 -67 c 4
-3 -353 m 4
 -3 -376.4 -12 -392 -33 -392 c 4
 -55.6667 -392 -63 -380 -63 -352 c 4
 -63 -351.28 -60.4423 -330.624 -32 -269 c 5
 -25.4708 -285.323 -3 -338.675 -3 -353 c 4
-169 -150 m 4
 -141.775 -150 -119 -135.2 -119 -113 c 4
 -119 -96.3333 -132 -88 -158 -88 c 4
 -192.383 -88 -205.303 -112.609 -214 -130 c 5
 -211.055 -141.775 -195.74 -150 -169 -150 c 4
EndSplineSet
Position2: "SubMove-1" dx=-100 dy=0 dh=0 dv=0
Ligature2: "'blwf' Below Base Forms in Kannada lookup 5 subtable" u0C9B u0CCD
LCarets2: 1 0
EndChar

StartChar: u0C9C
Encoding: 152 3228 152
Width: 800
Flags: HW
AnchorPoint: "Nukta" 400 -50 basechar 0
LayerCount: 2
Back
SplineSet
649 600 m 1
 758.523 565.775 701.166 367 536 367 c 0
 444.8 367 359.606 436.195 308 483 c 1
 313.791 413.536 275.778 366.194 217 317 c 0
 155.667 265.667 125 222.333 125 187 c 0
 125 121.887 184.745 88 250 88 c 0
 326.296 88 371.952 147.61 406 239 c 1
 440.42 148.425 490.16 88 571 88 c 0
 673.912 88 704 146.8 704 184 c 0
 704 223.2 676.169 264.595 608 282 c 1
 623.747 313.471 757 292.524 757 167 c 0
 757 70.875 691.4 -12 593 -12 c 256
 480.2 -12 415.028 117.093 405 135 c 1
 389.298 104.2 333.4 -12 226 -12 c 0
 125.202 -12 63 58.692 63 146 c 0
 63 202.667 94.3333 256.833 157 308.5 c 0
 219.667 360.167 251 400.333 251 429 c 0
 251 475.805 212.031 499 176 499 c 0
 151.45 499 107 486.8 107 438 c 0
 107 391.6 149.787 383.146 163 380 c 1
 155.667 372.667 146 369 134 369 c 0
 93.0992 369 41 407.965 41 479 c 0
 41 574.2 115.4 598 165 598 c 0
 213.68 598 259.282 576.549 280 539 c 1
 334.63 493.475 400.6 447 481 447 c 0
 592.665 447 656 512.149 656 571 c 0
 656 581 653.667 590.667 649 600 c 1
EndSplineSet
Fore
SplineSet
649 600 m 5
 758.523 565.775 701.166 367 536 367 c 4
 444.8 367 359.606 436.195 308 483 c 5
 313.791 413.536 275.778 366.194 217 317 c 4
 155.667 265.667 125 222.333 125 187 c 4
 125 121.887 184.745 88 250 88 c 4
 326.296 88 371.952 147.61 406 239 c 5
 440.42 148.425 490.16 88 571 88 c 4
 673.912 88 704 146.8 704 184 c 4
 704 223.2 676.169 264.595 608 282 c 5
 623.747 313.471 757 292.524 757 167 c 4
 757 70.875 691.4 -12 593 -12 c 260
 480.2 -12 415.028 117.093 405 135 c 5
 389.298 104.2 333.4 -12 226 -12 c 4
 125.202 -12 63 58.692 63 146 c 4
 63 202.667 94.3333 256.833 157 308.5 c 4
 219.667 360.167 251 400.333 251 429 c 4
 251 475.805 212.031 499 176 499 c 4
 151.45 499 107 486.8 107 438 c 4
 107 391.6 149.787 383.146 163 380 c 5
 155.667 372.667 146 369 134 369 c 4
 93.0992 369 41 407.965 41 479 c 4
 41 574.2 115.4 598 165 598 c 4
 213.68 598 259.282 576.549 280 539 c 5
 334.63 493.475 400.6 447 481 447 c 4
 592.665 447 656 512.149 656 571 c 4
 656 581 653.667 590.667 649 600 c 5
EndSplineSet
Substitution2: "Single Substitution lookup 15 subtable" u0C9C.base
Ligature2: "Ligature Substitution lookup 14 subtable" u0C9C u0CCD
LCarets2: 1 0
EndChar

StartChar: u0C9C.base
Encoding: 153 -1 153
Width: 789
Flags: HW
AnchorPoint: "Nukta" 400 -50 basechar 0
LayerCount: 2
Back
SplineSet
523 381 m 0
 590.717 381 635 407.429 635 443 c 0
 635 457.667 626.667 472.667 610 488 c 1
 413 488 l 1
 413 580 l 1
 571 580 l 1
 642 488 l 1
 670 460 684 431 684 403 c 0
 684 349 629.825 313 557 313 c 0
 457.4 313 370.254 382.454 308 442 c 1
 308 408 277.5 368.5 216.5 323.5 c 0
 155.5 278.5 125 233.333 125 188 c 0
 125 122.887 184.745 89 250 89 c 0
 344.2 89 382.369 173.888 407 240 c 1
 425.908 176.973 464.24 89 561 89 c 0
 665.41 89 698 146.6 698 183 c 0
 698 222.6 663.444 265.801 600 282 c 1
 605.782 292.117 616.439 297.255 634 296 c 0
 724.4 296 747 222.025 747 168 c 0
 747 71.875 681.4 -11 583 -11 c 0
 477.4 -11 430.221 76.4481 407 125 c 1
 401.587 115.914 333.8 -11 224 -11 c 0
 136.994 -11 67 57.0926 67 148 c 0
 67 204.667 97 258.833 157 310.5 c 0
 217 362.167 247 402.333 247 431 c 0
 247 476.927 211.675 501 176 501 c 0
 153.05 501 111 488.8 111 440 c 0
 111 393.6 149.742 386.073 164 382 c 1
 156.667 374.667 146 371 132 371 c 0
 97.2908 371 42 404.575 42 481 c 0
 42 563.059 102.266 601 167 601 c 256
 230.996 601 295.795 564.463 303 478 c 1
 363.937 422.141 435 381 523 381 c 0
EndSplineSet
Fore
SplineSet
523 381 m 4
 590.717 381 635 407.429 635 443 c 4
 635 457.667 626.667 472.667 610 488 c 5
 413 488 l 5
 413 580 l 5
 571 580 l 5
 642 488 l 5
 670 460 684 431 684 403 c 4
 684 349 629.825 313 557 313 c 4
 457.4 313 370.254 382.454 308 442 c 5
 308 408 277.5 368.5 216.5 323.5 c 4
 155.5 278.5 125 233.333 125 188 c 4
 125 122.887 184.745 89 250 89 c 4
 344.2 89 382.369 173.888 407 240 c 5
 425.908 176.973 464.24 89 561 89 c 4
 665.41 89 698 146.6 698 183 c 4
 698 222.6 663.444 265.801 600 282 c 5
 605.782 292.117 616.439 297.255 634 296 c 4
 724.4 296 747 222.025 747 168 c 4
 747 71.875 681.4 -11 583 -11 c 4
 477.4 -11 430.221 76.4481 407 125 c 5
 401.587 115.914 333.8 -11 224 -11 c 4
 136.994 -11 67 57.0926 67 148 c 4
 67 204.667 97 258.833 157 310.5 c 4
 217 362.167 247 402.333 247 431 c 4
 247 476.927 211.675 501 176 501 c 4
 153.05 501 111 488.8 111 440 c 4
 111 393.6 149.742 386.073 164 382 c 5
 156.667 374.667 146 371 132 371 c 4
 97.2908 371 42 404.575 42 481 c 4
 42 563.059 102.266 601 167 601 c 260
 230.996 601 295.795 564.463 303 478 c 5
 363.937 422.141 435 381 523 381 c 4
EndSplineSet
EndChar

StartChar: u0C9C.imathra
Encoding: 154 -1 154
Width: 789
Flags: HW
AnchorPoint: "Nukta" 400 -50 basechar 0
LayerCount: 2
Back
SplineSet
617 286 m 1
 628 296 635 297.5 653 295 c 1
 727 276 758 232 765 169 c 0
 775.797 71.8246 699.4 -12 601 -12 c 0
 485.2 -12 422.99 99.3742 408 124 c 1
 394.176 99.0103 336.8 -12 230 -12 c 0
 143.611 -12 70 55.3625 70 147 c 0
 70 203 100.5 256.333 161.5 307 c 0
 222.5 357.667 253 398.667 253 430 c 0
 253 475.2 214.837 499 177 499 c 0
 152.2 499 115 487.2 115 440 c 0
 115 393.6 153.742 386.073 168 382 c 1
 160.667 374.667 151 371 139 371 c 0
 98.0992 371 46 409.965 46 481 c 0
 46 580.952 120.714 606 168 606 c 0
 218 606 279.025 582.772 293 516 c 1
 346.216 474.609 416 432 498 432 c 0
 623.7 432 670 503.4 670 551 c 0
 670 598.333 641.667 630.667 585 648 c 1
 624.708 588.439 608.192 517 527 517 c 0
 468.09 517 437 558.64 437 611 c 0
 437 660.719 467.377 718 547 718 c 0
 646.963 718 698 636.08 698 548 c 0
 698 444.82 626.666 358 496 358 c 0
 415.2 358 337.03 437.66 294 484 c 1
 309.844 408.746 249.9 360.047 182 298 c 0
 146 264.667 128 230 128 194 c 256
 128 112.4 198.65 92 250 92 c 0
 344.2 92 382.369 176.888 407 243 c 1
 432.031 177.132 475 92 577 92 c 0
 684.277 92 720 154.559 720 189 c 0
 720 208.4 713.186 260.593 617 286 c 1
566 616 m 0
 566 627.668 558.902 648.172 555 655 c 1
 481.4 655 463 628.2 463 588 c 0
 463 541.129 563.465 537.472 566 616 c 0
EndSplineSet
Fore
SplineSet
617 286 m 5
 628 296 635 297.5 653 295 c 5
 727 276 758 232 765 169 c 4
 775.797 71.8246 699.4 -12 601 -12 c 4
 485.2 -12 422.99 99.3742 408 124 c 5
 394.176 99.0103 336.8 -12 230 -12 c 4
 143.611 -12 70 55.3625 70 147 c 4
 70 203 100.5 256.333 161.5 307 c 4
 222.5 357.667 253 398.667 253 430 c 4
 253 475.2 214.837 499 177 499 c 4
 152.2 499 115 487.2 115 440 c 4
 115 393.6 153.742 386.073 168 382 c 5
 160.667 374.667 151 371 139 371 c 4
 98.0992 371 46 409.965 46 481 c 4
 46 580.952 120.714 606 168 606 c 4
 218 606 279.025 582.772 293 516 c 5
 346.216 474.609 416 432 498 432 c 4
 623.7 432 670 503.4 670 551 c 4
 670 598.333 641.667 630.667 585 648 c 5
 624.708 588.439 608.192 517 527 517 c 4
 468.09 517 437 558.64 437 611 c 4
 437 660.719 467.377 718 547 718 c 4
 646.963 718 698 636.08 698 548 c 4
 698 444.82 626.666 358 496 358 c 4
 415.2 358 337.03 437.66 294 484 c 5
 309.844 408.746 249.9 360.047 182 298 c 4
 146 264.667 128 230 128 194 c 260
 128 112.4 198.65 92 250 92 c 4
 344.2 92 382.369 176.888 407 243 c 5
 432.031 177.132 475 92 577 92 c 4
 684.277 92 720 154.559 720 189 c 4
 720 208.4 713.186 260.593 617 286 c 5
566 616 m 4
 566 627.668 558.902 648.172 555 655 c 5
 481.4 655 463 628.2 463 588 c 4
 463 541.129 563.465 537.472 566 616 c 4
EndSplineSet
Ligature2: "'abvs' Above Base Substitutions in Kannada lookup 11 subtable" u0C9C u0CBF
LCarets2: 1 0
EndChar

StartChar: u0C9C.sub
Encoding: 155 -1 155
Width: 251
Flags: HW
LayerCount: 2
Back
SplineSet
150 -214 m 1
 181.514 -219.627 232 -234.2 232 -315 c 0
 232 -363 201 -387 147 -387 c 0
 87 -387 47.3483 -366.373 -3 -281 c 1
 -38.662 -336.114 -97.7998 -387 -161 -387 c 0
 -210.875 -387 -249 -354.8 -249 -308 c 0
 -249 -283.333 -237 -259.667 -213 -237 c 0
 -159 -185.667 -132 -152.667 -132 -138 c 0
 -132 -103.6 -158.75 -95 -173 -95 c 0
 -197 -95 -209 -107.333 -209 -132 c 0
 -209 -159.261 -193.552 -162.537 -180 -165 c 1
 -187.333 -170.333 -194.667 -173 -202 -173 c 0
 -220 -173 -247 -154.85 -247 -122 c 0
 -247 -83.6 -217.8 -58 -178 -58 c 0
 -153.333 -58 -129.333 -70 -106 -94 c 1
 -42.2297 -134.389 10 -150 39 -150 c 0
 98.9737 -150 167.855 -115.942 146 -46 c 1
 161.613 -48.8389 207 -54.2195 207 -107 c 0
 207 -159.22 145.489 -191 86 -191 c 0
 9.2 -191 -61.6432 -149.169 -106 -118 c 1
 -91.2416 -191.748 -180 -222.57 -180 -268 c 0
 -180 -296.667 -163 -316 -129 -316 c 0
 -103.6 -316 -51.3582 -299.876 -2 -239 c 1
 14.9016 -268.296 47.6 -316 122 -316 c 0
 158 -316 182 -296 182 -266 c 0
 182 -246 171.333 -228.667 150 -214 c 1
EndSplineSet
Fore
SplineSet
150 -214 m 5
 181.514 -219.627 232 -234.2 232 -315 c 4
 232 -363 203.667 -387 147 -387 c 5
 107 -390.333 70 -374 36 -338 c 4
 25.3333 -326 12.3333 -307 -3 -281 c 5
 -38.662 -336.114 -97.7998 -387 -161 -387 c 4
 -210.875 -387 -249 -354.8 -249 -308 c 4
 -249 -283.333 -237 -259.667 -213 -237 c 4
 -159 -185.667 -132 -152.667 -132 -138 c 4
 -132 -103.6 -158.75 -95 -173 -95 c 4
 -197 -95 -209 -107.333 -209 -132 c 4
 -209 -159.261 -193.552 -162.537 -180 -165 c 5
 -187.333 -170.333 -194.667 -173 -202 -173 c 4
 -220 -173 -247 -154.85 -247 -122 c 4
 -247 -83.6 -217.8 -58 -178 -58 c 4
 -153.333 -58 -129.333 -70 -106 -94 c 5
 -42.2297 -134.389 10 -150 39 -150 c 4
 98.9737 -150 167.855 -115.942 146 -46 c 5
 161.613 -48.8389 207 -54.2195 207 -107 c 4
 207 -159.22 145.489 -191 86 -191 c 4
 9.2 -191 -61.6432 -149.169 -106 -118 c 5
 -105.333 -121.333 -105 -126.667 -105 -134 c 4
 -105 -199.478 -180 -224.688 -180 -268 c 4
 -180 -296.667 -163 -316 -129 -316 c 4
 -103.6 -316 -51.3582 -299.876 -2 -239 c 5
 14.9016 -268.296 47.6 -316 122 -316 c 4
 158 -316 182 -296 182 -266 c 4
 182 -246 171.333 -228.667 150 -214 c 5
EndSplineSet
Position2: "SubMove-1" dx=-100 dy=0 dh=0 dv=0
Ligature2: "'blwf' Below Base Forms in Kannada lookup 5 subtable" u0C9C u0CCD
LCarets2: 1 0
EndChar

StartChar: u0C9D
Encoding: 156 3229 156
Width: 1351
Flags: HW
HStem: -10 109<647.39 814.258 1000.03 1179.04> -2 100<213.208 411.669> 484 92<41 164 203.335 419.787 459 497.61> 487 96<643.536 724.007 1001.54 1082>
VStem: 43 65<199.676 359.411> 513 69<198.14 360.514> 530 55<609.118 720.781> 853 119<-206.875 -89.7808> 906 21<193.964 315.842> 1264 21<194.371 315.842>
LayerCount: 2
Back
SplineSet
312 98 m 0x5c40
 429.297 98 513 171.532 513 295 c 0
 513 448.6 394.95 487 310 487 c 0
 184.67 487 108 412.168 108 291 c 0
 108 175.2 196.536 98 312 98 c 0x5c40
43 259 m 0
 43 365.834 113.829 449.736 164 484 c 1
 41 484 l 1
 41 576 l 1
 423 576 l 2
 511.207 576 530 633.32 530 670 c 0
 530 734.2 487.512 766.495 465 777 c 1
 496 796 l 1
 541.314 775.284 585 702.529 585 627 c 0
 585 506.953 475.089 484 459 484 c 1x6ac0
 514.101 434.409 580.429 373.755 582 267 c 0
 582 229.469 575.978 195.178 564.874 164.575 c 1
 587.53 132.685 635.127 99 738 99 c 0
 822.159 99 906 149.681 906 249 c 0
 906 394.35 788.788 447.053 662 487 c 0
 589 510 610.734 583 665 583 c 0
 722.333 583 779.333 551.333 836 488 c 0
 897.333 419.333 927 344.336 927 263 c 0
 927 230.903 924.094 200.147 918.245 171.606 c 1
 938.794 137.851 985.52 99 1096 99 c 0
 1180.16 99 1264 149.681 1264 249 c 0
 1264 394.35 1104 468 1020 487 c 0
 951.85 502.415 968.734 583 1023 583 c 0
 1080.33 583 1137.33 551.333 1194 488 c 0
 1255.33 419.333 1285 344.336 1285 263 c 0
 1285 111.574 1220.33 -2 1087 -2 c 0
 999.385 -2 938.484 50.6902 914.046 153.444 c 1
 889.106 56.986 827.967 -2 729 -2 c 0x9cc0
 626.203 -2 577.38 68.4805 557.671 146.799 c 1
 515.373 52.6584 421.907 -1.99998 309 -2 c 0
 237.667 -2 177.118 19.8036 127 63 c 0
 71.1316 111.153 43 176.333 43 259 c 0
909 12 m 1
 937.456 -51.6875 970.983 -139.728 972 -156 c 0
 972 -205 936 -221 912 -221 c 0
 882.194 -221 853 -199.007 853 -159 c 0x0940
 853 -128.655 908.989 11.9745 909 12 c 1
EndSplineSet
Fore
SplineSet
312 98 m 0x5c40
 429.297 98 513 171.532 513 295 c 0
 513 448.6 394.95 487 310 487 c 0
 184.67 487 108 412.168 108 291 c 0
 108 175.2 196.536 98 312 98 c 0x5c40
43 259 m 0
 43 365.834 113.829 449.736 164 484 c 1
 41 484 l 1
 41 576 l 1
 423 576 l 2
 511.207 576 530 633.32 530 670 c 0
 530 734.2 487.512 766.495 465 777 c 1
 496 796 l 1
 541.314 775.284 585 702.529 585 627 c 0
 585 506.953 475.089 484 459 484 c 1x6ac0
 514.101 434.409 580.429 373.755 582 267 c 0
 582 229.469 575.978 195.178 564.874 164.575 c 1
 587.53 132.685 635.127 99 738 99 c 0
 822.159 99 906 149.681 906 249 c 0
 906 394.35 788.788 447.053 662 487 c 0
 589 510 610.734 583 665 583 c 0
 722.333 583 779.333 551.333 836 488 c 0
 897.333 419.333 927 344.336 927 263 c 0
 927 230.903 924.094 200.147 918.245 171.606 c 1
 938.794 137.851 985.52 99 1096 99 c 0
 1180.16 99 1264 149.681 1264 249 c 0
 1264 394.35 1104 468 1020 487 c 0
 951.85 502.415 968.734 583 1023 583 c 0
 1080.33 583 1137.33 551.333 1194 488 c 0
 1255.33 419.333 1285 344.336 1285 263 c 0
 1285 111.574 1220.33 -2 1087 -2 c 0
 999.385 -2 938.484 50.6902 914.046 153.444 c 1
 889.106 56.986 827.967 -2 729 -2 c 0x9cc0
 626.203 -2 577.38 68.4805 557.671 146.799 c 1
 515.373 52.6584 421.907 -1.99998 309 -2 c 0
 237.667 -2 177.118 19.8036 127 63 c 0
 71.1316 111.153 43 176.333 43 259 c 0
909 12 m 1
 937.456 -51.6875 970.983 -139.728 972 -156 c 0
 972 -205 936 -221 912 -221 c 0
 882.194 -221 853 -199.007 853 -159 c 0x0940
 853 -128.655 908.989 11.9745 909 12 c 1
EndSplineSet
Substitution2: "Single Substitution lookup 15 subtable" u0C9D.base
Ligature2: "Ligature Substitution lookup 14 subtable" u0C9D u0CCD
LCarets2: 1 0
EndChar

StartChar: u0C9D.base
Encoding: 157 -1 157
Width: 1337
Flags: W
HStem: -2 101<213.208 413.793 644.176 821.201 1003.24 1174.99> 484 92<41 164 203.335 403> 487 96<643.536 724.007 1001.54 1082>
VStem: 43 65<199.676 359.411> 513 69<198.14 360.514> 853 119<-206.875 -89.7808> 906 21<193.964 315.842> 1264 21<194.798 315.842>
AnchorPoint: "V" 404 537 basechar 0
LayerCount: 2
Back
SplineSet
312 98 m 0x5c40
 429.297 98 513 171.532 513 295 c 0
 513 448.6 394.95 487 310 487 c 0
 184.67 487 108 412.168 108 291 c 0
 108 175.2 196.536 98 312 98 c 0x5c40
43 259 m 0
 43 365.834 113.829 449.736 164 484 c 1
 41 484 l 1
 41 576 l 1
 403 576 l 1
 459 484 l 1x6ac0
 514.101 434.409 580.429 373.755 582 267 c 0
 582 229.469 575.978 195.178 564.874 164.575 c 1
 587.53 132.685 635.127 99 738 99 c 0
 822.159 99 906 149.681 906 249 c 0
 906 394.35 783.444 448.1 662 487 c 1
 587.359 501.922 610.734 583 665 583 c 0
 722.333 583 779.333 551.333 836 488 c 0
 897.333 419.333 927 344.336 927 263 c 0
 927 230.903 924.094 200.147 918.245 171.606 c 1
 938.794 137.851 985.52 99 1096 99 c 0
 1180.16 99 1264 149.681 1264 249 c 0
 1264 394.35 1141.44 448.1 1020 487 c 1
 945.359 501.922 968.734 583 1023 583 c 0
 1080.33 583 1137.33 551.333 1194 488 c 0
 1255.33 419.333 1285 344.336 1285 263 c 0
 1285 111.574 1220.33 -2 1087 -2 c 0
 999.385 -2 938.484 50.6902 914.046 153.444 c 1
 889.106 56.986 827.967 -2 729 -2 c 0x9cc0
 626.203 -2 577.38 68.4805 557.671 146.799 c 1
 515.373 52.6584 421.907 -1.99998 309 -2 c 0
 237.667 -2 177.118 19.8036 127 63 c 0
 71.1316 111.153 43 176.333 43 259 c 0
909 12 m 1
 937.456 -51.6875 970.983 -139.728 972 -156 c 0
 972 -205 936 -221 912 -221 c 0
 882.194 -221 853 -199.007 853 -159 c 0x0940
 853 -128.655 908.989 11.9745 909 12 c 1
EndSplineSet
Fore
SplineSet
312 98 m 0xb9
 429.297 98 513 171.532 513 295 c 0
 513 448.6 394.95 487 310 487 c 0
 184.67 487 108 412.168 108 291 c 0
 108 175.2 196.536 98 312 98 c 0xb9
43 259 m 0
 43 365.834 113.829 449.736 164 484 c 1
 41 484 l 1
 41 576 l 1
 403 576 l 1
 459 484 l 1xdb
 514.101 434.409 580.429 373.755 582 267 c 0
 582 229.469 575.978 195.178 564.874 164.575 c 1
 587.53 132.685 635.127 99 738 99 c 0
 822.159 99 906 149.681 906 249 c 0
 906 394.35 783.444 448.1 662 487 c 1
 587.359 501.922 610.734 583 665 583 c 0
 722.333 583 779.333 551.333 836 488 c 0
 897.333 419.333 927 344.336 927 263 c 0xbb
 927 230.903 924.094 200.147 918.245 171.606 c 1
 938.794 137.851 985.52 99 1096 99 c 0
 1180.16 99 1264 149.681 1264 249 c 0
 1264 394.35 1141.44 448.1 1020 487 c 1
 945.359 501.922 968.734 583 1023 583 c 0
 1080.33 583 1137.33 551.333 1194 488 c 0
 1255.33 419.333 1285 344.336 1285 263 c 0
 1285 111.574 1220.33 -2 1087 -2 c 0
 999.385 -2 938.484 50.6902 914.046 153.444 c 1
 889.106 56.986 827.967 -2 729 -2 c 0
 626.203 -2 577.38 68.4805 557.671 146.799 c 1
 515.373 52.6584 421.907 -1.99998 309 -2 c 0
 237.667 -2 177.118 19.8036 127 63 c 0
 71.1316 111.153 43 176.333 43 259 c 0
909 12 m 1
 937.456 -51.6875 970.983 -139.728 972 -156 c 0
 972 -205 936 -221 912 -221 c 0
 882.194 -221 853 -199.007 853 -159 c 0x9d
 853 -128.655 908.989 11.9745 909 12 c 1
EndSplineSet
Substitution2: "Single Substitution lookup 18 subtable" u0C9D.base.mathra
EndChar

StartChar: u0C9D_half.base
Encoding: 158 -1 158
Width: 975
Flags: W
HStem: -2 100<213.512 411.704 631.355 811.297> 484 92<41 164 203.335 402> 487 96<637.793 717.272>
VStem: 43 65<199.461 359.411> 513 69<198.029 357.838> 844 119<-206.875 -91.2207> 897 41<174.751 341.645>
LayerCount: 2
Back
SplineSet
900 11 m 1
 928.456 -52.6875 961.983 -139.728 963 -156 c 0
 963 -205 927 -221 903 -221 c 0
 873.194 -221 844 -199.007 844 -159 c 0
 844 -129.462 896.101 1.57617 900 11 c 1
656 583 m 0
 713.333 583 770.333 551.333 827 488 c 0
 888.333 419.333 938 344.336 938 263 c 0
 938 111.574 853.327 -2 720 -2 c 0
 649.333 -2 597.333 26.667 564 100 c 0
 559.677 109.726 555.574 121.532 551.689 135.418 c 1
 506.97 48.9959 416.855 -1.99999 309 -2 c 0
 167.038 -2 43 92.0094 43 259 c 0
 43 365.834 113.829 449.736 164 484 c 1
 41 484 l 1
 41 576 l 1
 402 576 l 1
 459 484 l 1
 514.101 434.409 582 364.28 582 267 c 0
 582 226.546 574.806 189.682 561.644 157.099 c 1
 586.29 127.637 634.149 99 729 99 c 0
 813.159 99 897 149.681 897 249 c 0
 897 394.35 780.615 449.779 653 487 c 0
 581 508 601.653 583 656 583 c 0
312 98 m 0
 429.297 98 513 171.532 513 295 c 0
 513 416.164 435.601 487 310 487 c 0
 184.67 487 108 412.168 108 291 c 0
 108 175.2 196.536 98 312 98 c 0
EndSplineSet
Fore
SplineSet
900 11 m 5x9c
 928.456 -52.6875 961.983 -139.728 963 -156 c 4
 963 -205 927 -221 903 -221 c 4
 873.194 -221 844 -199.007 844 -159 c 4
 844 -129.462 896.101 1.57617 900 11 c 5x9c
656 583 m 4xba
 713.333 583 770.333 551.333 827 488 c 4
 888.333 419.333 938 344.336 938 263 c 4
 938 111.574 853.327 -2 720 -2 c 4
 649.333 -2 597.333 26.667 564 100 c 4
 559.677 109.726 555.574 121.532 551.689 135.418 c 5
 506.97 48.9959 416.855 -1.99999 309 -2 c 4
 167.038 -2 43 92.0094 43 259 c 4
 43 365.834 113.829 449.736 164 484 c 5
 41 484 l 5
 41 576 l 5
 402 576 l 5
 459 484 l 5xda
 514.101 434.409 582 364.28 582 267 c 4
 582 226.546 574.806 189.682 561.644 157.099 c 5
 586.29 127.637 634.149 99 729 99 c 4
 813.159 99 897 149.681 897 249 c 4
 897 394.35 780.615 449.779 653 487 c 4
 581 508 601.653 583 656 583 c 4xba
312 98 m 4
 429.297 98 513 171.532 513 295 c 4
 513 416.164 435.601 487 310 487 c 4xb8
 184.67 487 108 412.168 108 291 c 4
 108 175.2 196.536 98 312 98 c 4
EndSplineSet
EndChar

StartChar: u0C9D.imathra
Encoding: 159 -1 159
Width: 1337
Flags: HW
LayerCount: 2
Back
SplineSet
308 89 m 0
 430.61 89 523 174.48 523 289 c 0
 523 405.396 438.455 496 308 496 c 0
 207.25 496 97 452.4 97 278 c 0
 97 164.274 183.147 89 308 89 c 0
190 502 m 1
 223.171 518.586 259.08 529 302 529 c 0
 373.64 529 430.831 501.013 475 470 c 1
 469 489.333 463 504.333 457 515 c 0
 415 581.667 343.333 615 242 615 c 0
 164.295 615 143 574.472 143 549 c 0
 143 523.15 160.625 502 190 502 c 1
51 577 m 0
 51 635.259 109.156 685 212 685 c 0
 312.667 685 399.333 640.333 472 551 c 0
 540.667 465.667 575.333 369.667 576 263 c 0
 576 222.398 569.83 186.34 558.742 154.804 c 1
 583.703 125.803 631.539 98 725 98 c 0
 809.159 98 893 148.681 893 248 c 0
 893 393.35 776.615 448.779 649 486 c 0
 577 507 597.653 582 652 582 c 0
 709.333 582 766.333 550.333 823 487 c 0
 884.333 418.333 914 343.336 914 262 c 0
 914 231.314 911.344 201.854 905.999 174.383 c 1
 926.929 140.92 973.852 103 1083 103 c 0
 1167.16 103 1251 153.681 1251 253 c 0
 1251 398.35 1128.44 452.1 1007 491 c 1
 996.077 493.184 960 500.8 960 540 c 0
 960 562.55 980 587 1010 587 c 0
 1067.33 587 1124.33 555.333 1181 492 c 0
 1242.33 423.333 1272 348.336 1272 267 c 0
 1272 115.574 1207.33 -11 1074 -11 c 0
 987.272 -11 926.253 53.6784 901.664 154.871 c 1
 877.126 57.1115 815.795 -11 716 -11 c 0
 615.689 -11 568.062 64.3689 548.815 130.472 c 1
 504.56 35.9182 411.986 -11 314 -11 c 0
 167.737 -11 42 88.8125 42 255 c 0
 42 391.8 104.869 448.941 158 483 c 1
 73.9136 491.408 51 544.084 51 577 c 0
896 10 m 1
 924.456 -53.6875 957.983 -140.728 959 -157 c 1
 959 -206 923 -222 899 -222 c 0
 869.194 -222 840 -200.007 840 -160 c 0
 840 -130.462 892.101 0.576172 896 10 c 1
EndSplineSet
Fore
SplineSet
308 89 m 0
 430.61 89 523 174.48 523 289 c 0
 523 405.396 438.455 496 308 496 c 0
 207.25 496 97 452.4 97 278 c 0
 97 164.274 183.147 89 308 89 c 0
190 502 m 1
 223.171 518.586 259.08 529 302 529 c 0
 373.64 529 430.831 501.013 475 470 c 1
 469 489.333 463 504.333 457 515 c 0
 415 581.667 343.333 615 242 615 c 0
 164.295 615 143 574.472 143 549 c 0
 143 523.15 160.625 502 190 502 c 1
51 577 m 0
 51 635.259 109.156 685 212 685 c 0
 312.667 685 399.333 640.333 472 551 c 0
 540.667 465.667 575.333 369.667 576 263 c 0
 576 222.398 569.83 186.34 558.742 154.804 c 1
 583.703 125.803 631.539 98 725 98 c 0
 809.159 98 893 148.681 893 248 c 0
 893 393.35 776.615 448.779 649 486 c 0
 577 507 597.653 582 652 582 c 0
 709.333 582 766.333 550.333 823 487 c 0
 884.333 418.333 914 343.336 914 262 c 0
 914 231.314 911.344 201.854 905.999 174.383 c 1
 926.929 140.92 973.852 103 1083 103 c 0
 1167.16 103 1251 153.681 1251 253 c 0
 1251 398.35 1128.44 452.1 1007 491 c 1
 932.359 505.922 955.734 582 1010 582 c 0
 1067.33 582 1124.33 555.333 1181 492 c 0
 1242.33 423.333 1272 348.336 1272 267 c 0
 1272 115.574 1207.33 -11 1074 -11 c 0
 987.272 -11 926.253 53.6784 901.664 154.871 c 1
 877.126 57.1115 815.795 -11 716 -11 c 0
 615.689 -11 568.062 64.3689 548.815 130.472 c 1
 504.56 35.9182 411.986 -11 314 -11 c 0
 167.737 -11 42 88.8125 42 255 c 0
 42 391.8 104.869 448.941 158 483 c 1
 73.9136 491.408 51 544.084 51 577 c 0
896 10 m 1
 924.456 -53.6875 957.983 -140.728 959 -157 c 0
 959 -206 923 -222 899 -222 c 0
 869.194 -222 840 -200.007 840 -160 c 0
 840 -130.462 892.101 0.576172 896 10 c 1
EndSplineSet
Ligature2: "'abvs' Above Base Substitutions in Kannada lookup 11 subtable" u0C9D u0CBF
LCarets2: 1 0
EndChar

StartChar: u0C9D.sub
Encoding: 160 -1 160
Width: 453
Flags: HW
LayerCount: 2
Back
SplineSet
333 -68 m 1
 400.407 -68 433 -134.944 433 -200 c 0
 433 -279.268 386.3 -338 313 -338 c 0
 245.2 -338 217.672 -284.393 200 -244 c 1
 183.199 -292.878 153.2 -338 83 -338 c 0
 20.6 -338 -7.79475 -280.411 -21 -254 c 1
 -32.0985 -283.259 -52.7658 -340 -131 -340 c 256
 -225.4 -340 -249 -258.402 -249 -206 c 256
 -249 -138.793 -211.201 -65 -126 -65 c 0
 -54.7471 -65 -12 -116.159 -12 -191 c 0
 -11.3333 -203.667 -10.3333 -213 -9 -219 c 0
 5 -262.333 35.6667 -284 83 -284 c 0
 159 -284 178 -229.438 178 -199 c 0
 178 -150.816 145.6 -119 97 -119 c 0
 54.0996 -119 54.3781 -68 103 -68 c 0
 173.928 -68 204 -153.069 204 -195 c 1
 217.916 -231.688 244.47 -284 315 -284 c 0
 391.8 -284 411 -227 411 -195 c 0
 411 -166.625 394.8 -119 330 -119 c 0
 271.193 -119 289.164 -63.1292 333 -68 c 1
199 -332 m 1
 222.286 -382.453 230.685 -403.912 236 -411 c 1
 236 -435.667 226 -453 202 -453 c 0
 178.667 -453 167 -438.667 167 -410 c 0
 167 -403.119 194.84 -341.621 199 -332 c 1
-134 -285 m 256
 -86.0469 -285 -38 -258.15 -38 -201 c 0
 -38 -147.525 -82.8414 -116 -134 -116 c 256
 -170.938 -116 -229 -133 -229 -201 c 0
 -229 -257.486 -182.863 -285 -134 -285 c 256
EndSplineSet
Fore
SplineSet
333 -68 m 1
 400.407 -68 433 -134.944 433 -200 c 0
 433 -279.268 386.3 -338 313 -338 c 0
 245.2 -338 217.672 -284.393 200 -244 c 1
 183.199 -292.878 153.2 -338 83 -338 c 0
 20.6 -338 -7.79475 -280.411 -21 -254 c 1
 -32.0985 -283.259 -52.7658 -340 -131 -340 c 256
 -225.4 -340 -249 -258.402 -249 -206 c 256
 -249 -138.793 -211.201 -65 -126 -65 c 0
 -54.7471 -65 -12 -116.159 -12 -191 c 0
 -11.3333 -203.667 -10.3333 -213 -9 -219 c 0
 5 -262.333 35.6667 -284 83 -284 c 0
 159 -284 178 -229.438 178 -199 c 0
 178 -150.816 145.6 -119 97 -119 c 0
 54.0996 -119 54.3781 -68 103 -68 c 0
 173.928 -68 204 -153.069 204 -195 c 1
 217.916 -231.688 244.47 -284 315 -284 c 0
 391.8 -284 411 -227 411 -195 c 0
 411 -166.625 394.8 -119 330 -119 c 0
 271.193 -119 289.164 -63.1292 333 -68 c 1
199 -332 m 1
 222.286 -382.453 223.356 -378.213 233 -411 c 0
 238 -428 226 -453 202 -453 c 0
 178.667 -453 167 -438.667 167 -410 c 0
 167 -403.119 194.84 -341.621 199 -332 c 1
-134 -285 m 256
 -86.0469 -285 -38 -258.15 -38 -201 c 0
 -38 -147.525 -82.8414 -116 -134 -116 c 256
 -170.938 -116 -229 -133 -229 -201 c 0
 -229 -257.486 -182.863 -285 -134 -285 c 256
EndSplineSet
Position2: "SubMove-1" dx=-100 dy=0 dh=0 dv=0
Ligature2: "'blwf' Below Base Forms in Kannada lookup 5 subtable" u0C9D u0CCD
LCarets2: 1 0
EndChar

StartChar: u0C9D_base
Encoding: 161 -1 161
Width: 361
Flags: HW
HStem: -10 109<43.503 212.221> 487 96<20.7008 121.007>
VStem: 250 119<-206.875 -90.2809> 303 21<194.555 315.466>
LayerCount: 2
Back
SplineSet
62 583 m 4
 119.333 583 176.333 551.333 233 488 c 4
 294.333 419.333 324.667 344.333 324 263 c 4
 324 111.574 259.327 -10 126 -10 c 4
 55.3333 -10 3.33333 26.6667 -30 100 c 4
 -40.6667 124 -50 160.667 -58 210 c 5
 -51.3067 180.549 -25.0629 99 135 99 c 4
 219.159 99 303 149.681 303 249 c 4
 303 394.35 186.615 449.779 59 487 c 4
 -13 508 7.65369 583 62 583 c 4
306 11 m 5
 334.456 -52.6876 367.983 -139.728 369 -156 c 5
 369 -205 333 -221 309 -221 c 4
 279.194 -221 250 -199.007 250 -159 c 4xe0
 250 -129.462 302.1 1.57603 306 11 c 5
EndSplineSet
Fore
SplineSet
62 583 m 0
 119.333 583 176.333 551.333 233 488 c 0
 294.333 419.333 324.667 344.333 324 263 c 0
 324 111.574 259.327 -10 126 -10 c 0
 55.3333 -10 3.33333 26.6667 -30 100 c 0
 -40.6667 124 -50 160.667 -58 210 c 1
 -51.3067 180.549 -25.0629 99 135 99 c 0
 219.159 99 303 149.681 303 249 c 0
 303 394.35 186.615 449.779 59 487 c 0
 -13 508 7.65369 583 62 583 c 0
306 11 m 1
 334.456 -52.6876 367.983 -139.728 369 -156 c 1
 369 -205 333 -221 309 -221 c 0
 279.194 -221 250 -199.007 250 -159 c 0xe0
 250 -129.462 302.1 1.57603 306 11 c 1
EndSplineSet
EndChar

StartChar: u0C9D.base.mathra
Encoding: 162 -1 162
Width: 1377
Flags: W
HStem: -10 109<654.766 821.319 1017.51 1179.14> -2 100<213.208 411.069> 473 106<1032 1109.12> 484 92<41 164 203.335 419.594 459 494.505 1188 1207> 487 96<630.701 731.007>
VStem: 43 65<199.676 359.411> 513 69<197.718 360.514> 527 55<608.785 720.781> 860 119<-206.875 -91.2209> 913 21<193.714 315.842> 1032 175<486 579> 1262 31<197.374 333.9>
LayerCount: 2
Back
SplineSet
1262 266 m 0x8e70
 1262 383.994 1154.12 452.998 1032 473 c 1
 1032 579 l 1
 1207 579 l 1
 1207 486 l 1
 1188 486 l 1
 1264.54 423.516 1293 307.186 1293 224 c 0
 1293 83.8857 1223.07 -9 1094 -9 c 0
 1001.06 -9 944.47 61.5222 921.169 153.922 c 1
 896.308 57.2075 835.13 -9.99999 736 -10 c 0xa670
 665.333 -10 613.333 26.667 580 100 c 0
 573.557 114.496 567.601 133.613 562.131 157.351 c 1
 522.226 56.755 426.062 -1.99999 309 -2 c 0
 237.667 -2 177.118 19.8036 127 63 c 0
 71.1316 111.153 43 176.333 43 259 c 0
 43 365.834 113.829 449.736 164 484 c 1
 41 484 l 1
 41 576 l 1
 420 576 l 2
 508.207 576 527 633.32 527 670 c 0
 527 734.2 484.512 766.495 462 777 c 1
 493 796 l 1
 538.314 775.284 582 702.529 582 627 c 0
 582 501.741 463.267 484 459 484 c 1x5570
 514.101 434.409 580.429 373.755 582 267 c 0
 582 232.288 576.849 200.347 567.289 171.533 c 1
 587.861 137.795 634.6 99 745 99 c 0
 829.159 99 913 149.681 913 249 c 0
 913 394.35 790.444 448.1 669 487 c 0
 658.077 489.184 622 496.8 622 536 c 0
 622 558.55 642 583 672 583 c 0
 729.333 583 786.333 551.333 843 488 c 0
 904.333 419.333 934 344.336 934 263 c 0
 934 231.956 931.282 202.166 925.811 174.421 c 1
 946.715 141.033 993.527 100 1103 100 c 0
 1198.4 100 1262 179.878 1262 266 c 0x8e70
312 98 m 0x4e30
 429.297 98 513 171.532 513 295 c 0
 513 448.6 394.5 487 310 487 c 0
 184.67 487 108 412.168 108 291 c 0
 108 175.2 196.536 98 312 98 c 0x4e30
916 11 m 1
 944.456 -52.6875 977.983 -139.728 979 -156 c 0
 979 -205 943 -221 919 -221 c 0
 889.194 -221 860 -199.007 860 -159 c 0x04b0
 860 -129.462 912.1 1.57607 916 11 c 1
EndSplineSet
Fore
SplineSet
1262 266 m 4x8e70
 1262 383.994 1154.12 452.998 1032 473 c 5
 1032 579 l 5
 1207 579 l 5
 1207 486 l 5
 1188 486 l 5
 1264.54 423.516 1293 307.186 1293 224 c 4
 1293 83.8857 1223.07 -9 1094 -9 c 4
 1001.06 -9 944.47 61.5222 921.169 153.922 c 5
 896.308 57.2075 835.13 -9.99999 736 -10 c 4xa670
 665.333 -10 613.333 26.667 580 100 c 4
 573.557 114.496 567.601 133.613 562.131 157.351 c 5
 522.226 56.755 426.062 -1.99999 309 -2 c 4
 237.667 -2 177.118 19.8036 127 63 c 4
 71.1316 111.153 43 176.333 43 259 c 4
 43 365.834 113.829 449.736 164 484 c 5
 41 484 l 5
 41 576 l 5
 420 576 l 6
 508.207 576 527 633.32 527 670 c 4
 527 734.2 484.512 766.495 462 777 c 5
 493 796 l 5
 538.314 775.284 582 702.529 582 627 c 4
 582 501.741 463.267 484 459 484 c 5x5570
 514.101 434.409 580.429 373.755 582 267 c 4
 582 232.288 576.849 200.347 567.289 171.533 c 5
 587.861 137.795 634.6 99 745 99 c 4
 829.159 99 913 149.681 913 249 c 4
 913 394.35 790.444 448.1 669 487 c 4
 658.077 489.184 622 496.8 622 536 c 4
 622 558.55 642 583 672 583 c 4
 729.333 583 786.333 551.333 843 488 c 4
 904.333 419.333 934 344.336 934 263 c 4
 934 231.956 931.282 202.166 925.811 174.421 c 5
 946.715 141.033 993.527 100 1103 100 c 4
 1198.4 100 1262 179.878 1262 266 c 4x8e70
312 98 m 4x4e30
 429.297 98 513 171.532 513 295 c 4
 513 448.6 394.5 487 310 487 c 4
 184.67 487 108 412.168 108 291 c 4
 108 175.2 196.536 98 312 98 c 4x4e30
916 11 m 5
 944.456 -52.6875 977.983 -139.728 979 -156 c 4
 979 -205 943 -221 919 -221 c 4
 889.194 -221 860 -199.007 860 -159 c 4x04b0
 860 -129.462 912.1 1.57607 916 11 c 5
EndSplineSet
EndChar

StartChar: u0C9E
Encoding: 163 3230 163
Width: 1127
Flags: HW
LayerCount: 2
Back
SplineSet
888 586 m 0
 985.03 586 1043.63 509.002 1041 418 c 1
 1041 325.034 985.071 250 921 250 c 0
 882.212 250 884 287.672 884 306 c 1
 982.037 306 1008 347.8 1008 385 c 256
 1008 423.8 976.916 484 881 484 c 0
 787.4 484 742.061 406.248 725 377 c 1
 725 290.6 681.47 244.431 669 233 c 1
 687.878 191.466 641 128.995 641 86 c 0
 641 66.2 653.8 53 673 53 c 0
 692.8 53 707.36 67.0136 706 101 c 1
 725 92 l 1
 725 66.1035 731.05 -2 652 -2 c 0
 620.4 -2 573 13.6 573 76 c 0
 573 98.6 612.142 174.148 614 189 c 1
 570.999 164.106 536.4 159 517 159 c 0
 429 159 402 207 402 239 c 0
 402 272.6 431.85 323 525 323 c 0
 577.4 323 617.339 305.566 653 275 c 1
 677.632 281.842 696 322.204 696 359 c 0
 696 434 629.658 484 557 484 c 0
 514.976 484 442.01 468.015 382 373 c 1
 362.705 426.753 324.763 484 224 484 c 0
 138.476 484 87 429.918 87 382 c 0
 87 351.6 109 306 216 306 c 1
 223.874 276.477 223.359 250 184 250 c 0
 93.575 250 51 327.871 51 410 c 0
 51 507.147 108.312 586 215 586 c 0
 316.4 586 366.072 481.297 384 447 c 1
 422.734 530.924 487.8 586 557 586 c 0
 623.4 586 696.21 542.256 723 447 c 1
 741.045 484.808 783.177 586 888 586 c 0
539 293 m 0
 495 293 473 266.6 473 249 c 0
 473 224.333 493.333 212 534 212 c 0
 573.817 212 601.94 229.382 625 251 c 1
 607.951 278.28 577.809 293 539 293 c 0
EndSplineSet
Fore
SplineSet
888 586 m 0
 985.03 586 1043.63 509.002 1041 418 c 1
 1041 325.034 985.071 250 921 250 c 0
 882.212 250 884 287.672 884 306 c 1
 982.037 306 1008 347.8 1008 385 c 256
 1008 423.8 976.916 484 881 484 c 0
 787.4 484 742.061 406.248 725 377 c 1
 725 290.6 681.47 244.431 669 233 c 1
 687.878 191.466 641 128.995 641 86 c 0
 641 66.2 653.8 53 673 53 c 0
 692.8 53 707.36 67.0136 706 101 c 1
 725 92 l 1
 725 66.1035 731.05 -2 652 -2 c 0
 620.4 -2 573 13.6 573 76 c 0
 573 98.6 612.142 174.148 614 189 c 1
 570.999 164.106 536.4 159 517 159 c 0
 429 159 402 207 402 239 c 0
 402 272.6 431.85 323 525 323 c 0
 577.4 323 617.339 305.566 653 275 c 1
 677.632 281.842 696 322.204 696 359 c 0
 696 434 629.658 484 557 484 c 0
 514.976 484 442.01 468.015 382 373 c 1
 362.705 426.753 324.763 484 224 484 c 0
 138.476 484 87 429.918 87 382 c 0
 87 351.6 109 306 216 306 c 1
 223.874 276.477 223.359 250 184 250 c 0
 93.575 250 51 327.871 51 410 c 0
 51 507.147 108.312 586 215 586 c 0
 316.4 586 366.072 481.297 384 447 c 1
 422.734 530.924 487.8 586 557 586 c 0
 623.4 586 696.21 542.256 723 447 c 1
 741.045 484.808 783.177 586 888 586 c 0
539 293 m 0
 495 293 473 266.6 473 249 c 0
 473 224.333 493.333 212 534 212 c 0
 573.817 212 601.94 229.382 625 251 c 1
 607.951 278.28 577.809 293 539 293 c 0
EndSplineSet
Ligature2: "Ligature Substitution lookup 14 subtable" u0C9E u0CCD
LCarets2: 1 0
EndChar

StartChar: u0C9E.sub
Encoding: 164 -1 164
Width: 387
Flags: HW
LayerCount: 2
Back
SplineSet
374 -173 m 0
 374 -207.35 356.305 -254.143 306 -251 c 0
 298.457 -251 290.843 -249.337 285 -247 c 1
 321 -239 339 -221.667 339 -195 c 0
 339 -162.812 311.061 -133 272 -133 c 0
 232 -133 202.333 -156.333 183 -195 c 0
 177.667 -207.667 172.333 -227 167 -253 c 1
 179.667 -271.667 186 -290.667 186 -310 c 0
 186 -352 155.4 -380 135 -380 c 1
 116 -379 l 1
 138.643 -368.275 157 -344.78 157 -314 c 0
 157 -304 154.333 -294 149 -284 c 1
 121.657 -321.111 84.8 -340 42 -340 c 0
 -34.675 -340 -56 -298.6 -56 -271 c 0
 -56 -243 -29.2 -201 43 -201 c 0
 75.8876 -201 117.646 -209.279 143 -229 c 1
 144.333 -219.667 145 -213.667 145 -211 c 0
 145 -168.158 104.441 -133 57 -133 c 256
 27.1016 -133 -4.8 -142.8 -28 -166 c 1
 -33.8064 -159.364 -56.7922 -133 -120 -133 c 0
 -174.7 -133 -192 -167.8 -192 -191 c 0
 -192 -220.333 -174.333 -235 -139 -235 c 1
 -140.641 -239.103 -143.4 -250 -161 -250 c 0
 -201.2 -250 -228 -215.05 -228 -171 c 0
 -228 -124.965 -201.216 -63 -123 -63 c 0
 -83.8 -63 -51.166 -91.3584 -25 -125 c 1
 8 -61 59.3359 -63 74 -63 c 0
 138.827 -63 162.393 -105.852 178 -147 c 1
 190.592 -119.718 216.4 -63 274 -63 c 0
 345.05 -63 374 -128.569 374 -173 c 0
-28 -268 m 0
 -28 -283.2 -11.2 -306 37 -306 c 0
 75.4 -306 104.8 -289.2 133 -261 c 1
 122.299 -249.585 99.3324 -229 40 -229 c 0
 -12.45 -229 -28 -252.4 -28 -268 c 0
EndSplineSet
Fore
SplineSet
374 -173 m 4
 374 -207.35 356.305 -254.143 306 -251 c 4
 298.457 -251 290.843 -249.337 285 -247 c 5
 321 -239 339 -221.667 339 -195 c 4
 339 -162.812 311.061 -133 272 -133 c 4
 232 -133 202.333 -156.333 183 -195 c 4
 177.667 -207.667 172.333 -227 167 -253 c 5
 179.667 -271.667 186 -290.667 186 -310 c 4
 186 -352 155.4 -380 135 -380 c 5
 116 -379 l 5
 138.643 -368.275 157 -344.78 157 -314 c 4
 157 -304 154.333 -294 149 -284 c 5
 121.657 -321.111 84.8 -340 42 -340 c 4
 -34.675 -340 -56 -298.6 -56 -271 c 4
 -56 -243 -29.2 -201 43 -201 c 4
 75.8876 -201 117.646 -209.279 143 -229 c 5
 144.333 -219.667 145 -213.667 145 -211 c 4
 145 -168.158 104.441 -133 57 -133 c 260
 27.1016 -133 -4.8 -142.8 -28 -166 c 5
 -33.8064 -159.364 -56.7922 -133 -120 -133 c 4
 -174.7 -133 -192 -167.8 -192 -191 c 4
 -192 -220.333 -174.333 -235 -139 -235 c 5
 -140.641 -239.103 -143.4 -250 -161 -250 c 4
 -201.2 -250 -228 -215.05 -228 -171 c 4
 -228 -124.965 -201.216 -63 -123 -63 c 4
 -83.8 -63 -51.166 -91.3584 -25 -125 c 5
 8 -61 59.3359 -63 74 -63 c 4
 138.827 -63 162.393 -105.852 178 -147 c 5
 190.592 -119.718 216.4 -63 274 -63 c 4
 345.05 -63 374 -128.569 374 -173 c 4
-28 -268 m 4
 -28 -283.2 -11.2 -306 37 -306 c 4
 75.4 -306 104.8 -289.2 133 -261 c 5
 122.299 -249.585 99.3324 -229 40 -229 c 4
 -12.45 -229 -28 -252.4 -28 -268 c 4
EndSplineSet
Position2: "SubMove-1" dx=-100 dy=0 dh=0 dv=0
Ligature2: "'blwf' Below Base Forms in Kannada lookup 5 subtable" u0C9E u0CCD
LCarets2: 1 0
EndChar

StartChar: u0C9F
Encoding: 165 3231 165
Width: 760
Flags: HW
LayerCount: 2
Back
SplineSet
526 649 m 0
 608.194 649 660.593 594.549 662 513 c 0
 662 442.449 639.286 411 611 389 c 1
 712.173 348.881 730 248.083 730 197 c 0
 730 79.0563 657.2 -10 548 -10 c 0
 451.4 -10 410.363 69.9958 387 131 c 1
 354.327 45.6876 307.082 -10 231 -10 c 0
 115.03 -10 48 104.499 48 233 c 0
 48 329.427 87.0168 413.006 155 437 c 1
 121.081 451.133 47 483.4 47 553 c 0
 47 625 107.424 643 148 643 c 0
 177.333 643 197.333 635.333 208 620 c 1
 171.374 617.385 125 608.82 125 549 c 256
 125 486 183.84 458.624 216.5 444 c 0
 257.636 425.581 285 382.74 285 327 c 0
 285 266.75 253.521 212 199 212 c 0
 149.293 212 115 254.37 115 308 c 2
 115 337 l 1
 90.3333 310.333 78 276.333 78 235 c 0
 78 149.342 133.873 96 223 96 c 0
 320.8 96 375.274 208.264 386 228 c 1
 402.413 193.611 444.551 96 550 96 c 0
 658.65 96 697 174.8 697 226 c 0
 697 273.584 671.6 340 570 340 c 2
 495 340 l 1
 495 414 l 1
 576 414 l 2
 606.61 414 624 439.393 624 470 c 0
 624 528.817 571.241 557 505 557 c 0
 458.333 557 435 571 435 599 c 0
 435 619 454.45 649 526 649 c 0
133 349 m 0
 133 292.797 175.451 267.067 208 290 c 0
 252 321 221.226 416.994 134 363 c 1
 133.333 357 133 352.333 133 349 c 0
EndSplineSet
Fore
SplineSet
526 649 m 4
 608.194 649 660.593 594.549 662 513 c 4
 662 442.449 639.286 411 611 389 c 5
 712.173 348.881 730 248.083 730 197 c 4
 730 79.0563 657.2 -10 548 -10 c 4
 451.4 -10 410.363 69.9958 387 131 c 5
 354.327 45.6876 307.082 -10 231 -10 c 4
 115.03 -10 48 104.499 48 233 c 4
 48 329.427 87.0168 413.006 155 437 c 5
 121.081 451.133 47 483.4 47 553 c 4
 47 625 107.424 643 148 643 c 4
 177.333 643 197.333 635.333 208 620 c 5
 171.374 617.385 125 608.82 125 549 c 260
 125 486 183.84 458.624 216.5 444 c 4
 257.636 425.581 285 382.74 285 327 c 4
 285 266.75 253.521 212 199 212 c 4
 149.293 212 115 254.37 115 308 c 6
 115 337 l 5
 90.3333 310.333 78 276.333 78 235 c 4
 78 149.342 133.873 96 223 96 c 4
 320.8 96 375.274 208.264 386 228 c 5
 402.413 193.611 444.551 96 550 96 c 4
 658.65 96 697 174.8 697 226 c 4
 697 273.584 671.6 340 570 340 c 6
 495 340 l 5
 495 414 l 5
 576 414 l 6
 606.61 414 624 439.393 624 470 c 4
 624 528.817 571.241 557 505 557 c 4
 458.333 557 435 571 435 599 c 4
 435 619 454.45 649 526 649 c 4
133 349 m 4
 133 292.797 175.451 267.067 208 290 c 4
 252 321 221.226 416.994 134 363 c 5
 133.333 357 133 352.333 133 349 c 4
EndSplineSet
Substitution2: "Single Substitution lookup 15 subtable" u0C9F.base
Ligature2: "Ligature Substitution lookup 14 subtable" u0C9F u0CCD
LCarets2: 1 0
EndChar

StartChar: u0C9F.base
Encoding: 166 -1 166
Width: 777
Flags: HW
LayerCount: 2
Back
SplineSet
560 582 m 1
 586.146 558.967 681.543 476.859 683 439 c 0
 683 391 649.779 383.945 630 379 c 1
 724.988 325.805 731 219.396 731 188 c 0
 731 72.8656 661.8 -12 558 -12 c 0
 451.2 -12 397.454 96.1879 380 129 c 1
 352.273 39.6581 297.288 -13 231 -13 c 0
 115.03 -13 48 101.499 48 230 c 0
 48 326.427 87.0168 410.006 155 434 c 1
 121.081 448.133 47 480.4 47 550 c 0
 47 622 107.424 640 148 640 c 0
 177.333 640 197.333 632.333 208 617 c 1
 171.374 614.385 125 605.82 125 546 c 256
 125 483 183.84 455.624 216.5 441 c 128
 257.636 422.581 285 379.74 285 324 c 0
 285 263.75 253.521 209 199 209 c 0
 149.293 209 115 251.37 115 305 c 2
 115 334 l 1
 90.3333 307.333 78 273.333 78 232 c 0
 78 146.342 133.873 93 223 93 c 0
 321.466 93 368.618 202.236 380 225 c 1
 397.658 193.923 451.2 95 558 95 c 0
 656.005 95 697 162.621 697 218 c 0
 697 274.998 659.84 332 583 332 c 2
 497 332 l 1
 497 409 l 1
 600 409 l 2
 622.813 409 637 420.91 637 443 c 0
 637 468.235 616.284 490 593 490 c 2
 378 490 l 1
 378 582 l 1
 560 582 l 1
133 349 m 0
 133 301.881 182 264 211 293 c 0
 263.038 345.038 195 413 134 363 c 1
 133.333 357 133 352.333 133 349 c 0
EndSplineSet
Fore
SplineSet
560 582 m 1
 586.146 558.967 681.543 476.859 683 439 c 0
 683 391 649.779 383.945 630 379 c 1
 724.988 325.805 731 219.396 731 188 c 0
 731 72.8656 661.8 -12 558 -12 c 0
 451.2 -12 397.454 96.1879 380 129 c 1
 352.273 39.6581 297.288 -13 231 -13 c 0
 115.03 -13 48 101.499 48 230 c 0
 48 326.427 87.0168 410.006 155 434 c 1
 121.081 448.133 47 480.4 47 550 c 0
 47 622 107.424 640 148 640 c 0
 177.333 640 197.333 632.333 208 617 c 1
 171.374 614.385 125 605.82 125 546 c 256
 125 483 183.84 455.624 216.5 441 c 128
 257.636 422.581 285 379.74 285 324 c 0
 285 263.75 253.521 209 199 209 c 0
 149.293 209 115 251.37 115 305 c 2
 115 334 l 1
 90.3333 307.333 78 273.333 78 232 c 0
 78 146.342 133.873 93 223 93 c 0
 321.466 93 368.618 202.236 380 225 c 1
 397.658 193.923 451.2 95 558 95 c 0
 656.005 95 697 162.621 697 218 c 0
 697 274.998 659.84 332 583 332 c 2
 497 332 l 1
 497 409 l 1
 600 409 l 2
 622.813 409 637 420.91 637 443 c 0
 637 468.235 616.284 490 593 490 c 2
 378 490 l 1
 378 582 l 1
 560 582 l 1
133 349 m 0
 133 301.881 182 264 211 293 c 0
 263.038 345.038 195 413 134 363 c 1
 133.333 357 133 352.333 133 349 c 0
EndSplineSet
EndChar

StartChar: u0C9F.imathra
Encoding: 167 -1 167
Width: 760
Flags: HW
HStem: -10 106<149.091 305.077 469.579 627.658> 331 71<490 608.913> 475 54<529.498 639.567> 620 23<157.428 187.751> 642 62<539.396 642.009>
VStem: 47 78<489.204 601.806> 48 26<177.658 298.957> 114 19<305.494 337> 230 54<291.379 373.128> 494 26<547.156 614.842> 698 27<168.398 274.183>
LayerCount: 2
Back
SplineSet
601 704 m 0xebe0
 648.2 704 719 669.792 719 562 c 0
 719 487.301 662.405 427.121 611 380 c 5
 704.78 348.739 725 256.124 725 201 c 0
 725 86.7762 654.2 -10 548 -10 c 0
 451.4 -10 410.345 66.3405 387 126 c 1
 354.555 43.0837 306.957 -10 231 -10 c 0
 112.429 -10 48 99.9277 48 235 c 0xebe0
 48 320.015 76.3945 407.402 137 437 c 1
 112.023 449.488 47 483.4 47 553 c 0
 47 625 107.424 643 148 643 c 0
 177.333 643 197.333 635.333 208 620 c 1
 171.374 617.385 125 608.82 125 549 c 0xf4e0
 125 465.8 184 466 213 445 c 0
 283.021 394.295 284 359.06 284 327 c 0
 284 266.75 252.521 212 198 212 c 0
 148.293 212 114 254.37 114 308 c 2
 114 337 l 1
 87.3333 312.333 74 279 74 237 c 0
 74 173.221 113.565 94 223 94 c 0
 337.038 94 370.887 187.377 386 226 c 1
 410.123 167.033 451.2 96 549 96 c 0
 661.802 96 698 170.669 698 222 c 0
 698 289.297 644.376 331 571 331 c 2
 490 331 l 1
 490 402 l 1
 590 402 l 1
 653.14 457.965 664.389 509.387 668 526 c 1
 642 492 612 475 578 475 c 0
 544.4 475 494 499.797 494 577 c 0
 494 672.874 558.2 704 601 704 c 0xebe0
520 580 m 0
 520 559.6 530.85 529 587 529 c 0
 641.551 529 657.984 557.463 668 580 c 1
 657.924 603.511 637.6 642 592 642 c 0
 550.049 642 520 614.456 520 580 c 0
230 336 m 0
 232 380 162.488 401.912 133 364 c 1
 132.333 345.333 132.667 332 134 324 c 0
 148.698 267.877 226.729 264.047 230 336 c 0
EndSplineSet
Fore
SplineSet
601 704 m 0xebe0
 648.2 704 719 669.792 719 562 c 0
 719 487.301 662.405 427.121 611 380 c 1
 704.78 348.739 725 256.124 725 201 c 0
 725 86.7762 654.2 -10 548 -10 c 0
 451.4 -10 410.345 66.3405 387 126 c 1
 354.555 43.0837 306.957 -10 231 -10 c 0
 112.429 -10 48 99.9277 48 235 c 0xebe0
 48 320.015 76.3945 407.402 137 437 c 1
 112.023 449.488 47 483.4 47 553 c 0
 47 625 107.424 643 148 643 c 0
 177.333 643 197.333 635.333 208 620 c 1
 171.374 617.385 125 608.82 125 549 c 0xf4e0
 125 465.8 181.977 462.877 213 445 c 0
 272 411 284 359.06 284 327 c 0
 284 266.75 252.521 212 198 212 c 0
 148.293 212 114 254.37 114 308 c 2
 114 337 l 1
 87.3333 312.333 74 279 74 237 c 0
 74 173.221 113.565 94 223 94 c 0
 337.038 94 370.887 187.377 386 226 c 1
 410.123 167.033 451.2 94 549 94 c 0
 661.802 94 698 170.669 698 222 c 0
 698 289.297 644.376 331 571 331 c 2
 490 331 l 1
 490 402 l 1
 590 402 l 1
 653.14 457.965 664.389 509.387 668 526 c 1
 642 492 612 475 578 475 c 0
 544.4 475 494 499.797 494 577 c 0
 494 672.874 558.2 704 601 704 c 0xebe0
520 580 m 0
 520 559.6 530.85 529 587 529 c 0
 641.551 529 657.984 557.463 668 580 c 1
 657.924 603.511 637.6 642 592 642 c 0
 550.049 642 520 614.456 520 580 c 0
230 336 m 0
 232 380 162.488 401.912 133 364 c 1
 132.333 345.333 132.667 332 134 324 c 0
 148.698 267.877 226.729 264.047 230 336 c 0
EndSplineSet
Ligature2: "'abvs' Above Base Substitutions in Kannada lookup 11 subtable" u0C9F u0CBF
LCarets2: 1 0
EndChar

StartChar: u0C9F.sub
Encoding: 168 -1 168
Width: 442
Flags: HW
LayerCount: 2
Back
SplineSet
296 175 m 1
 362.732 175 388.809 89.9788 394 44 c 0
 401 -18 347.512 -61.5833 315 -79 c 1
 387.21 -130.843 394 -197.904 394 -223 c 0
 394 -302.06 339.2 -367 257 -367 c 0
 188 -367 155.846 -318 142 -294 c 1
 124.895 -324.546 94.8 -367 24 -367 c 0
 -74.0191 -367 -120 -276.53 -120 -197 c 0
 -120 -136.111 -94.4853 -86.9056 -51 -69 c 1
 -73 -55 -84 -39.3333 -84 -22 c 0
 -84 34.6404 -19.4004 39.8006 -7 15 c 1
 -50.8446 20.4809 -61.5759 -0.95415 -50 -27 c 0
 -44.1516 -40.1589 -24.1979 -55.9009 -10 -63 c 1
 35.3361 -63 60 -94.2352 60 -132 c 0
 60 -173.007 32.2498 -213 -18 -213 c 0
 -59.4 -213 -77.4235 -186.547 -87 -165 c 1
 -91.6667 -180.333 -94 -193.333 -94 -204 c 0
 -94 -264.403 -43.4494 -304 9 -304 c 0
 91.6995 -304 122.471 -230.407 135 -203 c 1
 148.91 -243.571 174.871 -304 257 -304 c 0
 320.363 -304 356 -261.129 356 -208 c 0
 356 -162.743 333.068 -102.662 256 -78 c 1
 280.305 -61.1733 334 -19.2 334 69 c 0
 334 107.258 318.363 146.247 296 175 c 1
-70 -127 m 1
 -68.6017 -138.187 -68.3329 -173 -25 -173 c 0
 5.66667 -173 21 -160.667 21 -136 c 0
 21 -112 7 -100.667 -21 -102 c 0
 -40.0639 -102 -62.9319 -109.331 -70 -127 c 1
EndSplineSet
Fore
SplineSet
296 175 m 5
 362.732 175 389.335 85.9857 394 44 c 5
 394 -29.8 347.512 -61.5833 315 -79 c 5
 387.21 -130.843 394 -197.904 394 -223 c 4
 394 -302.06 339.2 -371 257 -371 c 4
 188 -371 155.846 -318 142 -294 c 5
 124.895 -324.546 94.8 -367 24 -367 c 4
 -74.0191 -367 -120 -276.53 -120 -197 c 4
 -120 -136.111 -94.4853 -86.9056 -51 -69 c 5
 -73 -55 -84 -39.3333 -84 -22 c 4
 -84 34.6404 -19.4004 39.8006 -7 15 c 5
 -50.8446 20.4809 -61.5759 -0.95415 -50 -27 c 4
 -44.1516 -40.1589 -24.1979 -55.9009 -10 -63 c 5
 35.3361 -63 60 -94.2352 60 -132 c 4
 60 -173.007 32.2498 -213 -18 -213 c 4
 -59.4 -213 -77.4235 -186.547 -87 -165 c 5
 -91.6667 -180.333 -94 -193.333 -94 -204 c 4
 -94 -264.403 -43.4494 -304 9 -304 c 4
 91.6995 -304 122.471 -230.407 135 -203 c 5
 148.91 -243.571 174.871 -305 257 -305 c 4
 320.363 -305 356 -261.129 356 -208 c 4
 356 -162.743 333.068 -102.662 256 -78 c 5
 280.305 -61.1733 334 -19.2 334 69 c 4
 334 107.258 318.363 146.247 296 175 c 5
-70 -127 m 5
 -68.6017 -138.187 -68.3329 -173 -25 -173 c 4
 5.66667 -173 21 -160.667 21 -136 c 4
 21 -112 7 -100.667 -21 -102 c 4
 -40.0639 -102 -62.9319 -109.331 -70 -127 c 5
EndSplineSet
Position2: "SubMove-1" dx=-100 dy=0 dh=0 dv=0
Ligature2: "'blwf' Below Base Forms in Kannada lookup 5 subtable" u0C9F u0CCD
LCarets2: 1 0
EndChar

